# MagicaVoxel @ Ephtracy

# group
g GrassCornerIn

# material
mtllib GrassCornerIn.mtl
usemtl palette

# normals
vn -1 0 0
vn 1 0 0
vn 0 0 1
vn 0 0 -1
vn 0 -1 0
vn 0 1 0

# texcoords
vt 0.466797 0.5
vt 0.626953 0.5
vt 0.966797 0.5

# verts
v -20 0 20
v -20 0 -20
v -20 4 20
v -20 4 9
v -20 4 8
v -20 4 -20
v -20 5 9
v -20 5 8
v -18 4 -3
v -18 4 -4
v -18 5 -3
v -18 5 -4
v -17 4 -2
v -17 4 -3
v -17 4 -17
v -17 4 -18
v -17 5 -2
v -17 5 -3
v -17 5 -17
v -17 5 -18
v -11 4 15
v -11 4 14
v -11 5 15
v -11 5 14
v -7 4 16
v -7 4 15
v -7 4 -16
v -7 4 -17
v -7 5 16
v -7 5 15
v -7 5 -16
v -7 5 -17
v -6 4 -14
v -6 4 -16
v -6 5 -14
v -6 5 -16
v -5 4 -13
v -5 4 -14
v -5 5 -13
v -5 5 -14
v -2 4 4
v -2 4 3
v -2 5 4
v -2 5 3
v 0 4 -6
v 0 4 -7
v 0 5 -6
v 0 5 -7
v 5 4 -14
v 5 4 -15
v 5 5 -14
v 5 5 -15
v 13 4 13
v 13 4 12
v 13 4 -13
v 13 4 -20
v 13 5 13
v 13 5 12
v 13 6 -13
v 13 6 -20
v 18 4 -6
v 18 4 -7
v 18 5 -6
v 18 5 -7
v -19 4 9
v -19 4 8
v -19 5 9
v -19 5 8
v -15 4 -3
v -15 4 -4
v -15 4 -17
v -15 4 -18
v -15 5 -3
v -15 5 -4
v -15 5 -17
v -15 5 -18
v -13 4 -2
v -13 4 -3
v -13 5 -2
v -13 5 -3
v -7 4 15
v -7 4 14
v -7 5 15
v -7 5 14
v -6 4 -16
v -6 4 -17
v -6 5 -16
v -6 5 -17
v -5 4 -14
v -5 4 -16
v -5 5 -14
v -5 5 -16
v -4 4 -13
v -4 4 -14
v -4 5 -13
v -4 5 -14
v -3 4 16
v -3 4 15
v -3 5 16
v -3 5 15
v 1 4 4
v 1 4 3
v 1 5 4
v 1 5 3
v 5 4 -6
v 5 4 -7
v 5 5 -6
v 5 5 -7
v 6 4 -14
v 6 4 -15
v 6 5 -14
v 6 5 -15
v 14 4 13
v 14 4 12
v 14 5 13
v 14 5 12
v 20 0 20
v 20 0 -13
v 20 0 -20
v 20 4 20
v 20 4 -6
v 20 4 -7
v 20 4 -13
v 20 5 -6
v 20 5 -7
v 20 6 -13
v 20 6 -20
v -20 0 20
v -20 4 20
v 20 0 20
v 20 4 20
v -7 4 16
v -7 5 16
v -3 4 16
v -3 5 16
v -11 4 15
v -11 5 15
v -7 4 15
v -7 5 15
v 13 4 13
v 13 5 13
v 14 4 13
v 14 5 13
v -20 4 9
v -20 5 9
v -19 4 9
v -19 5 9
v -2 4 4
v -2 5 4
v 1 4 4
v 1 5 4
v -17 4 -2
v -17 5 -2
v -13 4 -2
v -13 5 -2
v -18 4 -3
v -18 5 -3
v -17 4 -3
v -17 5 -3
v 0 4 -6
v 0 5 -6
v 5 4 -6
v 5 5 -6
v 18 4 -6
v 18 5 -6
v 20 4 -6
v 20 5 -6
v -5 4 -13
v -5 5 -13
v -4 4 -13
v -4 5 -13
v 13 4 -13
v 13 6 -13
v 20 4 -13
v 20 6 -13
v -6 4 -14
v -6 5 -14
v -5 4 -14
v -5 5 -14
v 5 4 -14
v 5 5 -14
v 6 4 -14
v 6 5 -14
v -7 4 -16
v -7 5 -16
v -6 4 -16
v -6 5 -16
v -17 4 -17
v -17 5 -17
v -15 4 -17
v -15 5 -17
v -7 4 15
v -7 5 15
v -3 4 15
v -3 5 15
v -11 4 14
v -11 5 14
v -7 4 14
v -7 5 14
v 13 4 12
v 13 5 12
v 14 4 12
v 14 5 12
v -20 4 8
v -20 5 8
v -19 4 8
v -19 5 8
v -2 4 3
v -2 5 3
v 1 4 3
v 1 5 3
v -15 4 -3
v -15 5 -3
v -13 4 -3
v -13 5 -3
v -18 4 -4
v -18 5 -4
v -15 4 -4
v -15 5 -4
v 0 4 -7
v 0 5 -7
v 5 4 -7
v 5 5 -7
v 18 4 -7
v 18 5 -7
v 20 4 -7
v 20 5 -7
v -5 4 -14
v -5 5 -14
v -4 4 -14
v -4 5 -14
v 5 4 -15
v 5 5 -15
v 6 4 -15
v 6 5 -15
v -6 4 -16
v -6 5 -16
v -5 4 -16
v -5 5 -16
v -7 4 -17
v -7 5 -17
v -6 4 -17
v -6 5 -17
v -17 4 -18
v -17 5 -18
v -15 4 -18
v -15 5 -18
v -20 0 -20
v -20 4 -20
v 13 0 -20
v 13 4 -20
v 13 6 -20
v 20 0 -20
v 20 6 -20
v -20 0 20
v 20 0 20
v 13 0 -13
v 20 0 -13
v -20 0 -20
v 13 0 -20
v 20 0 -20
v -20 4 20
v 20 4 20
v -7 4 16
v -3 4 16
v -11 4 15
v -7 4 15
v -3 4 15
v -11 4 14
v -7 4 14
v 13 4 13
v 14 4 13
v 13 4 12
v 14 4 12
v -20 4 9
v -19 4 9
v -20 4 8
v -19 4 8
v -2 4 4
v 1 4 4
v -2 4 3
v 1 4 3
v -17 4 -2
v -13 4 -2
v -18 4 -3
v -17 4 -3
v -15 4 -3
v -13 4 -3
v -18 4 -4
v -15 4 -4
v 0 4 -6
v 5 4 -6
v 18 4 -6
v 20 4 -6
v 0 4 -7
v 5 4 -7
v 18 4 -7
v 20 4 -7
v -5 4 -13
v -4 4 -13
v 13 4 -13
v 20 4 -13
v -6 4 -14
v -5 4 -14
v -4 4 -14
v 5 4 -14
v 6 4 -14
v 5 4 -15
v 6 4 -15
v -7 4 -16
v -6 4 -16
v -5 4 -16
v -17 4 -17
v -15 4 -17
v -7 4 -17
v -6 4 -17
v -17 4 -18
v -15 4 -18
v -20 4 -20
v 13 4 -20
v -7 5 16
v -3 5 16
v -11 5 15
v -7 5 15
v -3 5 15
v -11 5 14
v -7 5 14
v 13 5 13
v 14 5 13
v 13 5 12
v 14 5 12
v -20 5 9
v -19 5 9
v -20 5 8
v -19 5 8
v -2 5 4
v 1 5 4
v -2 5 3
v 1 5 3
v -17 5 -2
v -13 5 -2
v -18 5 -3
v -17 5 -3
v -15 5 -3
v -13 5 -3
v -18 5 -4
v -15 5 -4
v 0 5 -6
v 5 5 -6
v 18 5 -6
v 20 5 -6
v 0 5 -7
v 5 5 -7
v 18 5 -7
v 20 5 -7
v -5 5 -13
v -4 5 -13
v -6 5 -14
v -5 5 -14
v -4 5 -14
v 5 5 -14
v 6 5 -14
v 5 5 -15
v 6 5 -15
v -7 5 -16
v -6 5 -16
v -5 5 -16
v -17 5 -17
v -15 5 -17
v -7 5 -17
v -6 5 -17
v -17 5 -18
v -15 5 -18
v 13 6 -13
v 20 6 -13
v 13 6 -20
v 20 6 -20

# faces
f 3/1/1 2/1/1 1/1/1
f 4/1/1 2/1/1 3/1/1
f 5/1/1 2/1/1 4/1/1
f 6/1/1 2/1/1 5/1/1
f 7/2/1 5/2/1 4/2/1
f 8/2/1 5/2/1 7/2/1
f 11/2/1 10/2/1 9/2/1
f 12/2/1 10/2/1 11/2/1
f 17/2/1 14/2/1 13/2/1
f 18/2/1 14/2/1 17/2/1
f 19/2/1 16/2/1 15/2/1
f 20/2/1 16/2/1 19/2/1
f 23/2/1 22/2/1 21/2/1
f 24/2/1 22/2/1 23/2/1
f 29/2/1 26/2/1 25/2/1
f 30/2/1 26/2/1 29/2/1
f 31/2/1 28/2/1 27/2/1
f 32/2/1 28/2/1 31/2/1
f 35/2/1 34/2/1 33/2/1
f 36/2/1 34/2/1 35/2/1
f 39/2/1 38/2/1 37/2/1
f 40/2/1 38/2/1 39/2/1
f 43/2/1 42/2/1 41/2/1
f 44/2/1 42/2/1 43/2/1
f 47/2/1 46/2/1 45/2/1
f 48/2/1 46/2/1 47/2/1
f 51/2/1 50/2/1 49/2/1
f 52/2/1 50/2/1 51/2/1
f 57/2/1 54/2/1 53/2/1
f 58/2/1 54/2/1 57/2/1
f 59/3/1 56/3/1 55/3/1
f 60/3/1 56/3/1 59/3/1
f 63/2/1 62/2/1 61/2/1
f 64/2/1 62/2/1 63/2/1
f 65/2/2 66/2/2 67/2/2
f 67/2/2 66/2/2 68/2/2
f 69/2/2 70/2/2 73/2/2
f 73/2/2 70/2/2 74/2/2
f 71/2/2 72/2/2 75/2/2
f 75/2/2 72/2/2 76/2/2
f 77/2/2 78/2/2 79/2/2
f 79/2/2 78/2/2 80/2/2
f 81/2/2 82/2/2 83/2/2
f 83/2/2 82/2/2 84/2/2
f 85/2/2 86/2/2 87/2/2
f 87/2/2 86/2/2 88/2/2
f 89/2/2 90/2/2 91/2/2
f 91/2/2 90/2/2 92/2/2
f 93/2/2 94/2/2 95/2/2
f 95/2/2 94/2/2 96/2/2
f 97/2/2 98/2/2 99/2/2
f 99/2/2 98/2/2 100/2/2
f 101/2/2 102/2/2 103/2/2
f 103/2/2 102/2/2 104/2/2
f 105/2/2 106/2/2 107/2/2
f 107/2/2 106/2/2 108/2/2
f 109/2/2 110/2/2 111/2/2
f 111/2/2 110/2/2 112/2/2
f 113/2/2 114/2/2 115/2/2
f 115/2/2 114/2/2 116/2/2
f 117/1/2 118/1/2 120/1/2
f 120/1/2 118/1/2 121/1/2
f 121/1/2 118/1/2 122/1/2
f 118/3/2 119/3/2 123/3/2
f 122/1/2 118/1/2 123/1/2
f 121/2/2 122/2/2 124/2/2
f 124/2/2 122/2/2 125/2/2
f 123/3/2 119/3/2 126/3/2
f 126/3/2 119/3/2 127/3/2
f 130/1/3 129/1/3 128/1/3
f 131/1/3 129/1/3 130/1/3
f 134/2/3 133/2/3 132/2/3
f 135/2/3 133/2/3 134/2/3
f 138/2/3 137/2/3 136/2/3
f 139/2/3 137/2/3 138/2/3
f 142/2/3 141/2/3 140/2/3
f 143/2/3 141/2/3 142/2/3
f 146/2/3 145/2/3 144/2/3
f 147/2/3 145/2/3 146/2/3
f 150/2/3 149/2/3 148/2/3
f 151/2/3 149/2/3 150/2/3
f 154/2/3 153/2/3 152/2/3
f 155/2/3 153/2/3 154/2/3
f 158/2/3 157/2/3 156/2/3
f 159/2/3 157/2/3 158/2/3
f 162/2/3 161/2/3 160/2/3
f 163/2/3 161/2/3 162/2/3
f 166/2/3 165/2/3 164/2/3
f 167/2/3 165/2/3 166/2/3
f 170/2/3 169/2/3 168/2/3
f 171/2/3 169/2/3 170/2/3
f 174/3/3 173/3/3 172/3/3
f 175/3/3 173/3/3 174/3/3
f 178/2/3 177/2/3 176/2/3
f 179/2/3 177/2/3 178/2/3
f 182/2/3 181/2/3 180/2/3
f 183/2/3 181/2/3 182/2/3
f 186/2/3 185/2/3 184/2/3
f 187/2/3 185/2/3 186/2/3
f 190/2/3 189/2/3 188/2/3
f 191/2/3 189/2/3 190/2/3
f 192/2/4 193/2/4 194/2/4
f 194/2/4 193/2/4 195/2/4
f 196/2/4 197/2/4 198/2/4
f 198/2/4 197/2/4 199/2/4
f 200/2/4 201/2/4 202/2/4
f 202/2/4 201/2/4 203/2/4
f 204/2/4 205/2/4 206/2/4
f 206/2/4 205/2/4 207/2/4
f 208/2/4 209/2/4 210/2/4
f 210/2/4 209/2/4 211/2/4
f 212/2/4 213/2/4 214/2/4
f 214/2/4 213/2/4 215/2/4
f 216/2/4 217/2/4 218/2/4
f 218/2/4 217/2/4 219/2/4
f 220/2/4 221/2/4 222/2/4
f 222/2/4 221/2/4 223/2/4
f 224/2/4 225/2/4 226/2/4
f 226/2/4 225/2/4 227/2/4
f 228/2/4 229/2/4 230/2/4
f 230/2/4 229/2/4 231/2/4
f 232/2/4 233/2/4 234/2/4
f 234/2/4 233/2/4 235/2/4
f 236/2/4 237/2/4 238/2/4
f 238/2/4 237/2/4 239/2/4
f 240/2/4 241/2/4 242/2/4
f 242/2/4 241/2/4 243/2/4
f 244/2/4 245/2/4 246/2/4
f 246/2/4 245/2/4 247/2/4
f 248/1/4 249/1/4 250/1/4
f 250/1/4 249/1/4 251/1/4
f 250/3/4 251/3/4 253/3/4
f 251/3/4 252/3/4 253/3/4
f 253/3/4 252/3/4 254/3/4
f 257/1/5 256/1/5 255/1/5
f 258/1/5 256/1/5 257/1/5
f 259/1/5 257/1/5 255/1/5
f 260/3/5 258/3/5 257/3/5
f 260/1/5 257/1/5 259/1/5
f 261/3/5 258/3/5 260/3/5
f 262/1/6 263/1/6 264/1/6
f 264/1/6 263/1/6 265/1/6
f 262/1/6 264/1/6 266/1/6
f 266/1/6 264/1/6 267/1/6
f 265/1/6 263/1/6 268/1/6
f 262/1/6 266/1/6 269/1/6
f 267/1/6 268/1/6 270/1/6
f 268/1/6 263/1/6 271/1/6
f 269/1/6 270/1/6 271/1/6
f 270/1/6 268/1/6 271/1/6
f 271/1/6 263/1/6 272/1/6
f 269/1/6 271/1/6 273/1/6
f 272/1/6 263/1/6 274/1/6
f 262/1/6 269/1/6 275/1/6
f 273/1/6 274/1/6 275/1/6
f 269/1/6 273/1/6 275/1/6
f 275/1/6 274/1/6 276/1/6
f 276/1/6 274/1/6 278/1/6
f 278/1/6 274/1/6 279/1/6
f 277/1/6 278/1/6 279/1/6
f 279/1/6 274/1/6 280/1/6
f 277/1/6 279/1/6 281/1/6
f 280/1/6 274/1/6 282/1/6
f 277/1/6 281/1/6 283/1/6
f 281/1/6 282/1/6 283/1/6
f 283/1/6 282/1/6 284/1/6
f 277/1/6 283/1/6 285/1/6
f 285/1/6 283/1/6 286/1/6
f 284/1/6 282/1/6 288/1/6
f 277/1/6 285/1/6 289/1/6
f 287/1/6 288/1/6 290/1/6
f 288/1/6 282/1/6 291/1/6
f 289/1/6 290/1/6 291/1/6
f 290/1/6 288/1/6 291/1/6
f 282/1/6 274/1/6 292/1/6
f 291/1/6 282/1/6 292/1/6
f 274/1/6 263/1/6 293/1/6
f 292/1/6 274/1/6 293/1/6
f 293/1/6 263/1/6 294/1/6
f 289/1/6 291/1/6 295/1/6
f 292/1/6 293/1/6 296/1/6
f 296/1/6 293/1/6 297/1/6
f 289/1/6 295/1/6 299/1/6
f 297/1/6 298/1/6 299/1/6
f 296/1/6 297/1/6 299/1/6
f 295/1/6 296/1/6 299/1/6
f 299/1/6 298/1/6 300/1/6
f 300/1/6 298/1/6 301/1/6
f 301/1/6 298/1/6 302/1/6
f 289/1/6 299/1/6 303/1/6
f 303/1/6 299/1/6 304/1/6
f 300/1/6 301/1/6 305/1/6
f 305/1/6 301/1/6 306/1/6
f 306/1/6 301/1/6 307/1/6
f 304/1/6 305/1/6 308/1/6
f 305/1/6 306/1/6 308/1/6
f 307/1/6 301/1/6 309/1/6
f 289/1/6 303/1/6 310/1/6
f 310/1/6 303/1/6 311/1/6
f 304/1/6 308/1/6 312/1/6
f 308/1/6 309/1/6 312/1/6
f 289/1/6 310/1/6 313/1/6
f 313/1/6 310/1/6 314/1/6
f 314/1/6 310/1/6 315/1/6
f 311/1/6 312/1/6 316/1/6
f 289/1/6 313/1/6 317/1/6
f 314/1/6 315/1/6 318/1/6
f 315/1/6 316/1/6 318/1/6
f 277/1/6 289/1/6 319/1/6
f 317/1/6 318/1/6 319/1/6
f 289/1/6 317/1/6 319/1/6
f 318/1/6 316/1/6 320/1/6
f 319/1/6 318/1/6 320/1/6
f 312/1/6 309/1/6 320/1/6
f 316/1/6 312/1/6 320/1/6
f 309/1/6 301/1/6 320/1/6
f 321/2/6 322/2/6 324/2/6
f 324/2/6 322/2/6 325/2/6
f 323/2/6 324/2/6 326/2/6
f 326/2/6 324/2/6 327/2/6
f 328/2/6 329/2/6 330/2/6
f 330/2/6 329/2/6 331/2/6
f 332/2/6 333/2/6 334/2/6
f 334/2/6 333/2/6 335/2/6
f 336/2/6 337/2/6 338/2/6
f 338/2/6 337/2/6 339/2/6
f 340/2/6 341/2/6 343/2/6
f 343/2/6 341/2/6 344/2/6
f 344/2/6 341/2/6 345/2/6
f 342/2/6 343/2/6 346/2/6
f 343/2/6 344/2/6 346/2/6
f 346/2/6 344/2/6 347/2/6
f 348/2/6 349/2/6 352/2/6
f 352/2/6 349/2/6 353/2/6
f 350/2/6 351/2/6 354/2/6
f 354/2/6 351/2/6 355/2/6
f 356/2/6 357/2/6 359/2/6
f 359/2/6 357/2/6 360/2/6
f 361/2/6 362/2/6 363/2/6
f 363/2/6 362/2/6 364/2/6
f 358/2/6 359/2/6 366/2/6
f 366/2/6 359/2/6 367/2/6
f 365/2/6 366/2/6 370/2/6
f 370/2/6 366/2/6 371/2/6
f 368/2/6 369/2/6 372/2/6
f 372/2/6 369/2/6 373/2/6
f 374/3/6 375/3/6 376/3/6
f 376/3/6 375/3/6 377/3/6
