# MagicaVoxel @ Ephtracy

# group
g GrassNoBorder_1

# material
mtllib GrassNoBorder_1.mtl
usemtl palette

# normals
vn -1 0 0
vn 1 0 0
vn 0 0 1
vn 0 0 -1
vn 0 -1 0
vn 0 1 0

# texcoords
vt 0.466797 0.5
vt 0.626953 0.5

# verts
v -20 0 20
v -20 0 -20
v -20 4 20
v -20 4 -20
v -15 4 13
v -15 4 12
v -15 5 13
v -15 5 12
v -14 4 -12
v -14 4 -13
v -14 5 -12
v -14 5 -13
v -12 4 4
v -12 4 3
v -12 5 4
v -12 5 3
v -11 4 14
v -11 4 13
v -11 4 -5
v -11 4 -6
v -11 5 14
v -11 5 13
v -11 5 -5
v -11 5 -6
v -7 4 -6
v -7 4 -7
v -7 5 -6
v -7 5 -7
v 2 4 -13
v 2 4 -14
v 2 5 -13
v 2 5 -14
v 3 4 15
v 3 4 14
v 3 5 15
v 3 5 14
v 5 4 -0
v 5 4 -1
v 5 5 -0
v 5 5 -1
v 9 4 6
v 9 4 5
v 9 5 6
v 9 5 5
v 13 4 13
v 13 4 12
v 13 5 13
v 13 5 12
v -11 4 13
v -11 4 12
v -11 4 -12
v -11 4 -13
v -11 5 13
v -11 5 12
v -11 5 -12
v -11 5 -13
v -10 4 4
v -10 4 3
v -10 5 4
v -10 5 3
v -8 4 14
v -8 4 13
v -8 5 14
v -8 5 13
v -7 4 -5
v -7 4 -6
v -7 5 -5
v -7 5 -6
v -2 4 -6
v -2 4 -7
v -2 5 -6
v -2 5 -7
v 6 4 -13
v 6 4 -14
v 6 5 -13
v 6 5 -14
v 7 4 15
v 7 4 14
v 7 5 15
v 7 5 14
v 8 4 -0
v 8 4 -1
v 8 5 -0
v 8 5 -1
v 14 4 13
v 14 4 12
v 14 4 6
v 14 4 5
v 14 5 13
v 14 5 12
v 14 5 6
v 14 5 5
v 20 0 20
v 20 0 -20
v 20 4 20
v 20 4 -20
v -20 0 20
v -20 4 20
v 20 0 20
v 20 4 20
v 3 4 15
v 3 5 15
v 7 4 15
v 7 5 15
v -11 4 14
v -11 5 14
v -8 4 14
v -8 5 14
v -15 4 13
v -15 5 13
v -11 4 13
v -11 5 13
v 13 4 13
v 13 5 13
v 14 4 13
v 14 5 13
v 9 4 6
v 9 5 6
v 14 4 6
v 14 5 6
v -12 4 4
v -12 5 4
v -10 4 4
v -10 5 4
v 5 4 -0
v 5 5 -0
v 8 4 -0
v 8 5 -0
v -11 4 -5
v -11 5 -5
v -7 4 -5
v -7 5 -5
v -7 4 -6
v -7 5 -6
v -2 4 -6
v -2 5 -6
v -14 4 -12
v -14 5 -12
v -11 4 -12
v -11 5 -12
v 2 4 -13
v 2 5 -13
v 6 4 -13
v 6 5 -13
v 3 4 14
v 3 5 14
v 7 4 14
v 7 5 14
v -11 4 13
v -11 5 13
v -8 4 13
v -8 5 13
v -15 4 12
v -15 5 12
v -11 4 12
v -11 5 12
v 13 4 12
v 13 5 12
v 14 4 12
v 14 5 12
v 9 4 5
v 9 5 5
v 14 4 5
v 14 5 5
v -12 4 3
v -12 5 3
v -10 4 3
v -10 5 3
v 5 4 -1
v 5 5 -1
v 8 4 -1
v 8 5 -1
v -11 4 -6
v -11 5 -6
v -7 4 -6
v -7 5 -6
v -7 4 -7
v -7 5 -7
v -2 4 -7
v -2 5 -7
v -14 4 -13
v -14 5 -13
v -11 4 -13
v -11 5 -13
v 2 4 -14
v 2 5 -14
v 6 4 -14
v 6 5 -14
v -20 0 -20
v -20 4 -20
v 20 0 -20
v 20 4 -20
v -20 0 20
v 20 0 20
v -20 0 -20
v 20 0 -20
v -20 4 20
v 20 4 20
v 3 4 15
v 7 4 15
v -11 4 14
v -8 4 14
v 3 4 14
v 7 4 14
v -15 4 13
v -11 4 13
v -8 4 13
v 13 4 13
v 14 4 13
v -15 4 12
v -11 4 12
v 13 4 12
v 14 4 12
v 9 4 6
v 14 4 6
v 9 4 5
v 14 4 5
v -12 4 4
v -10 4 4
v -12 4 3
v -10 4 3
v 5 4 -0
v 8 4 -0
v 5 4 -1
v 8 4 -1
v -11 4 -5
v -7 4 -5
v -11 4 -6
v -7 4 -6
v -2 4 -6
v -7 4 -7
v -2 4 -7
v -14 4 -12
v -11 4 -12
v -14 4 -13
v -11 4 -13
v 2 4 -13
v 6 4 -13
v 2 4 -14
v 6 4 -14
v -20 4 -20
v 20 4 -20
v 3 5 15
v 7 5 15
v -11 5 14
v -8 5 14
v 3 5 14
v 7 5 14
v -15 5 13
v -11 5 13
v -8 5 13
v 13 5 13
v 14 5 13
v -15 5 12
v -11 5 12
v 13 5 12
v 14 5 12
v 9 5 6
v 14 5 6
v 9 5 5
v 14 5 5
v -12 5 4
v -10 5 4
v -12 5 3
v -10 5 3
v 5 5 -0
v 8 5 -0
v 5 5 -1
v 8 5 -1
v -11 5 -5
v -7 5 -5
v -11 5 -6
v -7 5 -6
v -2 5 -6
v -7 5 -7
v -2 5 -7
v -14 5 -12
v -11 5 -12
v -14 5 -13
v -11 5 -13
v 2 5 -13
v 6 5 -13
v 2 5 -14
v 6 5 -14

# faces
f 3/1/1 2/1/1 1/1/1
f 4/1/1 2/1/1 3/1/1
f 7/2/1 6/2/1 5/2/1
f 8/2/1 6/2/1 7/2/1
f 11/2/1 10/2/1 9/2/1
f 12/2/1 10/2/1 11/2/1
f 15/2/1 14/2/1 13/2/1
f 16/2/1 14/2/1 15/2/1
f 21/2/1 18/2/1 17/2/1
f 22/2/1 18/2/1 21/2/1
f 23/2/1 20/2/1 19/2/1
f 24/2/1 20/2/1 23/2/1
f 27/2/1 26/2/1 25/2/1
f 28/2/1 26/2/1 27/2/1
f 31/2/1 30/2/1 29/2/1
f 32/2/1 30/2/1 31/2/1
f 35/2/1 34/2/1 33/2/1
f 36/2/1 34/2/1 35/2/1
f 39/2/1 38/2/1 37/2/1
f 40/2/1 38/2/1 39/2/1
f 43/2/1 42/2/1 41/2/1
f 44/2/1 42/2/1 43/2/1
f 47/2/1 46/2/1 45/2/1
f 48/2/1 46/2/1 47/2/1
f 49/2/2 50/2/2 53/2/2
f 53/2/2 50/2/2 54/2/2
f 51/2/2 52/2/2 55/2/2
f 55/2/2 52/2/2 56/2/2
f 57/2/2 58/2/2 59/2/2
f 59/2/2 58/2/2 60/2/2
f 61/2/2 62/2/2 63/2/2
f 63/2/2 62/2/2 64/2/2
f 65/2/2 66/2/2 67/2/2
f 67/2/2 66/2/2 68/2/2
f 69/2/2 70/2/2 71/2/2
f 71/2/2 70/2/2 72/2/2
f 73/2/2 74/2/2 75/2/2
f 75/2/2 74/2/2 76/2/2
f 77/2/2 78/2/2 79/2/2
f 79/2/2 78/2/2 80/2/2
f 81/2/2 82/2/2 83/2/2
f 83/2/2 82/2/2 84/2/2
f 85/2/2 86/2/2 89/2/2
f 89/2/2 86/2/2 90/2/2
f 87/2/2 88/2/2 91/2/2
f 91/2/2 88/2/2 92/2/2
f 93/1/2 94/1/2 95/1/2
f 95/1/2 94/1/2 96/1/2
f 99/1/3 98/1/3 97/1/3
f 100/1/3 98/1/3 99/1/3
f 103/2/3 102/2/3 101/2/3
f 104/2/3 102/2/3 103/2/3
f 107/2/3 106/2/3 105/2/3
f 108/2/3 106/2/3 107/2/3
f 111/2/3 110/2/3 109/2/3
f 112/2/3 110/2/3 111/2/3
f 115/2/3 114/2/3 113/2/3
f 116/2/3 114/2/3 115/2/3
f 119/2/3 118/2/3 117/2/3
f 120/2/3 118/2/3 119/2/3
f 123/2/3 122/2/3 121/2/3
f 124/2/3 122/2/3 123/2/3
f 127/2/3 126/2/3 125/2/3
f 128/2/3 126/2/3 127/2/3
f 131/2/3 130/2/3 129/2/3
f 132/2/3 130/2/3 131/2/3
f 135/2/3 134/2/3 133/2/3
f 136/2/3 134/2/3 135/2/3
f 139/2/3 138/2/3 137/2/3
f 140/2/3 138/2/3 139/2/3
f 143/2/3 142/2/3 141/2/3
f 144/2/3 142/2/3 143/2/3
f 145/2/4 146/2/4 147/2/4
f 147/2/4 146/2/4 148/2/4
f 149/2/4 150/2/4 151/2/4
f 151/2/4 150/2/4 152/2/4
f 153/2/4 154/2/4 155/2/4
f 155/2/4 154/2/4 156/2/4
f 157/2/4 158/2/4 159/2/4
f 159/2/4 158/2/4 160/2/4
f 161/2/4 162/2/4 163/2/4
f 163/2/4 162/2/4 164/2/4
f 165/2/4 166/2/4 167/2/4
f 167/2/4 166/2/4 168/2/4
f 169/2/4 170/2/4 171/2/4
f 171/2/4 170/2/4 172/2/4
f 173/2/4 174/2/4 175/2/4
f 175/2/4 174/2/4 176/2/4
f 177/2/4 178/2/4 179/2/4
f 179/2/4 178/2/4 180/2/4
f 181/2/4 182/2/4 183/2/4
f 183/2/4 182/2/4 184/2/4
f 185/2/4 186/2/4 187/2/4
f 187/2/4 186/2/4 188/2/4
f 189/1/4 190/1/4 191/1/4
f 191/1/4 190/1/4 192/1/4
f 195/1/5 194/1/5 193/1/5
f 196/1/5 194/1/5 195/1/5
f 197/1/6 198/1/6 199/1/6
f 199/1/6 198/1/6 200/1/6
f 197/1/6 199/1/6 201/1/6
f 201/1/6 199/1/6 202/1/6
f 202/1/6 199/1/6 203/1/6
f 200/1/6 198/1/6 204/1/6
f 197/1/6 201/1/6 205/1/6
f 205/1/6 201/1/6 206/1/6
f 202/1/6 203/1/6 207/1/6
f 203/1/6 204/1/6 207/1/6
f 204/1/6 198/1/6 208/1/6
f 207/1/6 204/1/6 208/1/6
f 208/1/6 198/1/6 209/1/6
f 197/1/6 205/1/6 210/1/6
f 207/1/6 208/1/6 211/1/6
f 206/1/6 207/1/6 211/1/6
f 211/1/6 208/1/6 212/1/6
f 209/1/6 198/1/6 213/1/6
f 211/1/6 212/1/6 214/1/6
f 212/1/6 213/1/6 214/1/6
f 210/1/6 211/1/6 214/1/6
f 213/1/6 198/1/6 215/1/6
f 214/1/6 213/1/6 215/1/6
f 210/1/6 214/1/6 216/1/6
f 215/1/6 198/1/6 217/1/6
f 210/1/6 216/1/6 218/1/6
f 216/1/6 217/1/6 218/1/6
f 218/1/6 217/1/6 219/1/6
f 210/1/6 218/1/6 220/1/6
f 219/1/6 217/1/6 221/1/6
f 221/1/6 217/1/6 222/1/6
f 220/1/6 221/1/6 222/1/6
f 222/1/6 217/1/6 223/1/6
f 220/1/6 222/1/6 224/1/6
f 223/1/6 217/1/6 225/1/6
f 220/1/6 224/1/6 226/1/6
f 224/1/6 225/1/6 226/1/6
f 226/1/6 225/1/6 227/1/6
f 220/1/6 226/1/6 228/1/6
f 227/1/6 225/1/6 229/1/6
f 229/1/6 225/1/6 230/1/6
f 228/1/6 229/1/6 231/1/6
f 230/1/6 225/1/6 232/1/6
f 210/1/6 220/1/6 233/1/6
f 231/1/6 232/1/6 233/1/6
f 220/1/6 228/1/6 233/1/6
f 228/1/6 231/1/6 233/1/6
f 233/1/6 232/1/6 234/1/6
f 210/1/6 233/1/6 235/1/6
f 234/1/6 232/1/6 236/1/6
f 232/1/6 225/1/6 237/1/6
f 236/1/6 232/1/6 237/1/6
f 237/1/6 225/1/6 238/1/6
f 235/1/6 236/1/6 239/1/6
f 236/1/6 237/1/6 239/1/6
f 238/1/6 225/1/6 240/1/6
f 197/1/6 210/1/6 241/1/6
f 239/1/6 240/1/6 241/1/6
f 235/1/6 239/1/6 241/1/6
f 210/1/6 235/1/6 241/1/6
f 217/1/6 198/1/6 242/1/6
f 241/1/6 240/1/6 242/1/6
f 240/1/6 225/1/6 242/1/6
f 225/1/6 217/1/6 242/1/6
f 243/2/6 244/2/6 247/2/6
f 247/2/6 244/2/6 248/2/6
f 245/2/6 246/2/6 250/2/6
f 250/2/6 246/2/6 251/2/6
f 249/2/6 250/2/6 254/2/6
f 254/2/6 250/2/6 255/2/6
f 252/2/6 253/2/6 256/2/6
f 256/2/6 253/2/6 257/2/6
f 258/2/6 259/2/6 260/2/6
f 260/2/6 259/2/6 261/2/6
f 262/2/6 263/2/6 264/2/6
f 264/2/6 263/2/6 265/2/6
f 266/2/6 267/2/6 268/2/6
f 268/2/6 267/2/6 269/2/6
f 270/2/6 271/2/6 272/2/6
f 272/2/6 271/2/6 273/2/6
f 273/2/6 274/2/6 275/2/6
f 275/2/6 274/2/6 276/2/6
f 277/2/6 278/2/6 279/2/6
f 279/2/6 278/2/6 280/2/6
f 281/2/6 282/2/6 283/2/6
f 283/2/6 282/2/6 284/2/6
