# MagicaVoxel @ Ephtracy

# group
g Grass

# material
mtllib Grass.mtl
usemtl palette

# normals
vn -1 0 0
vn 1 0 0
vn 0 0 1
vn 0 0 -1
vn 0 -1 0
vn 0 1 0

# texcoords
vt 0.466797 0.5
vt 0.626953 0.5
vt 0.966797 0.5

# verts
v -20 0 20
v -20 0 -13
v -20 0 -20
v -20 4 20
v -20 4 9
v -20 4 8
v -20 4 -13
v -20 5 9
v -20 5 8
v -20 6 -13
v -20 6 -20
v -18 4 -3
v -18 4 -4
v -18 5 -3
v -18 5 -4
v -17 4 -2
v -17 4 -3
v -17 5 -2
v -17 5 -3
v -11 4 15
v -11 4 14
v -11 5 15
v -11 5 14
v -7 4 16
v -7 4 15
v -7 5 16
v -7 5 15
v -2 4 4
v -2 4 3
v -2 5 4
v -2 5 3
v 0 4 -6
v 0 4 -7
v 0 5 -6
v 0 5 -7
v 13 4 13
v 13 4 12
v 13 5 13
v 13 5 12
v 18 4 -6
v 18 4 -7
v 18 5 -6
v 18 5 -7
v -19 4 9
v -19 4 8
v -19 5 9
v -19 5 8
v -15 4 -3
v -15 4 -4
v -15 5 -3
v -15 5 -4
v -13 4 -2
v -13 4 -3
v -13 5 -2
v -13 5 -3
v -7 4 15
v -7 4 14
v -7 5 15
v -7 5 14
v -3 4 16
v -3 4 15
v -3 5 16
v -3 5 15
v 1 4 4
v 1 4 3
v 1 5 4
v 1 5 3
v 5 4 -6
v 5 4 -7
v 5 5 -6
v 5 5 -7
v 14 4 13
v 14 4 12
v 14 5 13
v 14 5 12
v 20 0 20
v 20 0 -13
v 20 0 -20
v 20 4 20
v 20 4 -6
v 20 4 -7
v 20 4 -13
v 20 5 -6
v 20 5 -7
v 20 6 -13
v 20 6 -20
v -20 0 20
v -20 4 20
v 20 0 20
v 20 4 20
v -7 4 16
v -7 5 16
v -3 4 16
v -3 5 16
v -11 4 15
v -11 5 15
v -7 4 15
v -7 5 15
v 13 4 13
v 13 5 13
v 14 4 13
v 14 5 13
v -20 4 9
v -20 5 9
v -19 4 9
v -19 5 9
v -2 4 4
v -2 5 4
v 1 4 4
v 1 5 4
v -17 4 -2
v -17 5 -2
v -13 4 -2
v -13 5 -2
v -18 4 -3
v -18 5 -3
v -17 4 -3
v -17 5 -3
v 0 4 -6
v 0 5 -6
v 5 4 -6
v 5 5 -6
v 18 4 -6
v 18 5 -6
v 20 4 -6
v 20 5 -6
v -20 4 -13
v -20 6 -13
v 20 4 -13
v 20 6 -13
v -7 4 15
v -7 5 15
v -3 4 15
v -3 5 15
v -11 4 14
v -11 5 14
v -7 4 14
v -7 5 14
v 13 4 12
v 13 5 12
v 14 4 12
v 14 5 12
v -20 4 8
v -20 5 8
v -19 4 8
v -19 5 8
v -2 4 3
v -2 5 3
v 1 4 3
v 1 5 3
v -15 4 -3
v -15 5 -3
v -13 4 -3
v -13 5 -3
v -18 4 -4
v -18 5 -4
v -15 4 -4
v -15 5 -4
v 0 4 -7
v 0 5 -7
v 5 4 -7
v 5 5 -7
v 18 4 -7
v 18 5 -7
v 20 4 -7
v 20 5 -7
v -20 0 -20
v -20 6 -20
v 20 0 -20
v 20 6 -20
v -20 0 20
v 20 0 20
v -20 0 -13
v 20 0 -13
v -20 0 -20
v 20 0 -20
v -20 4 20
v 20 4 20
v -7 4 16
v -3 4 16
v -11 4 15
v -7 4 15
v -3 4 15
v -11 4 14
v -7 4 14
v 13 4 13
v 14 4 13
v 13 4 12
v 14 4 12
v -20 4 9
v -19 4 9
v -20 4 8
v -19 4 8
v -2 4 4
v 1 4 4
v -2 4 3
v 1 4 3
v -17 4 -2
v -13 4 -2
v -18 4 -3
v -17 4 -3
v -15 4 -3
v -13 4 -3
v -18 4 -4
v -15 4 -4
v 0 4 -6
v 5 4 -6
v 18 4 -6
v 20 4 -6
v 0 4 -7
v 5 4 -7
v 18 4 -7
v 20 4 -7
v -20 4 -13
v 20 4 -13
v -7 5 16
v -3 5 16
v -11 5 15
v -7 5 15
v -3 5 15
v -11 5 14
v -7 5 14
v 13 5 13
v 14 5 13
v 13 5 12
v 14 5 12
v -20 5 9
v -19 5 9
v -20 5 8
v -19 5 8
v -2 5 4
v 1 5 4
v -2 5 3
v 1 5 3
v -17 5 -2
v -13 5 -2
v -18 5 -3
v -17 5 -3
v -15 5 -3
v -13 5 -3
v -18 5 -4
v -15 5 -4
v 0 5 -6
v 5 5 -6
v 18 5 -6
v 20 5 -6
v 0 5 -7
v 5 5 -7
v 18 5 -7
v 20 5 -7
v -20 6 -13
v 20 6 -13
v -20 6 -20
v 20 6 -20

# faces
f 4/1/1 2/1/1 1/1/1
f 5/1/1 2/1/1 4/1/1
f 6/1/1 2/1/1 5/1/1
f 7/3/1 3/3/1 2/3/1
f 7/1/1 2/1/1 6/1/1
f 8/2/1 6/2/1 5/2/1
f 9/2/1 6/2/1 8/2/1
f 10/3/1 3/3/1 7/3/1
f 11/3/1 3/3/1 10/3/1
f 14/2/1 13/2/1 12/2/1
f 15/2/1 13/2/1 14/2/1
f 18/2/1 17/2/1 16/2/1
f 19/2/1 17/2/1 18/2/1
f 22/2/1 21/2/1 20/2/1
f 23/2/1 21/2/1 22/2/1
f 26/2/1 25/2/1 24/2/1
f 27/2/1 25/2/1 26/2/1
f 30/2/1 29/2/1 28/2/1
f 31/2/1 29/2/1 30/2/1
f 34/2/1 33/2/1 32/2/1
f 35/2/1 33/2/1 34/2/1
f 38/2/1 37/2/1 36/2/1
f 39/2/1 37/2/1 38/2/1
f 42/2/1 41/2/1 40/2/1
f 43/2/1 41/2/1 42/2/1
f 44/2/2 45/2/2 46/2/2
f 46/2/2 45/2/2 47/2/2
f 48/2/2 49/2/2 50/2/2
f 50/2/2 49/2/2 51/2/2
f 52/2/2 53/2/2 54/2/2
f 54/2/2 53/2/2 55/2/2
f 56/2/2 57/2/2 58/2/2
f 58/2/2 57/2/2 59/2/2
f 60/2/2 61/2/2 62/2/2
f 62/2/2 61/2/2 63/2/2
f 64/2/2 65/2/2 66/2/2
f 66/2/2 65/2/2 67/2/2
f 68/2/2 69/2/2 70/2/2
f 70/2/2 69/2/2 71/2/2
f 72/2/2 73/2/2 74/2/2
f 74/2/2 73/2/2 75/2/2
f 76/1/2 77/1/2 79/1/2
f 79/1/2 77/1/2 80/1/2
f 80/1/2 77/1/2 81/1/2
f 77/3/2 78/3/2 82/3/2
f 81/1/2 77/1/2 82/1/2
f 80/2/2 81/2/2 83/2/2
f 83/2/2 81/2/2 84/2/2
f 82/3/2 78/3/2 85/3/2
f 85/3/2 78/3/2 86/3/2
f 89/1/3 88/1/3 87/1/3
f 90/1/3 88/1/3 89/1/3
f 93/2/3 92/2/3 91/2/3
f 94/2/3 92/2/3 93/2/3
f 97/2/3 96/2/3 95/2/3
f 98/2/3 96/2/3 97/2/3
f 101/2/3 100/2/3 99/2/3
f 102/2/3 100/2/3 101/2/3
f 105/2/3 104/2/3 103/2/3
f 106/2/3 104/2/3 105/2/3
f 109/2/3 108/2/3 107/2/3
f 110/2/3 108/2/3 109/2/3
f 113/2/3 112/2/3 111/2/3
f 114/2/3 112/2/3 113/2/3
f 117/2/3 116/2/3 115/2/3
f 118/2/3 116/2/3 117/2/3
f 121/2/3 120/2/3 119/2/3
f 122/2/3 120/2/3 121/2/3
f 125/2/3 124/2/3 123/2/3
f 126/2/3 124/2/3 125/2/3
f 129/3/3 128/3/3 127/3/3
f 130/3/3 128/3/3 129/3/3
f 131/2/4 132/2/4 133/2/4
f 133/2/4 132/2/4 134/2/4
f 135/2/4 136/2/4 137/2/4
f 137/2/4 136/2/4 138/2/4
f 139/2/4 140/2/4 141/2/4
f 141/2/4 140/2/4 142/2/4
f 143/2/4 144/2/4 145/2/4
f 145/2/4 144/2/4 146/2/4
f 147/2/4 148/2/4 149/2/4
f 149/2/4 148/2/4 150/2/4
f 151/2/4 152/2/4 153/2/4
f 153/2/4 152/2/4 154/2/4
f 155/2/4 156/2/4 157/2/4
f 157/2/4 156/2/4 158/2/4
f 159/2/4 160/2/4 161/2/4
f 161/2/4 160/2/4 162/2/4
f 163/2/4 164/2/4 165/2/4
f 165/2/4 164/2/4 166/2/4
f 167/3/4 168/3/4 169/3/4
f 169/3/4 168/3/4 170/3/4
f 173/1/5 172/1/5 171/1/5
f 174/1/5 172/1/5 173/1/5
f 175/3/5 174/3/5 173/3/5
f 176/3/5 174/3/5 175/3/5
f 177/1/6 178/1/6 179/1/6
f 179/1/6 178/1/6 180/1/6
f 177/1/6 179/1/6 181/1/6
f 181/1/6 179/1/6 182/1/6
f 180/1/6 178/1/6 183/1/6
f 177/1/6 181/1/6 184/1/6
f 182/1/6 183/1/6 185/1/6
f 183/1/6 178/1/6 186/1/6
f 184/1/6 185/1/6 186/1/6
f 185/1/6 183/1/6 186/1/6
f 186/1/6 178/1/6 187/1/6
f 184/1/6 186/1/6 188/1/6
f 187/1/6 178/1/6 189/1/6
f 177/1/6 184/1/6 190/1/6
f 188/1/6 189/1/6 190/1/6
f 184/1/6 188/1/6 190/1/6
f 190/1/6 189/1/6 191/1/6
f 191/1/6 189/1/6 193/1/6
f 193/1/6 189/1/6 194/1/6
f 192/1/6 193/1/6 194/1/6
f 194/1/6 189/1/6 195/1/6
f 192/1/6 194/1/6 196/1/6
f 195/1/6 189/1/6 197/1/6
f 192/1/6 196/1/6 198/1/6
f 196/1/6 197/1/6 198/1/6
f 198/1/6 197/1/6 199/1/6
f 192/1/6 198/1/6 200/1/6
f 200/1/6 198/1/6 201/1/6
f 199/1/6 197/1/6 203/1/6
f 192/1/6 200/1/6 204/1/6
f 202/1/6 203/1/6 205/1/6
f 203/1/6 197/1/6 206/1/6
f 204/1/6 205/1/6 206/1/6
f 205/1/6 203/1/6 206/1/6
f 197/1/6 189/1/6 207/1/6
f 206/1/6 197/1/6 207/1/6
f 189/1/6 178/1/6 208/1/6
f 207/1/6 189/1/6 208/1/6
f 208/1/6 178/1/6 209/1/6
f 204/1/6 206/1/6 210/1/6
f 207/1/6 208/1/6 211/1/6
f 211/1/6 208/1/6 212/1/6
f 204/1/6 210/1/6 214/1/6
f 212/1/6 213/1/6 214/1/6
f 211/1/6 212/1/6 214/1/6
f 210/1/6 211/1/6 214/1/6
f 192/1/6 204/1/6 214/1/6
f 214/1/6 213/1/6 215/1/6
f 216/2/6 217/2/6 219/2/6
f 219/2/6 217/2/6 220/2/6
f 218/2/6 219/2/6 221/2/6
f 221/2/6 219/2/6 222/2/6
f 223/2/6 224/2/6 225/2/6
f 225/2/6 224/2/6 226/2/6
f 227/2/6 228/2/6 229/2/6
f 229/2/6 228/2/6 230/2/6
f 231/2/6 232/2/6 233/2/6
f 233/2/6 232/2/6 234/2/6
f 235/2/6 236/2/6 238/2/6
f 238/2/6 236/2/6 239/2/6
f 239/2/6 236/2/6 240/2/6
f 237/2/6 238/2/6 241/2/6
f 238/2/6 239/2/6 241/2/6
f 241/2/6 239/2/6 242/2/6
f 243/2/6 244/2/6 247/2/6
f 247/2/6 244/2/6 248/2/6
f 245/2/6 246/2/6 249/2/6
f 249/2/6 246/2/6 250/2/6
f 251/3/6 252/3/6 253/3/6
f 253/3/6 252/3/6 254/3/6
