# MagicaVoxel @ Ephtracy

# group
g GrassCornerOut

# material
mtllib GrassCornerOut.mtl
usemtl palette

# normals
vn -1 0 0
vn 1 0 0
vn 0 0 1
vn 0 0 -1
vn 0 -1 0
vn 0 1 0

# texcoords
vt 0.466797 0.5
vt 0.626953 0.5
vt 0.966797 0.5

# verts
v -20 0 20
v -20 0 -13
v -20 0 -20
v -20 4 20
v -20 4 -13
v -20 6 -13
v -20 6 -20
v -16 4 10
v -16 4 9
v -16 5 10
v -16 5 9
v -15 4 11
v -15 4 10
v -15 5 11
v -15 5 10
v -14 4 -7
v -14 4 -8
v -14 5 -7
v -14 5 -8
v -13 4 -8
v -13 4 -9
v -13 5 -8
v -13 5 -9
v -8 4 -0
v -8 4 -1
v -8 5 -0
v -8 5 -1
v -3 4 11
v -3 4 10
v -3 5 11
v -3 5 10
v -2 4 12
v -2 4 11
v -2 5 12
v -2 5 11
v 0 4 13
v 0 4 12
v 0 5 13
v 0 5 12
v 3 4 -5
v 3 4 -6
v 3 5 -5
v 3 5 -6
v 4 4 -4
v 4 4 -5
v 4 5 -4
v 4 5 -5
v 6 4 -3
v 6 4 -4
v 6 5 -3
v 6 5 -4
v 8 4 17
v 8 4 16
v 8 5 17
v 8 5 16
v 13 4 20
v 13 4 -13
v 13 6 20
v 13 6 -13
v -13 4 -7
v -13 4 -8
v -13 5 -7
v -13 5 -8
v -12 4 10
v -12 4 9
v -12 5 10
v -12 5 9
v -11 4 11
v -11 4 10
v -11 4 -8
v -11 4 -9
v -11 5 11
v -11 5 10
v -11 5 -8
v -11 5 -9
v -4 4 -0
v -4 4 -1
v -4 5 -0
v -4 5 -1
v -2 4 11
v -2 4 10
v -2 5 11
v -2 5 10
v 0 4 12
v 0 4 11
v 0 5 12
v 0 5 11
v 1 4 13
v 1 4 12
v 1 5 13
v 1 5 12
v 6 4 -4
v 6 4 -5
v 6 5 -4
v 6 5 -5
v 7 4 -3
v 7 4 -4
v 7 5 -3
v 7 5 -4
v 8 4 -5
v 8 4 -6
v 8 5 -5
v 8 5 -6
v 9 4 17
v 9 4 16
v 9 5 17
v 9 5 16
v 20 0 20
v 20 0 -20
v 20 6 20
v 20 6 -20
v -20 0 20
v -20 4 20
v 13 0 20
v 13 4 20
v 13 6 20
v 20 0 20
v 20 6 20
v 8 4 17
v 8 5 17
v 9 4 17
v 9 5 17
v 0 4 13
v 0 5 13
v 1 4 13
v 1 5 13
v -2 4 12
v -2 5 12
v 0 4 12
v 0 5 12
v -15 4 11
v -15 5 11
v -11 4 11
v -11 5 11
v -3 4 11
v -3 5 11
v -2 4 11
v -2 5 11
v -16 4 10
v -16 5 10
v -15 4 10
v -15 5 10
v -8 4 -0
v -8 5 -0
v -4 4 -0
v -4 5 -0
v 6 4 -3
v 6 5 -3
v 7 4 -3
v 7 5 -3
v 4 4 -4
v 4 5 -4
v 6 4 -4
v 6 5 -4
v 3 4 -5
v 3 5 -5
v 4 4 -5
v 4 5 -5
v 6 4 -5
v 6 5 -5
v 8 4 -5
v 8 5 -5
v -14 4 -7
v -14 5 -7
v -13 4 -7
v -13 5 -7
v -13 4 -8
v -13 5 -8
v -11 4 -8
v -11 5 -8
v -20 4 -13
v -20 6 -13
v 13 4 -13
v 13 6 -13
v 8 4 16
v 8 5 16
v 9 4 16
v 9 5 16
v 0 4 12
v 0 5 12
v 1 4 12
v 1 5 12
v -2 4 11
v -2 5 11
v 0 4 11
v 0 5 11
v -12 4 10
v -12 5 10
v -11 4 10
v -11 5 10
v -3 4 10
v -3 5 10
v -2 4 10
v -2 5 10
v -16 4 9
v -16 5 9
v -12 4 9
v -12 5 9
v -8 4 -1
v -8 5 -1
v -4 4 -1
v -4 5 -1
v 6 4 -4
v 6 5 -4
v 7 4 -4
v 7 5 -4
v 3 4 -6
v 3 5 -6
v 8 4 -6
v 8 5 -6
v -14 4 -8
v -14 5 -8
v -13 4 -8
v -13 5 -8
v -13 4 -9
v -13 5 -9
v -11 4 -9
v -11 5 -9
v -20 0 -20
v -20 6 -20
v 20 0 -20
v 20 6 -20
v -20 0 20
v 13 0 20
v 20 0 20
v -20 0 -13
v 13 0 -13
v -20 0 -20
v 20 0 -20
v -20 4 20
v 13 4 20
v 8 4 17
v 9 4 17
v 8 4 16
v 9 4 16
v 0 4 13
v 1 4 13
v -2 4 12
v 0 4 12
v 1 4 12
v -15 4 11
v -11 4 11
v -3 4 11
v -2 4 11
v 0 4 11
v -16 4 10
v -15 4 10
v -12 4 10
v -11 4 10
v -3 4 10
v -2 4 10
v -16 4 9
v -12 4 9
v -8 4 -0
v -4 4 -0
v -8 4 -1
v -4 4 -1
v 6 4 -3
v 7 4 -3
v 4 4 -4
v 6 4 -4
v 7 4 -4
v 3 4 -5
v 4 4 -5
v 6 4 -5
v 8 4 -5
v 3 4 -6
v 8 4 -6
v -14 4 -7
v -13 4 -7
v -14 4 -8
v -13 4 -8
v -11 4 -8
v -13 4 -9
v -11 4 -9
v -20 4 -13
v 13 4 -13
v 8 5 17
v 9 5 17
v 8 5 16
v 9 5 16
v 0 5 13
v 1 5 13
v -2 5 12
v 0 5 12
v 1 5 12
v -15 5 11
v -11 5 11
v -3 5 11
v -2 5 11
v 0 5 11
v -16 5 10
v -15 5 10
v -12 5 10
v -11 5 10
v -3 5 10
v -2 5 10
v -16 5 9
v -12 5 9
v -8 5 -0
v -4 5 -0
v -8 5 -1
v -4 5 -1
v 6 5 -3
v 7 5 -3
v 4 5 -4
v 6 5 -4
v 7 5 -4
v 3 5 -5
v 4 5 -5
v 6 5 -5
v 8 5 -5
v 3 5 -6
v 8 5 -6
v -14 5 -7
v -13 5 -7
v -14 5 -8
v -13 5 -8
v -11 5 -8
v -13 5 -9
v -11 5 -9
v 13 6 20
v 20 6 20
v -20 6 -13
v 13 6 -13
v -20 6 -20
v 20 6 -20

# faces
f 4/1/1 2/1/1 1/1/1
f 5/3/1 3/3/1 2/3/1
f 5/1/1 2/1/1 4/1/1
f 6/3/1 3/3/1 5/3/1
f 7/3/1 3/3/1 6/3/1
f 10/2/1 9/2/1 8/2/1
f 11/2/1 9/2/1 10/2/1
f 14/2/1 13/2/1 12/2/1
f 15/2/1 13/2/1 14/2/1
f 18/2/1 17/2/1 16/2/1
f 19/2/1 17/2/1 18/2/1
f 22/2/1 21/2/1 20/2/1
f 23/2/1 21/2/1 22/2/1
f 26/2/1 25/2/1 24/2/1
f 27/2/1 25/2/1 26/2/1
f 30/2/1 29/2/1 28/2/1
f 31/2/1 29/2/1 30/2/1
f 34/2/1 33/2/1 32/2/1
f 35/2/1 33/2/1 34/2/1
f 38/2/1 37/2/1 36/2/1
f 39/2/1 37/2/1 38/2/1
f 42/2/1 41/2/1 40/2/1
f 43/2/1 41/2/1 42/2/1
f 46/2/1 45/2/1 44/2/1
f 47/2/1 45/2/1 46/2/1
f 50/2/1 49/2/1 48/2/1
f 51/2/1 49/2/1 50/2/1
f 54/2/1 53/2/1 52/2/1
f 55/2/1 53/2/1 54/2/1
f 58/3/1 57/3/1 56/3/1
f 59/3/1 57/3/1 58/3/1
f 60/2/2 61/2/2 62/2/2
f 62/2/2 61/2/2 63/2/2
f 64/2/2 65/2/2 66/2/2
f 66/2/2 65/2/2 67/2/2
f 68/2/2 69/2/2 72/2/2
f 72/2/2 69/2/2 73/2/2
f 70/2/2 71/2/2 74/2/2
f 74/2/2 71/2/2 75/2/2
f 76/2/2 77/2/2 78/2/2
f 78/2/2 77/2/2 79/2/2
f 80/2/2 81/2/2 82/2/2
f 82/2/2 81/2/2 83/2/2
f 84/2/2 85/2/2 86/2/2
f 86/2/2 85/2/2 87/2/2
f 88/2/2 89/2/2 90/2/2
f 90/2/2 89/2/2 91/2/2
f 92/2/2 93/2/2 94/2/2
f 94/2/2 93/2/2 95/2/2
f 96/2/2 97/2/2 98/2/2
f 98/2/2 97/2/2 99/2/2
f 100/2/2 101/2/2 102/2/2
f 102/2/2 101/2/2 103/2/2
f 104/2/2 105/2/2 106/2/2
f 106/2/2 105/2/2 107/2/2
f 108/3/2 109/3/2 110/3/2
f 110/3/2 109/3/2 111/3/2
f 114/1/3 113/1/3 112/1/3
f 115/1/3 113/1/3 114/1/3
f 117/3/3 115/3/3 114/3/3
f 117/3/3 116/3/3 115/3/3
f 118/3/3 116/3/3 117/3/3
f 121/2/3 120/2/3 119/2/3
f 122/2/3 120/2/3 121/2/3
f 125/2/3 124/2/3 123/2/3
f 126/2/3 124/2/3 125/2/3
f 129/2/3 128/2/3 127/2/3
f 130/2/3 128/2/3 129/2/3
f 133/2/3 132/2/3 131/2/3
f 134/2/3 132/2/3 133/2/3
f 137/2/3 136/2/3 135/2/3
f 138/2/3 136/2/3 137/2/3
f 141/2/3 140/2/3 139/2/3
f 142/2/3 140/2/3 141/2/3
f 145/2/3 144/2/3 143/2/3
f 146/2/3 144/2/3 145/2/3
f 149/2/3 148/2/3 147/2/3
f 150/2/3 148/2/3 149/2/3
f 153/2/3 152/2/3 151/2/3
f 154/2/3 152/2/3 153/2/3
f 157/2/3 156/2/3 155/2/3
f 158/2/3 156/2/3 157/2/3
f 161/2/3 160/2/3 159/2/3
f 162/2/3 160/2/3 161/2/3
f 165/2/3 164/2/3 163/2/3
f 166/2/3 164/2/3 165/2/3
f 169/2/3 168/2/3 167/2/3
f 170/2/3 168/2/3 169/2/3
f 173/3/3 172/3/3 171/3/3
f 174/3/3 172/3/3 173/3/3
f 175/2/4 176/2/4 177/2/4
f 177/2/4 176/2/4 178/2/4
f 179/2/4 180/2/4 181/2/4
f 181/2/4 180/2/4 182/2/4
f 183/2/4 184/2/4 185/2/4
f 185/2/4 184/2/4 186/2/4
f 187/2/4 188/2/4 189/2/4
f 189/2/4 188/2/4 190/2/4
f 191/2/4 192/2/4 193/2/4
f 193/2/4 192/2/4 194/2/4
f 195/2/4 196/2/4 197/2/4
f 197/2/4 196/2/4 198/2/4
f 199/2/4 200/2/4 201/2/4
f 201/2/4 200/2/4 202/2/4
f 203/2/4 204/2/4 205/2/4
f 205/2/4 204/2/4 206/2/4
f 207/2/4 208/2/4 209/2/4
f 209/2/4 208/2/4 210/2/4
f 211/2/4 212/2/4 213/2/4
f 213/2/4 212/2/4 214/2/4
f 215/2/4 216/2/4 217/2/4
f 217/2/4 216/2/4 218/2/4
f 219/3/4 220/3/4 221/3/4
f 221/3/4 220/3/4 222/3/4
f 226/1/5 224/1/5 223/1/5
f 227/3/5 225/3/5 224/3/5
f 227/1/5 224/1/5 226/1/5
f 228/3/5 227/3/5 226/3/5
f 229/3/5 225/3/5 227/3/5
f 229/3/5 227/3/5 228/3/5
f 230/1/6 231/1/6 232/1/6
f 232/1/6 231/1/6 233/1/6
f 230/1/6 232/1/6 234/1/6
f 233/1/6 231/1/6 235/1/6
f 230/1/6 234/1/6 236/1/6
f 234/1/6 235/1/6 236/1/6
f 236/1/6 235/1/6 237/1/6
f 230/1/6 236/1/6 238/1/6
f 238/1/6 236/1/6 239/1/6
f 237/1/6 235/1/6 240/1/6
f 230/1/6 238/1/6 241/1/6
f 241/1/6 238/1/6 242/1/6
f 242/1/6 238/1/6 243/1/6
f 243/1/6 238/1/6 244/1/6
f 239/1/6 240/1/6 245/1/6
f 230/1/6 241/1/6 246/1/6
f 246/1/6 241/1/6 247/1/6
f 242/1/6 243/1/6 249/1/6
f 249/1/6 243/1/6 250/1/6
f 244/1/6 245/1/6 251/1/6
f 230/1/6 246/1/6 252/1/6
f 249/1/6 250/1/6 253/1/6
f 250/1/6 251/1/6 253/1/6
f 248/1/6 249/1/6 253/1/6
f 253/1/6 251/1/6 254/1/6
f 252/1/6 253/1/6 254/1/6
f 254/1/6 251/1/6 255/1/6
f 252/1/6 254/1/6 256/1/6
f 255/1/6 251/1/6 257/1/6
f 240/1/6 235/1/6 258/1/6
f 256/1/6 257/1/6 258/1/6
f 257/1/6 251/1/6 258/1/6
f 245/1/6 240/1/6 258/1/6
f 251/1/6 245/1/6 258/1/6
f 258/1/6 235/1/6 259/1/6
f 256/1/6 258/1/6 260/1/6
f 260/1/6 258/1/6 261/1/6
f 259/1/6 235/1/6 262/1/6
f 256/1/6 260/1/6 263/1/6
f 263/1/6 260/1/6 264/1/6
f 261/1/6 262/1/6 265/1/6
f 262/1/6 235/1/6 266/1/6
f 265/1/6 262/1/6 266/1/6
f 256/1/6 263/1/6 267/1/6
f 266/1/6 235/1/6 268/1/6
f 252/1/6 256/1/6 269/1/6
f 267/1/6 268/1/6 269/1/6
f 256/1/6 267/1/6 269/1/6
f 269/1/6 268/1/6 270/1/6
f 252/1/6 269/1/6 271/1/6
f 270/1/6 268/1/6 272/1/6
f 272/1/6 268/1/6 273/1/6
f 271/1/6 272/1/6 274/1/6
f 273/1/6 268/1/6 275/1/6
f 230/1/6 252/1/6 276/1/6
f 274/1/6 275/1/6 276/1/6
f 252/1/6 271/1/6 276/1/6
f 271/1/6 274/1/6 276/1/6
f 235/1/6 231/1/6 277/1/6
f 276/1/6 275/1/6 277/1/6
f 275/1/6 268/1/6 277/1/6
f 268/1/6 235/1/6 277/1/6
f 278/2/6 279/2/6 280/2/6
f 280/2/6 279/2/6 281/2/6
f 282/2/6 283/2/6 285/2/6
f 285/2/6 283/2/6 286/2/6
f 284/2/6 285/2/6 290/2/6
f 290/2/6 285/2/6 291/2/6
f 287/2/6 288/2/6 293/2/6
f 293/2/6 288/2/6 294/2/6
f 294/2/6 288/2/6 295/2/6
f 289/2/6 290/2/6 296/2/6
f 296/2/6 290/2/6 297/2/6
f 292/2/6 293/2/6 298/2/6
f 293/2/6 294/2/6 298/2/6
f 298/2/6 294/2/6 299/2/6
f 300/2/6 301/2/6 302/2/6
f 302/2/6 301/2/6 303/2/6
f 304/2/6 305/2/6 307/2/6
f 307/2/6 305/2/6 308/2/6
f 306/2/6 307/2/6 310/2/6
f 310/2/6 307/2/6 311/2/6
f 310/2/6 311/2/6 313/2/6
f 311/2/6 312/2/6 313/2/6
f 309/2/6 310/2/6 313/2/6
f 313/2/6 312/2/6 314/2/6
f 315/2/6 316/2/6 317/2/6
f 317/2/6 316/2/6 318/2/6
f 318/2/6 319/2/6 320/2/6
f 320/2/6 319/2/6 321/2/6
f 322/3/6 323/3/6 325/3/6
f 324/3/6 325/3/6 326/3/6
f 325/3/6 323/3/6 327/3/6
f 326/3/6 325/3/6 327/3/6
