# MagicaVoxel @ Ephtracy

# group
g keyboard

# material
mtllib keyboard.mtl
usemtl palette

# normals
vn -1 0 0
vn 1 0 0
vn 0 0 1
vn 0 0 -1
vn 0 -1 0
vn 0 1 0

# texcoords
vt 0.884766 0.5
vt 0.982422 0.5
vt 0.994141 0.5

# verts
v -4.5 0 13.5
v -4.5 0 -13.5
v -4.5 1 13.5
v -4.5 1 -13.5
v -3.5 1 12.5
v -3.5 1 8.5
v -3.5 1 7.5
v -3.5 1 4.5
v -3.5 1 3.5
v -3.5 1 -12.5
v -3.5 2 12.5
v -3.5 2 8.5
v -3.5 2 7.5
v -3.5 2 4.5
v -3.5 2 3.5
v -3.5 2 -12.5
v -0.5 1 7.5
v -0.5 1 4.5
v -0.5 2 7.5
v -0.5 2 4.5
v 2.5 1 7.5
v 2.5 1 4.5
v 2.5 1 3.5
v 2.5 1 -0.5
v 2.5 1 -1.5
v 2.5 1 -5.5
v 2.5 1 -6.5
v 2.5 1 -10.5
v 2.5 1 -11.5
v 2.5 1 -12.5
v 2.5 2 7.5
v 2.5 2 4.5
v 2.5 2 3.5
v 2.5 2 -0.5
v 2.5 2 -1.5
v 2.5 2 -5.5
v 2.5 2 -6.5
v 2.5 2 -10.5
v 2.5 2 -11.5
v 2.5 2 -12.5
v -2.5 1 7.5
v -2.5 1 6.5
v -2.5 1 5.5
v -2.5 1 4.5
v -2.5 2 7.5
v -2.5 2 6.5
v -2.5 2 5.5
v -2.5 2 4.5
v -1.5 1 6.5
v -1.5 1 5.5
v -1.5 2 6.5
v -1.5 2 5.5
v 1.5 1 12.5
v 1.5 1 8.5
v 1.5 1 7.5
v 1.5 1 4.5
v 1.5 1 3.5
v 1.5 1 -12.5
v 1.5 2 12.5
v 1.5 2 8.5
v 1.5 2 7.5
v 1.5 2 4.5
v 1.5 2 3.5
v 1.5 2 -12.5
v 3.5 1 7.5
v 3.5 1 4.5
v 3.5 1 3.5
v 3.5 1 -0.5
v 3.5 1 -1.5
v 3.5 1 -5.5
v 3.5 1 -6.5
v 3.5 1 -10.5
v 3.5 1 -11.5
v 3.5 1 -12.5
v 3.5 2 7.5
v 3.5 2 4.5
v 3.5 2 3.5
v 3.5 2 -0.5
v 3.5 2 -1.5
v 3.5 2 -5.5
v 3.5 2 -6.5
v 3.5 2 -10.5
v 3.5 2 -11.5
v 3.5 2 -12.5
v 4.5 0 13.5
v 4.5 0 -13.5
v 4.5 1 13.5
v 4.5 1 -13.5
v -4.5 0 13.5
v -4.5 1 13.5
v 4.5 0 13.5
v 4.5 1 13.5
v -3.5 1 12.5
v -3.5 2 12.5
v 1.5 1 12.5
v 1.5 2 12.5
v -3.5 1 7.5
v -3.5 2 7.5
v -2.5 1 7.5
v -2.5 2 7.5
v -0.5 1 7.5
v -0.5 2 7.5
v 1.5 1 7.5
v 1.5 2 7.5
v 2.5 1 7.5
v 2.5 2 7.5
v 3.5 1 7.5
v 3.5 2 7.5
v -2.5 1 6.5
v -2.5 2 6.5
v -1.5 1 6.5
v -1.5 2 6.5
v -3.5 1 3.5
v -3.5 2 3.5
v 1.5 1 3.5
v 1.5 2 3.5
v 2.5 1 3.5
v 2.5 2 3.5
v 3.5 1 3.5
v 3.5 2 3.5
v 2.5 1 -1.5
v 2.5 2 -1.5
v 3.5 1 -1.5
v 3.5 2 -1.5
v 2.5 1 -6.5
v 2.5 2 -6.5
v 3.5 1 -6.5
v 3.5 2 -6.5
v 2.5 1 -11.5
v 2.5 2 -11.5
v 3.5 1 -11.5
v 3.5 2 -11.5
v -3.5 1 8.5
v -3.5 2 8.5
v 1.5 1 8.5
v 1.5 2 8.5
v -2.5 1 5.5
v -2.5 2 5.5
v -1.5 1 5.5
v -1.5 2 5.5
v -3.5 1 4.5
v -3.5 2 4.5
v -2.5 1 4.5
v -2.5 2 4.5
v -0.5 1 4.5
v -0.5 2 4.5
v 1.5 1 4.5
v 1.5 2 4.5
v 2.5 1 4.5
v 2.5 2 4.5
v 3.5 1 4.5
v 3.5 2 4.5
v 2.5 1 -0.5
v 2.5 2 -0.5
v 3.5 1 -0.5
v 3.5 2 -0.5
v 2.5 1 -5.5
v 2.5 2 -5.5
v 3.5 1 -5.5
v 3.5 2 -5.5
v 2.5 1 -10.5
v 2.5 2 -10.5
v 3.5 1 -10.5
v 3.5 2 -10.5
v -3.5 1 -12.5
v -3.5 2 -12.5
v 1.5 1 -12.5
v 1.5 2 -12.5
v 2.5 1 -12.5
v 2.5 2 -12.5
v 3.5 1 -12.5
v 3.5 2 -12.5
v -4.5 0 -13.5
v -4.5 1 -13.5
v 4.5 0 -13.5
v 4.5 1 -13.5
v -4.5 0 13.5
v 4.5 0 13.5
v 2.5 0 12.5
v 3.5 0 12.5
v 2.5 0 11.5
v 3.5 0 11.5
v 2.5 0 10.5
v 3.5 0 10.5
v 2.5 0 9.5
v 3.5 0 9.5
v -4.5 0 -13.5
v 4.5 0 -13.5
v -4.5 1 13.5
v 4.5 1 13.5
v -3.5 1 12.5
v 1.5 1 12.5
v 2.5 1 12.5
v 3.5 1 12.5
v 2.5 1 11.5
v 3.5 1 11.5
v 2.5 1 10.5
v 3.5 1 10.5
v 2.5 1 9.5
v 3.5 1 9.5
v -3.5 1 8.5
v 1.5 1 8.5
v -3.5 1 7.5
v -2.5 1 7.5
v -0.5 1 7.5
v 1.5 1 7.5
v 2.5 1 7.5
v 3.5 1 7.5
v -2.5 1 6.5
v -1.5 1 6.5
v -2.5 1 5.5
v -1.5 1 5.5
v -3.5 1 4.5
v -2.5 1 4.5
v -0.5 1 4.5
v 1.5 1 4.5
v 2.5 1 4.5
v 3.5 1 4.5
v -3.5 1 3.5
v 1.5 1 3.5
v 2.5 1 3.5
v 3.5 1 3.5
v 2.5 1 -0.5
v 3.5 1 -0.5
v 2.5 1 -1.5
v 3.5 1 -1.5
v 2.5 1 -5.5
v 3.5 1 -5.5
v 2.5 1 -6.5
v 3.5 1 -6.5
v 2.5 1 -10.5
v 3.5 1 -10.5
v 2.5 1 -11.5
v 3.5 1 -11.5
v -3.5 1 -12.5
v 1.5 1 -12.5
v 2.5 1 -12.5
v 3.5 1 -12.5
v -4.5 1 -13.5
v 4.5 1 -13.5
v -3.5 2 12.5
v 1.5 2 12.5
v -3.5 2 8.5
v 1.5 2 8.5
v -3.5 2 7.5
v -2.5 2 7.5
v -0.5 2 7.5
v 1.5 2 7.5
v 2.5 2 7.5
v 3.5 2 7.5
v -2.5 2 6.5
v -1.5 2 6.5
v -2.5 2 5.5
v -1.5 2 5.5
v -3.5 2 4.5
v -2.5 2 4.5
v -0.5 2 4.5
v 1.5 2 4.5
v 2.5 2 4.5
v 3.5 2 4.5
v -3.5 2 3.5
v 1.5 2 3.5
v 2.5 2 3.5
v 3.5 2 3.5
v 2.5 2 -0.5
v 3.5 2 -0.5
v 2.5 2 -1.5
v 3.5 2 -1.5
v 2.5 2 -5.5
v 3.5 2 -5.5
v 2.5 2 -6.5
v 3.5 2 -6.5
v 2.5 2 -10.5
v 3.5 2 -10.5
v 2.5 2 -11.5
v 3.5 2 -11.5
v -3.5 2 -12.5
v 1.5 2 -12.5
v 2.5 2 -12.5
v 3.5 2 -12.5

# faces
f 3/3/1 2/3/1 1/3/1
f 4/3/1 2/3/1 3/3/1
f 11/2/1 6/2/1 5/2/1
f 12/2/1 6/2/1 11/2/1
f 13/2/1 8/2/1 7/2/1
f 14/2/1 8/2/1 13/2/1
f 15/2/1 10/2/1 9/2/1
f 16/2/1 10/2/1 15/2/1
f 19/2/1 18/2/1 17/2/1
f 20/2/1 18/2/1 19/2/1
f 31/2/1 22/2/1 21/2/1
f 32/2/1 22/2/1 31/2/1
f 33/2/1 24/2/1 23/2/1
f 34/2/1 24/2/1 33/2/1
f 35/2/1 26/2/1 25/2/1
f 36/2/1 26/2/1 35/2/1
f 37/2/1 28/2/1 27/2/1
f 38/2/1 28/2/1 37/2/1
f 39/2/1 30/2/1 29/2/1
f 40/2/1 30/2/1 39/2/1
f 41/2/2 42/2/2 45/2/2
f 45/2/2 42/2/2 46/2/2
f 43/2/2 44/2/2 47/2/2
f 47/2/2 44/2/2 48/2/2
f 49/2/2 50/2/2 51/2/2
f 51/2/2 50/2/2 52/2/2
f 53/2/2 54/2/2 59/2/2
f 59/2/2 54/2/2 60/2/2
f 55/2/2 56/2/2 61/2/2
f 61/2/2 56/2/2 62/2/2
f 57/2/2 58/2/2 63/2/2
f 63/2/2 58/2/2 64/2/2
f 65/2/2 66/2/2 75/2/2
f 75/2/2 66/2/2 76/2/2
f 67/2/2 68/2/2 77/2/2
f 77/2/2 68/2/2 78/2/2
f 69/2/2 70/2/2 79/2/2
f 79/2/2 70/2/2 80/2/2
f 71/2/2 72/2/2 81/2/2
f 81/2/2 72/2/2 82/2/2
f 73/2/2 74/2/2 83/2/2
f 83/2/2 74/2/2 84/2/2
f 85/3/2 86/3/2 87/3/2
f 87/3/2 86/3/2 88/3/2
f 91/3/3 90/3/3 89/3/3
f 92/3/3 90/3/3 91/3/3
f 95/2/3 94/2/3 93/2/3
f 96/2/3 94/2/3 95/2/3
f 99/2/3 98/2/3 97/2/3
f 100/2/3 98/2/3 99/2/3
f 103/2/3 102/2/3 101/2/3
f 104/2/3 102/2/3 103/2/3
f 107/2/3 106/2/3 105/2/3
f 108/2/3 106/2/3 107/2/3
f 111/2/3 110/2/3 109/2/3
f 112/2/3 110/2/3 111/2/3
f 115/2/3 114/2/3 113/2/3
f 116/2/3 114/2/3 115/2/3
f 119/2/3 118/2/3 117/2/3
f 120/2/3 118/2/3 119/2/3
f 123/2/3 122/2/3 121/2/3
f 124/2/3 122/2/3 123/2/3
f 127/2/3 126/2/3 125/2/3
f 128/2/3 126/2/3 127/2/3
f 131/2/3 130/2/3 129/2/3
f 132/2/3 130/2/3 131/2/3
f 133/2/4 134/2/4 135/2/4
f 135/2/4 134/2/4 136/2/4
f 137/2/4 138/2/4 139/2/4
f 139/2/4 138/2/4 140/2/4
f 141/2/4 142/2/4 143/2/4
f 143/2/4 142/2/4 144/2/4
f 145/2/4 146/2/4 147/2/4
f 147/2/4 146/2/4 148/2/4
f 149/2/4 150/2/4 151/2/4
f 151/2/4 150/2/4 152/2/4
f 153/2/4 154/2/4 155/2/4
f 155/2/4 154/2/4 156/2/4
f 157/2/4 158/2/4 159/2/4
f 159/2/4 158/2/4 160/2/4
f 161/2/4 162/2/4 163/2/4
f 163/2/4 162/2/4 164/2/4
f 165/2/4 166/2/4 167/2/4
f 167/2/4 166/2/4 168/2/4
f 169/2/4 170/2/4 171/2/4
f 171/2/4 170/2/4 172/2/4
f 173/3/4 174/3/4 175/3/4
f 175/3/4 174/3/4 176/3/4
f 179/3/5 178/3/5 177/3/5
f 180/3/5 178/3/5 179/3/5
f 181/3/5 179/3/5 177/3/5
f 181/1/5 180/1/5 179/1/5
f 182/3/5 178/3/5 180/3/5
f 182/1/5 180/1/5 181/1/5
f 183/3/5 181/3/5 177/3/5
f 183/3/5 182/3/5 181/3/5
f 184/3/5 178/3/5 182/3/5
f 184/3/5 182/3/5 183/3/5
f 185/3/5 183/3/5 177/3/5
f 185/1/5 184/1/5 183/1/5
f 186/3/5 178/3/5 184/3/5
f 186/1/5 184/1/5 185/1/5
f 187/3/5 185/3/5 177/3/5
f 187/3/5 186/3/5 185/3/5
f 188/3/5 178/3/5 186/3/5
f 188/3/5 186/3/5 187/3/5
f 189/3/6 190/3/6 191/3/6
f 191/3/6 190/3/6 192/3/6
f 192/3/6 190/3/6 193/3/6
f 193/3/6 190/3/6 194/3/6
f 192/3/6 193/3/6 195/3/6
f 193/1/6 194/1/6 195/1/6
f 194/3/6 190/3/6 196/3/6
f 195/1/6 194/1/6 196/1/6
f 192/3/6 195/3/6 197/3/6
f 195/3/6 196/3/6 197/3/6
f 196/3/6 190/3/6 198/3/6
f 197/3/6 196/3/6 198/3/6
f 192/3/6 197/3/6 199/3/6
f 197/1/6 198/1/6 199/1/6
f 198/3/6 190/3/6 200/3/6
f 199/1/6 198/1/6 200/1/6
f 189/3/6 191/3/6 201/3/6
f 192/3/6 199/3/6 202/3/6
f 199/3/6 200/3/6 202/3/6
f 189/3/6 201/3/6 203/3/6
f 201/3/6 202/3/6 203/3/6
f 203/3/6 202/3/6 204/3/6
f 204/3/6 202/3/6 205/3/6
f 202/3/6 200/3/6 206/3/6
f 205/3/6 202/3/6 206/3/6
f 206/3/6 200/3/6 207/3/6
f 200/3/6 190/3/6 208/3/6
f 207/3/6 200/3/6 208/3/6
f 204/3/6 205/3/6 209/3/6
f 209/3/6 205/3/6 210/3/6
f 210/3/6 205/3/6 212/3/6
f 189/3/6 203/3/6 213/3/6
f 211/3/6 212/3/6 214/3/6
f 212/3/6 205/3/6 215/3/6
f 214/3/6 212/3/6 215/3/6
f 206/3/6 207/3/6 216/3/6
f 216/3/6 207/3/6 217/3/6
f 208/3/6 190/3/6 218/3/6
f 214/3/6 215/3/6 219/3/6
f 217/3/6 218/3/6 219/3/6
f 216/3/6 217/3/6 219/3/6
f 189/3/6 213/3/6 219/3/6
f 215/3/6 216/3/6 219/3/6
f 213/3/6 214/3/6 219/3/6
f 219/3/6 218/3/6 220/3/6
f 220/3/6 218/3/6 221/3/6
f 218/3/6 190/3/6 222/3/6
f 221/3/6 218/3/6 222/3/6
f 220/3/6 221/3/6 223/3/6
f 222/3/6 190/3/6 224/3/6
f 220/3/6 223/3/6 225/3/6
f 223/3/6 224/3/6 225/3/6
f 224/3/6 190/3/6 226/3/6
f 225/3/6 224/3/6 226/3/6
f 220/3/6 225/3/6 227/3/6
f 226/3/6 190/3/6 228/3/6
f 220/3/6 227/3/6 229/3/6
f 227/3/6 228/3/6 229/3/6
f 228/3/6 190/3/6 230/3/6
f 229/3/6 228/3/6 230/3/6
f 220/3/6 229/3/6 231/3/6
f 230/3/6 190/3/6 232/3/6
f 220/3/6 231/3/6 233/3/6
f 231/3/6 232/3/6 233/3/6
f 232/3/6 190/3/6 234/3/6
f 233/3/6 232/3/6 234/3/6
f 189/3/6 219/3/6 235/3/6
f 220/3/6 233/3/6 236/3/6
f 236/3/6 233/3/6 237/3/6
f 234/3/6 190/3/6 238/3/6
f 189/3/6 235/3/6 239/3/6
f 237/3/6 238/3/6 239/3/6
f 236/3/6 237/3/6 239/3/6
f 235/3/6 236/3/6 239/3/6
f 238/3/6 190/3/6 240/3/6
f 239/3/6 238/3/6 240/3/6
f 241/2/6 242/2/6 243/2/6
f 243/2/6 242/2/6 244/2/6
f 245/2/6 246/2/6 251/2/6
f 245/2/6 251/2/6 253/2/6
f 251/2/6 252/2/6 253/2/6
f 253/2/6 252/2/6 254/2/6
f 245/2/6 253/2/6 255/2/6
f 255/2/6 253/2/6 256/2/6
f 247/2/6 248/2/6 257/2/6
f 257/2/6 248/2/6 258/2/6
f 249/2/6 250/2/6 259/2/6
f 259/2/6 250/2/6 260/2/6
f 263/2/6 264/2/6 265/2/6
f 265/2/6 264/2/6 266/2/6
f 267/2/6 268/2/6 269/2/6
f 269/2/6 268/2/6 270/2/6
f 271/2/6 272/2/6 273/2/6
f 273/2/6 272/2/6 274/2/6
f 261/2/6 262/2/6 277/2/6
f 277/2/6 262/2/6 278/2/6
f 275/2/6 276/2/6 279/2/6
f 279/2/6 276/2/6 280/2/6
