# MagicaVoxel @ Ephtracy

# group
g phone

# material
mtllib phone.mtl
usemtl palette

# normals
vn -1 0 0
vn 1 0 0
vn 0 0 1
vn 0 0 -1
vn 0 -1 0
vn 0 1 0

# texcoords
vt 0.880859 0.5
vt 0.974609 0.5
vt 0.978516 0.5
vt 0.986328 0.5
vt 0.994141 0.5

# verts
v -6.5 0 5.5
v -6.5 0 -5.5
v -6.5 3 5.5
v -6.5 3 -5.5
v -5.5 3 4.5
v -5.5 3 3.5
v -5.5 3 2.5
v -5.5 3 1.5
v -5.5 3 0.5
v -5.5 3 -0.5
v -5.5 3 -1.5
v -5.5 3 -4.5
v -5.5 4 4.5
v -5.5 4 3.5
v -5.5 4 2.5
v -5.5 4 1.5
v -5.5 4 0.5
v -5.5 4 -0.5
v -5.5 5 -1.5
v -5.5 5 -4.5
v -4.5 5 -2.5
v -4.5 5 -3.5
v -4.5 6 -2.5
v -4.5 6 -3.5
v -3.5 3 4.5
v -3.5 3 3.5
v -3.5 3 2.5
v -3.5 3 1.5
v -3.5 3 0.5
v -3.5 3 -0.5
v -3.5 4 4.5
v -3.5 4 3.5
v -3.5 4 2.5
v -3.5 4 1.5
v -3.5 4 0.5
v -3.5 4 -0.5
v -1.5 3 4.5
v -1.5 3 3.5
v -1.5 3 2.5
v -1.5 3 1.5
v -1.5 3 0.5
v -1.5 3 -0.5
v -1.5 4 4.5
v -1.5 4 3.5
v -1.5 4 2.5
v -1.5 4 1.5
v -1.5 4 0.5
v -1.5 4 -0.5
v 0.5 3 4.5
v 0.5 3 3.5
v 0.5 3 2.5
v 0.5 3 1.5
v 0.5 3 0.5
v 0.5 3 -0.5
v 0.5 4 4.5
v 0.5 4 3.5
v 0.5 4 2.5
v 0.5 4 1.5
v 0.5 4 0.5
v 0.5 4 -0.5
v 2.5 3 -1.5
v 2.5 3 -4.5
v 2.5 4 -2.5
v 2.5 4 -3.5
v 2.5 5 -1.5
v 2.5 5 -2.5
v 2.5 5 -3.5
v 2.5 5 -4.5
v -4.5 3 4.5
v -4.5 3 3.5
v -4.5 3 2.5
v -4.5 3 1.5
v -4.5 3 0.5
v -4.5 3 -0.5
v -4.5 4 4.5
v -4.5 4 3.5
v -4.5 4 2.5
v -4.5 4 1.5
v -4.5 4 0.5
v -4.5 4 -0.5
v -2.5 3 4.5
v -2.5 3 3.5
v -2.5 3 2.5
v -2.5 3 1.5
v -2.5 3 0.5
v -2.5 3 -0.5
v -2.5 3 -1.5
v -2.5 3 -4.5
v -2.5 4 4.5
v -2.5 4 3.5
v -2.5 4 2.5
v -2.5 4 1.5
v -2.5 4 0.5
v -2.5 4 -0.5
v -2.5 4 -2.5
v -2.5 4 -3.5
v -2.5 5 -1.5
v -2.5 5 -2.5
v -2.5 5 -3.5
v -2.5 5 -4.5
v -0.5 3 4.5
v -0.5 3 3.5
v -0.5 3 2.5
v -0.5 3 1.5
v -0.5 3 0.5
v -0.5 3 -0.5
v -0.5 4 4.5
v -0.5 4 3.5
v -0.5 4 2.5
v -0.5 4 1.5
v -0.5 4 0.5
v -0.5 4 -0.5
v 1.5 3 4.5
v 1.5 3 3.5
v 1.5 3 2.5
v 1.5 3 1.5
v 1.5 3 0.5
v 1.5 3 -0.5
v 1.5 4 4.5
v 1.5 4 3.5
v 1.5 4 2.5
v 1.5 4 1.5
v 1.5 4 0.5
v 1.5 4 -0.5
v 4.5 5 -2.5
v 4.5 5 -3.5
v 4.5 6 -2.5
v 4.5 6 -3.5
v 5.5 3 -1.5
v 5.5 3 -4.5
v 5.5 5 -1.5
v 5.5 5 -4.5
v 6.5 0 5.5
v 6.5 0 -5.5
v 6.5 3 5.5
v 6.5 3 -5.5
v -6.5 0 5.5
v -6.5 3 5.5
v 6.5 0 5.5
v 6.5 3 5.5
v -5.5 3 4.5
v -5.5 4 4.5
v -4.5 3 4.5
v -4.5 4 4.5
v -3.5 3 4.5
v -3.5 4 4.5
v -2.5 3 4.5
v -2.5 4 4.5
v -1.5 3 4.5
v -1.5 4 4.5
v -0.5 3 4.5
v -0.5 4 4.5
v 0.5 3 4.5
v 0.5 4 4.5
v 1.5 3 4.5
v 1.5 4 4.5
v -5.5 3 2.5
v -5.5 4 2.5
v -4.5 3 2.5
v -4.5 4 2.5
v -3.5 3 2.5
v -3.5 4 2.5
v -2.5 3 2.5
v -2.5 4 2.5
v -1.5 3 2.5
v -1.5 4 2.5
v -0.5 3 2.5
v -0.5 4 2.5
v 0.5 3 2.5
v 0.5 4 2.5
v 1.5 3 2.5
v 1.5 4 2.5
v -5.5 3 0.5
v -5.5 4 0.5
v -4.5 3 0.5
v -4.5 4 0.5
v -3.5 3 0.5
v -3.5 4 0.5
v -2.5 3 0.5
v -2.5 4 0.5
v -1.5 3 0.5
v -1.5 4 0.5
v -0.5 3 0.5
v -0.5 4 0.5
v 0.5 3 0.5
v 0.5 4 0.5
v 1.5 3 0.5
v 1.5 4 0.5
v -5.5 3 -1.5
v -5.5 5 -1.5
v -2.5 3 -1.5
v -2.5 5 -1.5
v 2.5 3 -1.5
v 2.5 5 -1.5
v 5.5 3 -1.5
v 5.5 5 -1.5
v -4.5 5 -2.5
v -4.5 6 -2.5
v -2.5 4 -2.5
v -2.5 5 -2.5
v 2.5 4 -2.5
v 2.5 5 -2.5
v 4.5 5 -2.5
v 4.5 6 -2.5
v -5.5 3 3.5
v -5.5 4 3.5
v -4.5 3 3.5
v -4.5 4 3.5
v -3.5 3 3.5
v -3.5 4 3.5
v -2.5 3 3.5
v -2.5 4 3.5
v -1.5 3 3.5
v -1.5 4 3.5
v -0.5 3 3.5
v -0.5 4 3.5
v 0.5 3 3.5
v 0.5 4 3.5
v 1.5 3 3.5
v 1.5 4 3.5
v -5.5 3 1.5
v -5.5 4 1.5
v -4.5 3 1.5
v -4.5 4 1.5
v -3.5 3 1.5
v -3.5 4 1.5
v -2.5 3 1.5
v -2.5 4 1.5
v -1.5 3 1.5
v -1.5 4 1.5
v -0.5 3 1.5
v -0.5 4 1.5
v 0.5 3 1.5
v 0.5 4 1.5
v 1.5 3 1.5
v 1.5 4 1.5
v -5.5 3 -0.5
v -5.5 4 -0.5
v -4.5 3 -0.5
v -4.5 4 -0.5
v -3.5 3 -0.5
v -3.5 4 -0.5
v -2.5 3 -0.5
v -2.5 4 -0.5
v -1.5 3 -0.5
v -1.5 4 -0.5
v -0.5 3 -0.5
v -0.5 4 -0.5
v 0.5 3 -0.5
v 0.5 4 -0.5
v 1.5 3 -0.5
v 1.5 4 -0.5
v -4.5 5 -3.5
v -4.5 6 -3.5
v -2.5 4 -3.5
v -2.5 5 -3.5
v 2.5 4 -3.5
v 2.5 5 -3.5
v 4.5 5 -3.5
v 4.5 6 -3.5
v -5.5 3 -4.5
v -5.5 5 -4.5
v -2.5 3 -4.5
v -2.5 5 -4.5
v 2.5 3 -4.5
v 2.5 5 -4.5
v 5.5 3 -4.5
v 5.5 5 -4.5
v -6.5 0 -5.5
v -6.5 3 -5.5
v 6.5 0 -5.5
v 6.5 3 -5.5
v -6.5 0 5.5
v 6.5 0 5.5
v -6.5 0 -5.5
v 6.5 0 -5.5
v -2.5 4 -2.5
v 2.5 4 -2.5
v -2.5 4 -3.5
v 2.5 4 -3.5
v -6.5 3 5.5
v 6.5 3 5.5
v -5.5 3 4.5
v -4.5 3 4.5
v -3.5 3 4.5
v -2.5 3 4.5
v -1.5 3 4.5
v -0.5 3 4.5
v 0.5 3 4.5
v 1.5 3 4.5
v 2.5 3 4.5
v 5.5 3 4.5
v -5.5 3 3.5
v -4.5 3 3.5
v -3.5 3 3.5
v -2.5 3 3.5
v -1.5 3 3.5
v -0.5 3 3.5
v 0.5 3 3.5
v 1.5 3 3.5
v -5.5 3 2.5
v -4.5 3 2.5
v -3.5 3 2.5
v -2.5 3 2.5
v -1.5 3 2.5
v -0.5 3 2.5
v 0.5 3 2.5
v 1.5 3 2.5
v 4.5 3 2.5
v 5.5 3 2.5
v -5.5 3 1.5
v -4.5 3 1.5
v -3.5 3 1.5
v -2.5 3 1.5
v -1.5 3 1.5
v -0.5 3 1.5
v 0.5 3 1.5
v 1.5 3 1.5
v 4.5 3 1.5
v 5.5 3 1.5
v -5.5 3 0.5
v -4.5 3 0.5
v -3.5 3 0.5
v -2.5 3 0.5
v -1.5 3 0.5
v -0.5 3 0.5
v 0.5 3 0.5
v 1.5 3 0.5
v 4.5 3 0.5
v 5.5 3 0.5
v -5.5 3 -0.5
v -4.5 3 -0.5
v -3.5 3 -0.5
v -2.5 3 -0.5
v -1.5 3 -0.5
v -0.5 3 -0.5
v 0.5 3 -0.5
v 1.5 3 -0.5
v 2.5 3 -0.5
v 4.5 3 -0.5
v 5.5 3 -0.5
v -5.5 3 -1.5
v -2.5 3 -1.5
v 2.5 3 -1.5
v 5.5 3 -1.5
v -5.5 3 -4.5
v -2.5 3 -4.5
v 2.5 3 -4.5
v 5.5 3 -4.5
v -6.5 3 -5.5
v 6.5 3 -5.5
v -5.5 4 4.5
v -4.5 4 4.5
v -3.5 4 4.5
v -2.5 4 4.5
v -1.5 4 4.5
v -0.5 4 4.5
v 0.5 4 4.5
v 1.5 4 4.5
v -5.5 4 3.5
v -4.5 4 3.5
v -3.5 4 3.5
v -2.5 4 3.5
v -1.5 4 3.5
v -0.5 4 3.5
v 0.5 4 3.5
v 1.5 4 3.5
v -5.5 4 2.5
v -4.5 4 2.5
v -3.5 4 2.5
v -2.5 4 2.5
v -1.5 4 2.5
v -0.5 4 2.5
v 0.5 4 2.5
v 1.5 4 2.5
v -5.5 4 1.5
v -4.5 4 1.5
v -3.5 4 1.5
v -2.5 4 1.5
v -1.5 4 1.5
v -0.5 4 1.5
v 0.5 4 1.5
v 1.5 4 1.5
v -5.5 4 0.5
v -4.5 4 0.5
v -3.5 4 0.5
v -2.5 4 0.5
v -1.5 4 0.5
v -0.5 4 0.5
v 0.5 4 0.5
v 1.5 4 0.5
v -5.5 4 -0.5
v -4.5 4 -0.5
v -3.5 4 -0.5
v -2.5 4 -0.5
v -1.5 4 -0.5
v -0.5 4 -0.5
v 0.5 4 -0.5
v 1.5 4 -0.5
v -5.5 5 -1.5
v -2.5 5 -1.5
v 2.5 5 -1.5
v 5.5 5 -1.5
v -4.5 5 -2.5
v -2.5 5 -2.5
v 2.5 5 -2.5
v 4.5 5 -2.5
v -4.5 5 -3.5
v -2.5 5 -3.5
v 2.5 5 -3.5
v 4.5 5 -3.5
v -5.5 5 -4.5
v -2.5 5 -4.5
v 2.5 5 -4.5
v 5.5 5 -4.5
v -4.5 6 -2.5
v 4.5 6 -2.5
v -4.5 6 -3.5
v 4.5 6 -3.5

# faces
f 3/5/1 2/5/1 1/5/1
f 4/5/1 2/5/1 3/5/1
f 13/2/1 6/2/1 5/2/1
f 14/2/1 6/2/1 13/2/1
f 15/2/1 8/2/1 7/2/1
f 16/2/1 8/2/1 15/2/1
f 17/2/1 10/2/1 9/2/1
f 18/2/1 10/2/1 17/2/1
f 19/4/1 12/4/1 11/4/1
f 20/4/1 12/4/1 19/4/1
f 23/4/1 22/4/1 21/4/1
f 24/4/1 22/4/1 23/4/1
f 31/2/1 26/2/1 25/2/1
f 32/2/1 26/2/1 31/2/1
f 33/2/1 28/2/1 27/2/1
f 34/2/1 28/2/1 33/2/1
f 35/2/1 30/2/1 29/2/1
f 36/2/1 30/2/1 35/2/1
f 43/2/1 38/2/1 37/2/1
f 44/2/1 38/2/1 43/2/1
f 45/2/1 40/2/1 39/2/1
f 46/2/1 40/2/1 45/2/1
f 47/2/1 42/2/1 41/2/1
f 48/2/1 42/2/1 47/2/1
f 55/2/1 50/2/1 49/2/1
f 56/2/1 50/2/1 55/2/1
f 57/2/1 52/2/1 51/2/1
f 58/2/1 52/2/1 57/2/1
f 59/2/1 54/2/1 53/2/1
f 60/2/1 54/2/1 59/2/1
f 63/4/1 62/4/1 61/4/1
f 64/4/1 62/4/1 63/4/1
f 65/4/1 63/4/1 61/4/1
f 66/4/1 63/4/1 65/4/1
f 67/4/1 62/4/1 64/4/1
f 68/4/1 62/4/1 67/4/1
f 69/2/2 70/2/2 75/2/2
f 75/2/2 70/2/2 76/2/2
f 71/2/2 72/2/2 77/2/2
f 77/2/2 72/2/2 78/2/2
f 73/2/2 74/2/2 79/2/2
f 79/2/2 74/2/2 80/2/2
f 81/2/2 82/2/2 89/2/2
f 89/2/2 82/2/2 90/2/2
f 83/2/2 84/2/2 91/2/2
f 91/2/2 84/2/2 92/2/2
f 85/2/2 86/2/2 93/2/2
f 93/2/2 86/2/2 94/2/2
f 87/4/2 88/4/2 95/4/2
f 95/4/2 88/4/2 96/4/2
f 87/4/2 95/4/2 97/4/2
f 97/4/2 95/4/2 98/4/2
f 96/4/2 88/4/2 99/4/2
f 99/4/2 88/4/2 100/4/2
f 101/2/2 102/2/2 107/2/2
f 107/2/2 102/2/2 108/2/2
f 103/2/2 104/2/2 109/2/2
f 109/2/2 104/2/2 110/2/2
f 105/2/2 106/2/2 111/2/2
f 111/2/2 106/2/2 112/2/2
f 113/2/2 114/2/2 119/2/2
f 119/2/2 114/2/2 120/2/2
f 115/2/2 116/2/2 121/2/2
f 121/2/2 116/2/2 122/2/2
f 117/2/2 118/2/2 123/2/2
f 123/2/2 118/2/2 124/2/2
f 125/4/2 126/4/2 127/4/2
f 127/4/2 126/4/2 128/4/2
f 129/4/2 130/4/2 131/4/2
f 131/4/2 130/4/2 132/4/2
f 133/5/2 134/5/2 135/5/2
f 135/5/2 134/5/2 136/5/2
f 139/5/3 138/5/3 137/5/3
f 140/5/3 138/5/3 139/5/3
f 143/2/3 142/2/3 141/2/3
f 144/2/3 142/2/3 143/2/3
f 147/2/3 146/2/3 145/2/3
f 148/2/3 146/2/3 147/2/3
f 151/2/3 150/2/3 149/2/3
f 152/2/3 150/2/3 151/2/3
f 155/2/3 154/2/3 153/2/3
f 156/2/3 154/2/3 155/2/3
f 159/2/3 158/2/3 157/2/3
f 160/2/3 158/2/3 159/2/3
f 163/2/3 162/2/3 161/2/3
f 164/2/3 162/2/3 163/2/3
f 167/2/3 166/2/3 165/2/3
f 168/2/3 166/2/3 167/2/3
f 171/2/3 170/2/3 169/2/3
f 172/2/3 170/2/3 171/2/3
f 175/2/3 174/2/3 173/2/3
f 176/2/3 174/2/3 175/2/3
f 179/2/3 178/2/3 177/2/3
f 180/2/3 178/2/3 179/2/3
f 183/2/3 182/2/3 181/2/3
f 184/2/3 182/2/3 183/2/3
f 187/2/3 186/2/3 185/2/3
f 188/2/3 186/2/3 187/2/3
f 191/4/3 190/4/3 189/4/3
f 192/4/3 190/4/3 191/4/3
f 195/4/3 194/4/3 193/4/3
f 196/4/3 194/4/3 195/4/3
f 200/4/3 198/4/3 197/4/3
f 201/4/3 200/4/3 199/4/3
f 202/4/3 198/4/3 200/4/3
f 202/4/3 200/4/3 201/4/3
f 203/4/3 198/4/3 202/4/3
f 204/4/3 198/4/3 203/4/3
f 205/2/4 206/2/4 207/2/4
f 207/2/4 206/2/4 208/2/4
f 209/2/4 210/2/4 211/2/4
f 211/2/4 210/2/4 212/2/4
f 213/2/4 214/2/4 215/2/4
f 215/2/4 214/2/4 216/2/4
f 217/2/4 218/2/4 219/2/4
f 219/2/4 218/2/4 220/2/4
f 221/2/4 222/2/4 223/2/4
f 223/2/4 222/2/4 224/2/4
f 225/2/4 226/2/4 227/2/4
f 227/2/4 226/2/4 228/2/4
f 229/2/4 230/2/4 231/2/4
f 231/2/4 230/2/4 232/2/4
f 233/2/4 234/2/4 235/2/4
f 235/2/4 234/2/4 236/2/4
f 237/2/4 238/2/4 239/2/4
f 239/2/4 238/2/4 240/2/4
f 241/2/4 242/2/4 243/2/4
f 243/2/4 242/2/4 244/2/4
f 245/2/4 246/2/4 247/2/4
f 247/2/4 246/2/4 248/2/4
f 249/2/4 250/2/4 251/2/4
f 251/2/4 250/2/4 252/2/4
f 253/4/4 254/4/4 256/4/4
f 255/4/4 256/4/4 257/4/4
f 256/4/4 254/4/4 258/4/4
f 257/4/4 256/4/4 258/4/4
f 258/4/4 254/4/4 259/4/4
f 259/4/4 254/4/4 260/4/4
f 261/4/4 262/4/4 263/4/4
f 263/4/4 262/4/4 264/4/4
f 265/4/4 266/4/4 267/4/4
f 267/4/4 266/4/4 268/4/4
f 269/5/4 270/5/4 271/5/4
f 271/5/4 270/5/4 272/5/4
f 275/5/5 274/5/5 273/5/5
f 276/5/5 274/5/5 275/5/5
f 279/4/5 278/4/5 277/4/5
f 280/4/5 278/4/5 279/4/5
f 281/5/6 282/5/6 283/5/6
f 283/5/6 282/5/6 284/5/6
f 284/5/6 282/5/6 285/5/6
f 285/5/6 282/5/6 286/5/6
f 286/5/6 282/5/6 287/5/6
f 287/5/6 282/5/6 288/5/6
f 288/5/6 282/5/6 289/5/6
f 289/5/6 282/5/6 290/5/6
f 290/5/6 282/5/6 291/5/6
f 291/5/6 282/5/6 292/5/6
f 281/5/6 283/5/6 293/5/6
f 284/5/6 285/5/6 294/5/6
f 294/5/6 285/5/6 295/5/6
f 286/5/6 287/5/6 296/5/6
f 296/5/6 287/5/6 297/5/6
f 288/5/6 289/5/6 298/5/6
f 298/5/6 289/5/6 299/5/6
f 290/5/6 291/5/6 300/5/6
f 281/5/6 293/5/6 301/5/6
f 299/5/6 300/5/6 301/5/6
f 298/5/6 299/5/6 301/5/6
f 294/5/6 295/5/6 301/5/6
f 297/5/6 298/5/6 301/5/6
f 296/5/6 297/5/6 301/5/6
f 295/5/6 296/5/6 301/5/6
f 293/5/6 294/5/6 301/5/6
f 301/5/6 300/5/6 302/5/6
f 302/5/6 300/5/6 303/5/6
f 303/5/6 300/5/6 304/5/6
f 304/5/6 300/5/6 305/5/6
f 305/5/6 300/5/6 306/5/6
f 306/5/6 300/5/6 307/5/6
f 300/5/6 291/5/6 308/5/6
f 307/5/6 300/5/6 308/5/6
f 291/3/6 292/3/6 309/3/6
f 292/5/6 282/5/6 310/5/6
f 309/3/6 292/3/6 310/3/6
f 281/5/6 301/5/6 311/5/6
f 302/5/6 303/5/6 312/5/6
f 312/5/6 303/5/6 313/5/6
f 304/5/6 305/5/6 314/5/6
f 314/5/6 305/5/6 315/5/6
f 306/5/6 307/5/6 316/5/6
f 316/5/6 307/5/6 317/5/6
f 308/5/6 291/5/6 318/5/6
f 291/3/6 309/3/6 319/3/6
f 309/1/6 310/1/6 319/1/6
f 310/5/6 282/5/6 320/5/6
f 319/1/6 310/1/6 320/1/6
f 317/5/6 318/5/6 321/5/6
f 316/5/6 317/5/6 321/5/6
f 314/5/6 315/5/6 321/5/6
f 281/5/6 311/5/6 321/5/6
f 315/5/6 316/5/6 321/5/6
f 312/5/6 313/5/6 321/5/6
f 313/5/6 314/5/6 321/5/6
f 311/5/6 312/5/6 321/5/6
f 321/5/6 318/5/6 322/5/6
f 322/5/6 318/5/6 323/5/6
f 323/5/6 318/5/6 324/5/6
f 324/5/6 318/5/6 325/5/6
f 325/5/6 318/5/6 326/5/6
f 326/5/6 318/5/6 327/5/6
f 318/5/6 291/5/6 328/5/6
f 327/5/6 318/5/6 328/5/6
f 319/3/6 320/3/6 329/3/6
f 291/3/6 319/3/6 329/3/6
f 320/5/6 282/5/6 330/5/6
f 329/3/6 320/3/6 330/3/6
f 281/5/6 321/5/6 331/5/6
f 322/5/6 323/5/6 332/5/6
f 332/5/6 323/5/6 333/5/6
f 324/5/6 325/5/6 334/5/6
f 334/5/6 325/5/6 335/5/6
f 326/5/6 327/5/6 336/5/6
f 336/5/6 327/5/6 337/5/6
f 328/5/6 291/5/6 338/5/6
f 291/3/6 329/3/6 339/3/6
f 338/5/6 291/5/6 339/5/6
f 329/1/6 330/1/6 340/1/6
f 339/3/6 329/3/6 340/3/6
f 330/5/6 282/5/6 341/5/6
f 340/1/6 330/1/6 341/1/6
f 337/5/6 338/5/6 342/5/6
f 336/5/6 337/5/6 342/5/6
f 340/5/6 341/5/6 342/5/6
f 339/5/6 340/5/6 342/5/6
f 335/5/6 336/5/6 342/5/6
f 334/5/6 335/5/6 342/5/6
f 333/5/6 334/5/6 342/5/6
f 338/5/6 339/5/6 342/5/6
f 331/5/6 332/5/6 342/5/6
f 332/5/6 333/5/6 342/5/6
f 281/5/6 331/5/6 342/5/6
f 342/5/6 341/5/6 343/5/6
f 343/5/6 341/5/6 344/5/6
f 341/5/6 282/5/6 345/5/6
f 344/5/6 341/5/6 345/5/6
f 281/5/6 342/5/6 346/5/6
f 343/5/6 344/5/6 347/5/6
f 347/5/6 344/5/6 348/5/6
f 345/5/6 282/5/6 349/5/6
f 281/5/6 346/5/6 350/5/6
f 348/5/6 349/5/6 350/5/6
f 347/5/6 348/5/6 350/5/6
f 346/5/6 347/5/6 350/5/6
f 349/5/6 282/5/6 351/5/6
f 350/5/6 349/5/6 351/5/6
f 352/2/6 353/2/6 360/2/6
f 360/2/6 353/2/6 361/2/6
f 354/2/6 355/2/6 362/2/6
f 362/2/6 355/2/6 363/2/6
f 356/2/6 357/2/6 364/2/6
f 364/2/6 357/2/6 365/2/6
f 358/2/6 359/2/6 366/2/6
f 366/2/6 359/2/6 367/2/6
f 368/2/6 369/2/6 376/2/6
f 376/2/6 369/2/6 377/2/6
f 370/2/6 371/2/6 378/2/6
f 378/2/6 371/2/6 379/2/6
f 372/2/6 373/2/6 380/2/6
f 380/2/6 373/2/6 381/2/6
f 374/2/6 375/2/6 382/2/6
f 382/2/6 375/2/6 383/2/6
f 384/2/6 385/2/6 392/2/6
f 392/2/6 385/2/6 393/2/6
f 386/2/6 387/2/6 394/2/6
f 394/2/6 387/2/6 395/2/6
f 388/2/6 389/2/6 396/2/6
f 396/2/6 389/2/6 397/2/6
f 390/2/6 391/2/6 398/2/6
f 398/2/6 391/2/6 399/2/6
f 400/4/6 401/4/6 404/4/6
f 404/4/6 401/4/6 405/4/6
f 402/4/6 403/4/6 406/4/6
f 406/4/6 403/4/6 407/4/6
f 400/4/6 404/4/6 408/4/6
f 407/4/6 403/4/6 411/4/6
f 408/4/6 409/4/6 412/4/6
f 400/4/6 408/4/6 412/4/6
f 412/4/6 409/4/6 413/4/6
f 410/4/6 411/4/6 414/4/6
f 411/4/6 403/4/6 415/4/6
f 414/4/6 411/4/6 415/4/6
f 416/4/6 417/4/6 418/4/6
f 418/4/6 417/4/6 419/4/6
