# MagicaVoxel @ Ephtracy

# group
g shelf

# material
mtllib shelf.mtl
usemtl palette

# normals
vn -1 0 0
vn 1 0 0
vn 0 0 1
vn 0 0 -1
vn 0 -1 0
vn 0 1 0

# texcoords
vt 0.958984 0.5
vt 0.970703 0.5
vt 0.974609 0.5
vt 0.978516 0.5

# verts
v -17.5 0 14.5
v -17.5 0 11.5
v -17.5 0 9.5
v -17.5 0 -15.5
v -17.5 94 14.5
v -17.5 94 13.5
v -17.5 94 -14.5
v -17.5 94 -15.5
v -17.5 95 13.5
v -17.5 95 11.5
v -17.5 95 9.5
v -17.5 95 -14.5
v -16.5 0 11.5
v -16.5 0 9.5
v -16.5 94 14.5
v -16.5 94 13.5
v -16.5 94 11.5
v -16.5 94 9.5
v -16.5 94 -14.5
v -16.5 94 -15.5
v -16.5 95 14.5
v -16.5 95 13.5
v -16.5 95 -14.5
v -16.5 95 -15.5
v -10.5 52 14.5
v -10.5 52 13.5
v -10.5 60 14.5
v -10.5 60 13.5
v -8.5 77 15.5
v -8.5 77 14.5
v -8.5 78 15.5
v -8.5 78 14.5
v -8.5 79 15.5
v -8.5 79 14.5
v -8.5 80 15.5
v -8.5 80 14.5
v -8.5 81 15.5
v -8.5 81 14.5
v -8.5 82 15.5
v -8.5 82 14.5
v -8.5 83 15.5
v -8.5 83 14.5
v -8.5 84 15.5
v -8.5 84 14.5
v -14.5 52 14.5
v -14.5 52 13.5
v -14.5 54 14.5
v -14.5 54 13.5
v -12.5 54 14.5
v -12.5 54 13.5
v -12.5 60 14.5
v -12.5 60 13.5
v 8.5 77 15.5
v 8.5 77 14.5
v 8.5 78 15.5
v 8.5 78 14.5
v 8.5 79 15.5
v 8.5 79 14.5
v 8.5 80 15.5
v 8.5 80 14.5
v 8.5 81 15.5
v 8.5 81 14.5
v 8.5 82 15.5
v 8.5 82 14.5
v 8.5 83 15.5
v 8.5 83 14.5
v 8.5 84 15.5
v 8.5 84 14.5
v 16.5 0 11.5
v 16.5 0 9.5
v 16.5 23 11.5
v 16.5 23 10.5
v 16.5 23 9.5
v 16.5 33 11.5
v 16.5 33 10.5
v 16.5 33 9.5
v 16.5 61 11.5
v 16.5 61 10.5
v 16.5 61 9.5
v 16.5 72 11.5
v 16.5 72 10.5
v 16.5 72 9.5
v 16.5 94 14.5
v 16.5 94 13.5
v 16.5 94 11.5
v 16.5 94 9.5
v 16.5 94 -14.5
v 16.5 94 -15.5
v 16.5 95 14.5
v 16.5 95 13.5
v 16.5 95 -14.5
v 16.5 95 -15.5
v 17.5 0 14.5
v 17.5 0 11.5
v 17.5 0 9.5
v 17.5 0 -15.5
v 17.5 23 10.5
v 17.5 23 9.5
v 17.5 33 10.5
v 17.5 33 9.5
v 17.5 61 10.5
v 17.5 61 9.5
v 17.5 72 10.5
v 17.5 72 9.5
v 17.5 94 14.5
v 17.5 94 13.5
v 17.5 94 -14.5
v 17.5 94 -15.5
v 17.5 95 13.5
v 17.5 95 11.5
v 17.5 95 9.5
v 17.5 95 -14.5
v -8.5 77 15.5
v -8.5 78 15.5
v -8.5 79 15.5
v -8.5 80 15.5
v -8.5 81 15.5
v -8.5 82 15.5
v -8.5 83 15.5
v -8.5 84 15.5
v 8.5 77 15.5
v 8.5 78 15.5
v 8.5 79 15.5
v 8.5 80 15.5
v 8.5 81 15.5
v 8.5 82 15.5
v 8.5 83 15.5
v 8.5 84 15.5
v -17.5 0 14.5
v -17.5 94 14.5
v -16.5 94 14.5
v -16.5 95 14.5
v -14.5 52 14.5
v -14.5 54 14.5
v -14.5 60 14.5
v -12.5 54 14.5
v -12.5 60 14.5
v -10.5 52 14.5
v -10.5 60 14.5
v -8.5 77 14.5
v -8.5 78 14.5
v -8.5 79 14.5
v -8.5 80 14.5
v -8.5 81 14.5
v -8.5 82 14.5
v -8.5 83 14.5
v -8.5 84 14.5
v 8.5 77 14.5
v 8.5 78 14.5
v 8.5 79 14.5
v 8.5 80 14.5
v 8.5 81 14.5
v 8.5 82 14.5
v 8.5 83 14.5
v 8.5 84 14.5
v 16.5 94 14.5
v 16.5 95 14.5
v 17.5 0 14.5
v 17.5 94 14.5
v -17.5 94 13.5
v -17.5 95 13.5
v -16.5 94 13.5
v -16.5 95 13.5
v -14.5 52 13.5
v -14.5 54 13.5
v -12.5 54 13.5
v -12.5 60 13.5
v -10.5 52 13.5
v -10.5 60 13.5
v 16.5 94 13.5
v 16.5 95 13.5
v 17.5 94 13.5
v 17.5 95 13.5
v 16.5 23 10.5
v 16.5 33 10.5
v 16.5 61 10.5
v 16.5 72 10.5
v 17.5 23 10.5
v 17.5 33 10.5
v 17.5 61 10.5
v 17.5 72 10.5
v -17.5 0 9.5
v -17.5 95 9.5
v -16.5 0 9.5
v -16.5 94 9.5
v 16.5 0 9.5
v 16.5 23 9.5
v 16.5 33 9.5
v 16.5 61 9.5
v 16.5 72 9.5
v 16.5 94 9.5
v 17.5 0 9.5
v 17.5 23 9.5
v 17.5 33 9.5
v 17.5 61 9.5
v 17.5 72 9.5
v 17.5 95 9.5
v -17.5 0 11.5
v -17.5 95 11.5
v -16.5 0 11.5
v -16.5 94 11.5
v 16.5 0 11.5
v 16.5 23 11.5
v 16.5 33 11.5
v 16.5 61 11.5
v 16.5 72 11.5
v 16.5 94 11.5
v 17.5 0 11.5
v 17.5 95 11.5
v -17.5 94 -14.5
v -17.5 95 -14.5
v -16.5 94 -14.5
v -16.5 95 -14.5
v 16.5 94 -14.5
v 16.5 95 -14.5
v 17.5 94 -14.5
v 17.5 95 -14.5
v -17.5 0 -15.5
v -17.5 94 -15.5
v -16.5 94 -15.5
v -16.5 95 -15.5
v 16.5 94 -15.5
v 16.5 95 -15.5
v 17.5 0 -15.5
v 17.5 94 -15.5
v -17.5 0 14.5
v 17.5 0 14.5
v -17.5 0 11.5
v -16.5 0 11.5
v 16.5 0 11.5
v 17.5 0 11.5
v -17.5 0 9.5
v -16.5 0 9.5
v 16.5 0 9.5
v 17.5 0 9.5
v -17.5 0 -15.5
v 17.5 0 -15.5
v 16.5 23 10.5
v 17.5 23 10.5
v 16.5 23 9.5
v 17.5 23 9.5
v -14.5 54 14.5
v -12.5 54 14.5
v -14.5 54 13.5
v -12.5 54 13.5
v -12.5 60 14.5
v -10.5 60 14.5
v -12.5 60 13.5
v -10.5 60 13.5
v 16.5 61 10.5
v 17.5 61 10.5
v 16.5 61 9.5
v 17.5 61 9.5
v -8.5 77 15.5
v 8.5 77 15.5
v -8.5 77 14.5
v 8.5 77 14.5
v -8.5 79 15.5
v 8.5 79 15.5
v -8.5 79 14.5
v 8.5 79 14.5
v -8.5 81 15.5
v 8.5 81 15.5
v -8.5 81 14.5
v 8.5 81 14.5
v -8.5 83 15.5
v 8.5 83 15.5
v -8.5 83 14.5
v 8.5 83 14.5
v 16.5 33 10.5
v 17.5 33 10.5
v 16.5 33 9.5
v 17.5 33 9.5
v -14.5 52 14.5
v -10.5 52 14.5
v -14.5 52 13.5
v -10.5 52 13.5
v 16.5 72 10.5
v 17.5 72 10.5
v 16.5 72 9.5
v 17.5 72 9.5
v -8.5 78 15.5
v 8.5 78 15.5
v -8.5 78 14.5
v 8.5 78 14.5
v -8.5 80 15.5
v 8.5 80 15.5
v -8.5 80 14.5
v 8.5 80 14.5
v -8.5 82 15.5
v 8.5 82 15.5
v -8.5 82 14.5
v 8.5 82 14.5
v -8.5 84 15.5
v 8.5 84 15.5
v -8.5 84 14.5
v 8.5 84 14.5
v -17.5 94 14.5
v -16.5 94 14.5
v 16.5 94 14.5
v 17.5 94 14.5
v -17.5 94 13.5
v -16.5 94 13.5
v 16.5 94 13.5
v 17.5 94 13.5
v -16.5 94 11.5
v 16.5 94 11.5
v -16.5 94 9.5
v 16.5 94 9.5
v -17.5 94 -14.5
v -16.5 94 -14.5
v 16.5 94 -14.5
v 17.5 94 -14.5
v -17.5 94 -15.5
v -16.5 94 -15.5
v 16.5 94 -15.5
v 17.5 94 -15.5
v -16.5 95 14.5
v 16.5 95 14.5
v -17.5 95 13.5
v -16.5 95 13.5
v 16.5 95 13.5
v 17.5 95 13.5
v -17.5 95 11.5
v 17.5 95 11.5
v -17.5 95 9.5
v 17.5 95 9.5
v -17.5 95 -14.5
v -16.5 95 -14.5
v 16.5 95 -14.5
v 17.5 95 -14.5
v -16.5 95 -15.5
v 16.5 95 -15.5

# faces
f 5/4/1 2/4/1 1/4/1
f 6/4/1 2/4/1 5/4/1
f 7/4/1 4/4/1 3/4/1
f 8/4/1 4/4/1 7/4/1
f 9/4/1 2/4/1 6/4/1
f 10/4/1 2/4/1 9/4/1
f 11/4/1 7/4/1 3/4/1
f 12/4/1 7/4/1 11/4/1
f 17/4/1 14/4/1 13/4/1
f 18/4/1 14/4/1 17/4/1
f 21/4/1 16/4/1 15/4/1
f 22/4/1 16/4/1 21/4/1
f 23/4/1 20/4/1 19/4/1
f 24/4/1 20/4/1 23/4/1
f 27/4/1 26/4/1 25/4/1
f 28/4/1 26/4/1 27/4/1
f 31/2/1 30/2/1 29/2/1
f 32/2/1 30/2/1 31/2/1
f 35/2/1 34/2/1 33/2/1
f 36/2/1 34/2/1 35/2/1
f 39/2/1 38/2/1 37/2/1
f 40/2/1 38/2/1 39/2/1
f 43/2/1 42/2/1 41/2/1
f 44/2/1 42/2/1 43/2/1
f 45/4/2 46/4/2 47/4/2
f 47/4/2 46/4/2 48/4/2
f 49/2/2 50/2/2 51/2/2
f 51/2/2 50/2/2 52/2/2
f 53/2/2 54/2/2 55/2/2
f 55/2/2 54/2/2 56/2/2
f 57/2/2 58/2/2 59/2/2
f 59/2/2 58/2/2 60/2/2
f 61/2/2 62/2/2 63/2/2
f 63/2/2 62/2/2 64/2/2
f 65/2/2 66/2/2 67/2/2
f 67/2/2 66/2/2 68/2/2
f 69/4/2 70/4/2 71/4/2
f 71/4/2 70/4/2 72/4/2
f 72/4/2 70/4/2 73/4/2
f 71/3/2 72/3/2 74/3/2
f 74/3/2 72/3/2 75/3/2
f 74/4/2 75/4/2 77/4/2
f 75/4/2 76/4/2 77/4/2
f 77/4/2 76/4/2 78/4/2
f 78/4/2 76/4/2 79/4/2
f 77/3/2 78/3/2 80/3/2
f 80/3/2 78/3/2 81/3/2
f 80/4/2 81/4/2 85/4/2
f 81/4/2 82/4/2 85/4/2
f 85/4/2 82/4/2 86/4/2
f 83/4/2 84/4/2 89/4/2
f 89/4/2 84/4/2 90/4/2
f 87/4/2 88/4/2 91/4/2
f 91/4/2 88/4/2 92/4/2
f 95/4/2 96/4/2 98/4/2
f 97/3/2 98/3/2 99/3/2
f 98/4/2 96/4/2 100/4/2
f 99/3/2 98/3/2 100/3/2
f 100/4/2 96/4/2 102/4/2
f 101/3/2 102/3/2 103/3/2
f 102/4/2 96/4/2 104/4/2
f 103/3/2 102/3/2 104/3/2
f 93/4/2 94/4/2 105/4/2
f 105/4/2 94/4/2 106/4/2
f 104/4/2 96/4/2 107/4/2
f 107/4/2 96/4/2 108/4/2
f 106/4/2 94/4/2 109/4/2
f 109/4/2 94/4/2 110/4/2
f 104/4/2 107/4/2 111/4/2
f 111/4/2 107/4/2 112/4/2
f 121/2/3 114/2/3 113/2/3
f 122/2/3 114/2/3 121/2/3
f 123/2/3 116/2/3 115/2/3
f 124/2/3 116/2/3 123/2/3
f 125/2/3 118/2/3 117/2/3
f 126/2/3 118/2/3 125/2/3
f 127/2/3 120/2/3 119/2/3
f 128/2/3 120/2/3 127/2/3
f 131/4/3 130/4/3 129/4/3
f 133/4/3 131/4/3 129/4/3
f 133/4/3 132/4/3 131/4/3
f 134/4/3 132/4/3 133/4/3
f 135/4/3 132/4/3 134/4/3
f 136/2/3 135/2/3 134/2/3
f 137/4/3 132/4/3 135/4/3
f 137/2/3 135/2/3 136/2/3
f 138/4/3 133/4/3 129/4/3
f 139/4/3 132/4/3 137/4/3
f 140/4/3 132/4/3 139/4/3
f 140/4/3 139/4/3 138/4/3
f 141/4/3 132/4/3 140/4/3
f 142/4/3 132/4/3 141/4/3
f 143/4/3 132/4/3 142/4/3
f 144/4/3 132/4/3 143/4/3
f 145/4/3 132/4/3 144/4/3
f 146/4/3 132/4/3 145/4/3
f 147/4/3 132/4/3 146/4/3
f 148/4/3 140/4/3 138/4/3
f 149/4/3 142/4/3 141/4/3
f 150/4/3 142/4/3 149/4/3
f 151/4/3 144/4/3 143/4/3
f 152/4/3 144/4/3 151/4/3
f 153/4/3 146/4/3 145/4/3
f 154/4/3 146/4/3 153/4/3
f 155/4/3 132/4/3 147/4/3
f 156/4/3 154/4/3 153/4/3
f 156/4/3 155/4/3 154/4/3
f 156/4/3 132/4/3 155/4/3
f 156/4/3 152/4/3 151/4/3
f 156/4/3 153/4/3 152/4/3
f 156/4/3 150/4/3 149/4/3
f 156/4/3 151/4/3 150/4/3
f 156/4/3 149/4/3 148/4/3
f 157/4/3 132/4/3 156/4/3
f 158/4/3 138/4/3 129/4/3
f 158/4/3 148/4/3 138/4/3
f 158/4/3 156/4/3 148/4/3
f 159/4/3 156/4/3 158/4/3
f 162/4/3 161/4/3 160/4/3
f 163/4/3 161/4/3 162/4/3
f 166/4/3 165/4/3 164/4/3
f 168/4/3 166/4/3 164/4/3
f 168/4/3 167/4/3 166/4/3
f 169/4/3 167/4/3 168/4/3
f 172/4/3 171/4/3 170/4/3
f 173/4/3 171/4/3 172/4/3
f 178/3/3 175/3/3 174/3/3
f 179/3/3 175/3/3 178/3/3
f 180/3/3 177/3/3 176/3/3
f 181/3/3 177/3/3 180/3/3
f 184/4/3 183/4/3 182/4/3
f 185/4/3 183/4/3 184/4/3
f 191/4/3 183/4/3 185/4/3
f 192/4/3 187/4/3 186/4/3
f 193/4/3 187/4/3 192/4/3
f 194/4/3 189/4/3 188/4/3
f 195/4/3 189/4/3 194/4/3
f 196/4/3 191/4/3 190/4/3
f 197/4/3 183/4/3 191/4/3
f 197/4/3 191/4/3 196/4/3
f 198/4/4 199/4/4 200/4/4
f 200/4/4 199/4/4 201/4/4
f 201/4/4 199/4/4 207/4/4
f 205/4/4 206/4/4 208/4/4
f 206/4/4 207/4/4 208/4/4
f 202/4/4 203/4/4 208/4/4
f 203/4/4 204/4/4 208/4/4
f 204/4/4 205/4/4 208/4/4
f 207/4/4 199/4/4 209/4/4
f 208/4/4 207/4/4 209/4/4
f 210/4/4 211/4/4 212/4/4
f 212/4/4 211/4/4 213/4/4
f 214/4/4 215/4/4 216/4/4
f 216/4/4 215/4/4 217/4/4
f 218/4/4 219/4/4 220/4/4
f 218/4/4 220/4/4 222/4/4
f 220/4/4 221/4/4 222/4/4
f 222/4/4 221/4/4 223/4/4
f 218/4/4 222/4/4 224/4/4
f 224/4/4 222/4/4 225/4/4
f 228/4/5 227/4/5 226/4/5
f 229/4/5 227/4/5 228/4/5
f 230/4/5 227/4/5 229/4/5
f 231/4/5 227/4/5 230/4/5
f 233/4/5 230/4/5 229/4/5
f 234/4/5 230/4/5 233/4/5
f 236/4/5 233/4/5 232/4/5
f 236/4/5 235/4/5 234/4/5
f 236/4/5 234/4/5 233/4/5
f 237/4/5 235/4/5 236/4/5
f 240/3/5 239/3/5 238/3/5
f 241/3/5 239/3/5 240/3/5
f 244/2/5 243/2/5 242/2/5
f 245/2/5 243/2/5 244/2/5
f 248/4/5 247/4/5 246/4/5
f 249/4/5 247/4/5 248/4/5
f 252/3/5 251/3/5 250/3/5
f 253/3/5 251/3/5 252/3/5
f 256/2/5 255/2/5 254/2/5
f 257/2/5 255/2/5 256/2/5
f 260/2/5 259/2/5 258/2/5
f 261/2/5 259/2/5 260/2/5
f 264/2/5 263/2/5 262/2/5
f 265/2/5 263/2/5 264/2/5
f 268/2/5 267/2/5 266/2/5
f 269/2/5 267/2/5 268/2/5
f 270/3/6 271/3/6 272/3/6
f 272/3/6 271/3/6 273/3/6
f 274/4/6 275/4/6 276/4/6
f 276/4/6 275/4/6 277/4/6
f 278/3/6 279/3/6 280/3/6
f 280/3/6 279/3/6 281/3/6
f 282/2/6 283/2/6 284/2/6
f 284/2/6 283/2/6 285/2/6
f 286/2/6 287/2/6 288/2/6
f 288/2/6 287/2/6 289/2/6
f 290/2/6 291/2/6 292/2/6
f 292/2/6 291/2/6 293/2/6
f 294/2/6 295/2/6 296/2/6
f 296/2/6 295/2/6 297/2/6
f 298/4/6 299/4/6 302/4/6
f 302/4/6 299/4/6 303/4/6
f 300/4/6 301/4/6 304/4/6
f 304/4/6 301/4/6 305/4/6
f 306/4/6 307/4/6 308/4/6
f 308/4/6 307/4/6 309/4/6
f 310/4/6 311/4/6 314/4/6
f 314/4/6 311/4/6 315/4/6
f 312/4/6 313/4/6 316/4/6
f 316/4/6 313/4/6 317/4/6
f 318/4/6 319/4/6 321/4/6
f 321/4/6 319/4/6 322/4/6
f 320/4/6 321/4/6 324/4/6
f 322/4/6 323/4/6 324/4/6
f 321/4/6 322/4/6 324/4/6
f 324/4/6 323/4/6 325/4/6
f 326/4/6 327/4/6 328/4/6
f 328/4/6 327/4/6 329/4/6
f 329/4/6 327/4/6 330/4/6
f 330/4/6 327/4/6 331/4/6
f 329/4/6 330/4/6 332/4/6
f 332/4/6 330/4/6 333/4/6
