# MagicaVoxel @ Ephtracy

# group
g WallCorner

# material
mtllib WallCorner.mtl
usemtl palette

# normals
vn -1 0 0
vn 1 0 0
vn 0 0 1
vn 0 0 -1
vn 0 -1 0
vn 0 1 0

# texcoords
vt 0.306641 0.5
vt 0.310547 0.5
vt 0.978516 0.5

# verts
v -6 0 40
v -6 0 -6
v -6 1 5
v -6 1 -5
v -6 2 40
v -6 2 5
v -6 2 -5
v -6 2 -6
v -6 8 40
v -6 8 -6
v -6 40 40
v -6 40 -6
v 6 0 40
v 6 0 6
v 6 2 40
v 6 2 6
v 6 8 40
v 6 8 6
v 6 40 40
v 6 40 6
v 40 0 6
v 40 0 -6
v 40 2 6
v 40 2 -6
v 40 8 6
v 40 8 -6
v 40 40 6
v 40 40 -6
v -6 0 40
v -6 2 40
v -6 8 40
v -6 40 40
v 6 0 40
v 6 2 40
v 6 8 40
v 6 40 40
v 6 0 6
v 6 2 6
v 6 8 6
v 6 40 6
v 40 0 6
v 40 2 6
v 40 8 6
v 40 40 6
v -6 0 -6
v -6 2 -6
v -6 8 -6
v -6 40 -6
v 40 0 -6
v 40 2 -6
v 40 8 -6
v 40 40 -6
v -6 0 40
v 6 0 40
v 6 0 6
v 40 0 6
v -6 0 -6
v 40 0 -6
v -6 40 40
v 6 40 40
v 6 40 6
v 40 40 6
v -6 40 -6
v 40 40 -6

# faces
f 3/2/1 2/2/1 1/2/1
f 4/2/1 2/2/1 3/2/1
f 5/2/1 3/2/1 1/2/1
f 6/1/1 4/1/1 3/1/1
f 6/2/1 3/2/1 5/2/1
f 7/2/1 2/2/1 4/2/1
f 7/1/1 4/1/1 6/1/1
f 8/2/1 2/2/1 7/2/1
f 9/3/1 6/3/1 5/3/1
f 9/3/1 7/3/1 6/3/1
f 9/3/1 8/3/1 7/3/1
f 10/3/1 8/3/1 9/3/1
f 11/2/1 10/2/1 9/2/1
f 12/2/1 10/2/1 11/2/1
f 13/2/2 14/2/2 15/2/2
f 15/2/2 14/2/2 16/2/2
f 15/3/2 16/3/2 17/3/2
f 17/3/2 16/3/2 18/3/2
f 17/2/2 18/2/2 19/2/2
f 19/2/2 18/2/2 20/2/2
f 21/2/2 22/2/2 23/2/2
f 23/2/2 22/2/2 24/2/2
f 23/3/2 24/3/2 25/3/2
f 25/3/2 24/3/2 26/3/2
f 25/2/2 26/2/2 27/2/2
f 27/2/2 26/2/2 28/2/2
f 33/2/3 30/2/3 29/2/3
f 34/3/3 31/3/3 30/3/3
f 34/2/3 30/2/3 33/2/3
f 35/2/3 32/2/3 31/2/3
f 35/3/3 31/3/3 34/3/3
f 36/2/3 32/2/3 35/2/3
f 41/2/3 38/2/3 37/2/3
f 42/3/3 39/3/3 38/3/3
f 42/2/3 38/2/3 41/2/3
f 43/2/3 40/2/3 39/2/3
f 43/3/3 39/3/3 42/3/3
f 44/2/3 40/2/3 43/2/3
f 45/2/4 46/2/4 49/2/4
f 46/3/4 47/3/4 50/3/4
f 49/2/4 46/2/4 50/2/4
f 47/2/4 48/2/4 51/2/4
f 50/3/4 47/3/4 51/3/4
f 51/2/4 48/2/4 52/2/4
f 55/2/5 54/2/5 53/2/5
f 57/2/5 55/2/5 53/2/5
f 57/2/5 56/2/5 55/2/5
f 58/2/5 56/2/5 57/2/5
f 59/2/6 60/2/6 61/2/6
f 59/2/6 61/2/6 63/2/6
f 61/2/6 62/2/6 63/2/6
f 63/2/6 62/2/6 64/2/6
