# MagicaVoxel @ Ephtracy

# group
g WallT

# material
mtllib WallT.mtl
usemtl palette

# normals
vn -1 0 0
vn 1 0 0
vn 0 0 1
vn 0 0 -1
vn 0 -1 0
vn 0 1 0

# texcoords
vt 0.306641 0.5
vt 0.310547 0.5
vt 0.978516 0.5

# verts
v -6 0 40
v -6 0 -40
v -6 1 5
v -6 1 -5
v -6 2 40
v -6 2 5
v -6 2 -5
v -6 2 -40
v -6 8 40
v -6 8 -40
v -6 40 40
v -6 40 -40
v 6 0 40
v 6 0 6
v 6 0 -6
v 6 0 -40
v 6 2 40
v 6 2 6
v 6 2 -6
v 6 2 -40
v 6 8 40
v 6 8 6
v 6 8 -6
v 6 8 -40
v 6 40 40
v 6 40 6
v 6 40 -6
v 6 40 -40
v 40 0 6
v 40 0 -6
v 40 2 6
v 40 2 -6
v 40 8 6
v 40 8 -6
v 40 40 6
v 40 40 -6
v -6 0 40
v -6 2 40
v -6 8 40
v -6 40 40
v 6 0 40
v 6 2 40
v 6 8 40
v 6 40 40
v 6 0 6
v 6 2 6
v 6 8 6
v 6 40 6
v 40 0 6
v 40 2 6
v 40 8 6
v 40 40 6
v 6 0 -6
v 6 2 -6
v 6 8 -6
v 6 40 -6
v 40 0 -6
v 40 2 -6
v 40 8 -6
v 40 40 -6
v -6 0 -40
v -6 2 -40
v -6 8 -40
v -6 40 -40
v 6 0 -40
v 6 2 -40
v 6 8 -40
v 6 40 -40
v -6 0 40
v 6 0 40
v 6 0 6
v 40 0 6
v 6 0 -6
v 40 0 -6
v -6 0 -40
v 6 0 -40
v -6 40 40
v 6 40 40
v 6 40 6
v 40 40 6
v 6 40 -6
v 40 40 -6
v -6 40 -40
v 6 40 -40

# faces
f 3/2/1 2/2/1 1/2/1
f 4/2/1 2/2/1 3/2/1
f 5/2/1 3/2/1 1/2/1
f 6/1/1 4/1/1 3/1/1
f 6/2/1 3/2/1 5/2/1
f 7/2/1 2/2/1 4/2/1
f 7/1/1 4/1/1 6/1/1
f 8/2/1 2/2/1 7/2/1
f 9/3/1 6/3/1 5/3/1
f 9/3/1 7/3/1 6/3/1
f 9/3/1 8/3/1 7/3/1
f 10/3/1 8/3/1 9/3/1
f 11/2/1 10/2/1 9/2/1
f 12/2/1 10/2/1 11/2/1
f 13/2/2 14/2/2 17/2/2
f 17/2/2 14/2/2 18/2/2
f 15/2/2 16/2/2 19/2/2
f 19/2/2 16/2/2 20/2/2
f 17/3/2 18/3/2 21/3/2
f 21/3/2 18/3/2 22/3/2
f 19/3/2 20/3/2 23/3/2
f 23/3/2 20/3/2 24/3/2
f 21/2/2 22/2/2 25/2/2
f 25/2/2 22/2/2 26/2/2
f 23/2/2 24/2/2 27/2/2
f 27/2/2 24/2/2 28/2/2
f 29/2/2 30/2/2 31/2/2
f 31/2/2 30/2/2 32/2/2
f 31/3/2 32/3/2 33/3/2
f 33/3/2 32/3/2 34/3/2
f 33/2/2 34/2/2 35/2/2
f 35/2/2 34/2/2 36/2/2
f 41/2/3 38/2/3 37/2/3
f 42/3/3 39/3/3 38/3/3
f 42/2/3 38/2/3 41/2/3
f 43/2/3 40/2/3 39/2/3
f 43/3/3 39/3/3 42/3/3
f 44/2/3 40/2/3 43/2/3
f 49/2/3 46/2/3 45/2/3
f 50/3/3 47/3/3 46/3/3
f 50/2/3 46/2/3 49/2/3
f 51/2/3 48/2/3 47/2/3
f 51/3/3 47/3/3 50/3/3
f 52/2/3 48/2/3 51/2/3
f 53/2/4 54/2/4 57/2/4
f 54/3/4 55/3/4 58/3/4
f 57/2/4 54/2/4 58/2/4
f 55/2/4 56/2/4 59/2/4
f 58/3/4 55/3/4 59/3/4
f 59/2/4 56/2/4 60/2/4
f 61/2/4 62/2/4 65/2/4
f 62/3/4 63/3/4 66/3/4
f 65/2/4 62/2/4 66/2/4
f 63/2/4 64/2/4 67/2/4
f 66/3/4 63/3/4 67/3/4
f 67/2/4 64/2/4 68/2/4
f 71/2/5 70/2/5 69/2/5
f 73/2/5 71/2/5 69/2/5
f 73/2/5 72/2/5 71/2/5
f 74/2/5 72/2/5 73/2/5
f 75/2/5 73/2/5 69/2/5
f 76/2/5 73/2/5 75/2/5
f 77/2/6 78/2/6 79/2/6
f 77/2/6 79/2/6 81/2/6
f 79/2/6 80/2/6 81/2/6
f 81/2/6 80/2/6 82/2/6
f 77/2/6 81/2/6 83/2/6
f 83/2/6 81/2/6 84/2/6
