# MagicaVoxel @ Ephtracy

# group
g truckdoor

# material
mtllib truckdoor.mtl
usemtl palette

# normals
vn -1 0 0
vn 1 0 0
vn 0 0 1
vn 0 0 -1
vn 0 -1 0
vn 0 1 0

# texcoords
vt 0.841797 0.5
vt 0.962891 0.5
vt 0.994141 0.5

# verts
v -13 0 1
v -13 0 -1
v -13 3 -0
v -13 3 -1
v -13 12 -0
v -13 12 -1
v -13 22 1
v -13 22 -1
v -11 9 -1
v -11 9 -2
v -11 10 -1
v -11 10 -2
v -2 12 1
v -2 12 -1
v -2 20 1
v -2 20 -1
v -11 12 1
v -11 12 -1
v -11 20 1
v -11 20 -1
v -8 9 -1
v -8 9 -2
v -8 10 -1
v -8 10 -2
v 0 0 1
v 0 0 -1
v 0 22 1
v 0 22 -1
v -13 0 1
v -13 22 1
v -11 12 1
v -11 20 1
v -2 12 1
v -2 20 1
v 0 0 1
v 0 22 1
v -13 0 -1
v -13 3 -1
v -13 12 -1
v -13 22 -1
v -12 3 -1
v -12 6 -1
v -12 9 -1
v -12 12 -1
v -11 9 -1
v -11 10 -1
v -11 12 -1
v -11 20 -1
v -9 6 -1
v -9 9 -1
v -8 9 -1
v -8 10 -1
v -2 12 -1
v -2 20 -1
v 0 0 -1
v 0 22 -1
v -11 9 -2
v -11 10 -2
v -8 9 -2
v -8 10 -2
v -13 0 1
v 0 0 1
v -13 0 -1
v 0 0 -1
v -11 9 -1
v -9 9 -1
v -8 9 -1
v -11 9 -2
v -8 9 -2
v -11 20 1
v -2 20 1
v -11 20 -1
v -2 20 -1
v -11 10 -1
v -8 10 -1
v -11 10 -2
v -8 10 -2
v -11 12 1
v -2 12 1
v -11 12 -1
v -2 12 -1
v -13 22 1
v 0 22 1
v -13 22 -1
v 0 22 -1

# faces
f 3/2/1 2/2/1 1/2/1
f 4/2/1 2/2/1 3/2/1
f 5/2/1 3/2/1 1/2/1
f 5/1/1 4/1/1 3/1/1
f 6/1/1 4/1/1 5/1/1
f 7/2/1 5/2/1 1/2/1
f 7/2/1 6/2/1 5/2/1
f 8/2/1 6/2/1 7/2/1
f 11/3/1 10/3/1 9/3/1
f 12/3/1 10/3/1 11/3/1
f 15/2/1 14/2/1 13/2/1
f 16/2/1 14/2/1 15/2/1
f 17/2/2 18/2/2 19/2/2
f 19/2/2 18/2/2 20/2/2
f 21/3/2 22/3/2 23/3/2
f 23/3/2 22/3/2 24/3/2
f 25/2/2 26/2/2 27/2/2
f 27/2/2 26/2/2 28/2/2
f 31/2/3 30/2/3 29/2/3
f 32/2/3 30/2/3 31/2/3
f 33/2/3 31/2/3 29/2/3
f 34/2/3 30/2/3 32/2/3
f 35/2/3 33/2/3 29/2/3
f 35/2/3 34/2/3 33/2/3
f 36/2/3 30/2/3 34/2/3
f 36/2/3 34/2/3 35/2/3
f 37/2/4 38/2/4 41/2/4
f 38/1/4 39/1/4 41/1/4
f 41/1/4 39/1/4 42/1/4
f 42/1/4 39/1/4 43/1/4
f 39/2/4 40/2/4 44/2/4
f 43/1/4 39/1/4 44/1/4
f 42/1/4 43/1/4 45/1/4
f 43/2/4 44/2/4 45/2/4
f 45/2/4 44/2/4 46/2/4
f 44/2/4 40/2/4 47/2/4
f 46/2/4 44/2/4 47/2/4
f 47/2/4 40/2/4 48/2/4
f 41/2/4 42/2/4 49/2/4
f 42/1/4 45/1/4 49/1/4
f 49/1/4 45/1/4 50/1/4
f 49/2/4 50/2/4 51/2/4
f 46/2/4 47/2/4 52/2/4
f 52/2/4 47/2/4 53/2/4
f 51/2/4 52/2/4 53/2/4
f 48/2/4 40/2/4 54/2/4
f 51/2/4 53/2/4 55/2/4
f 53/2/4 54/2/4 55/2/4
f 37/2/4 41/2/4 55/2/4
f 49/2/4 51/2/4 55/2/4
f 41/2/4 49/2/4 55/2/4
f 54/2/4 40/2/4 56/2/4
f 55/2/4 54/2/4 56/2/4
f 57/3/4 58/3/4 59/3/4
f 59/3/4 58/3/4 60/3/4
f 63/2/5 62/2/5 61/2/5
f 64/2/5 62/2/5 63/2/5
f 68/3/5 66/3/5 65/3/5
f 68/3/5 67/3/5 66/3/5
f 69/3/5 67/3/5 68/3/5
f 72/2/5 71/2/5 70/2/5
f 73/2/5 71/2/5 72/2/5
f 74/3/6 75/3/6 76/3/6
f 76/3/6 75/3/6 77/3/6
f 78/2/6 79/2/6 80/2/6
f 80/2/6 79/2/6 81/2/6
f 82/2/6 83/2/6 84/2/6
f 84/2/6 83/2/6 85/2/6
