# MagicaVoxel @ Ephtracy

# group
g Door

# material
mtllib Door.mtl
usemtl palette

# normals
vn -1 0 0
vn 1 0 0
vn 0 0 1
vn 0 0 -1
vn 0 -1 0
vn 0 1 0

# texcoords
vt 0.310547 0.5
vt 0.373047 0.5
vt 0.978516 0.5

# verts
v -20 0 6
v -20 0 -6
v -20 2 6
v -20 2 -6
v -20 8 6
v -20 8 -6
v -20 40 6
v -20 40 -6
v -19 40 5
v -19 40 -5
v -19 41 5
v -19 41 -5
v -17 41 2
v -17 41 -2
v -17 60 2
v -17 60 -2
v -12 21 3
v -12 21 2
v -12 21 -2
v -12 21 -3
v -12 24 3
v -12 24 2
v -12 24 -2
v -12 24 -3
v -11 22 5
v -11 22 3
v -11 22 -3
v -11 22 -5
v -11 23 5
v -11 23 3
v -11 23 -3
v -11 23 -5
v 8 30 2
v 8 30 -2
v 8 46 2
v 8 46 -2
v 17 0 3
v 17 0 2
v 17 0 -2
v 17 0 -3
v 17 41 3
v 17 41 2
v 17 41 -2
v 17 41 -3
v 18 0 5
v 18 0 3
v 18 0 -3
v 18 0 -4
v 18 1 -4
v 18 1 -5
v 18 41 5
v 18 41 3
v 18 41 -3
v 18 41 -5
v 19 0 6
v 19 0 5
v 19 0 -4
v 19 0 -6
v 19 1 -4
v 19 1 -5
v 19 2 6
v 19 2 5
v 19 2 -5
v 19 2 -6
v 19 8 6
v 19 8 5
v 19 8 -5
v 19 8 -6
v 19 40 6
v 19 40 5
v 19 40 -5
v 19 40 -6
v -19 0 6
v -19 0 5
v -19 0 -5
v -19 0 -6
v -19 2 6
v -19 2 5
v -19 2 -5
v -19 2 -6
v -19 8 6
v -19 8 5
v -19 8 -5
v -19 8 -6
v -19 40 6
v -19 40 5
v -19 40 -5
v -19 40 -6
v -18 0 5
v -18 0 3
v -18 0 -3
v -18 0 -5
v -18 41 5
v -18 41 3
v -18 41 -3
v -18 41 -5
v -17 0 3
v -17 0 2
v -17 0 -2
v -17 0 -3
v -17 41 3
v -17 41 2
v -17 41 -2
v -17 41 -3
v -10 22 4
v -10 22 3
v -10 22 -3
v -10 22 -4
v -10 23 4
v -10 23 3
v -10 23 -3
v -10 23 -4
v -9 21 3
v -9 21 2
v -9 21 -2
v -9 21 -3
v -9 24 3
v -9 24 2
v -9 24 -2
v -9 24 -3
v -8 30 2
v -8 30 -2
v -8 46 2
v -8 46 -2
v -5 22 5
v -5 22 4
v -5 22 -4
v -5 22 -5
v -5 23 5
v -5 23 4
v -5 23 -4
v -5 23 -5
v 17 41 2
v 17 41 -2
v 17 60 2
v 17 60 -2
v 19 40 5
v 19 40 -5
v 19 41 5
v 19 41 -5
v 20 0 6
v 20 0 -6
v 20 2 6
v 20 2 -6
v 20 8 6
v 20 8 -6
v 20 40 6
v 20 40 -6
v -20 0 6
v -20 2 6
v -20 8 6
v -20 40 6
v -19 0 6
v -19 2 6
v -19 8 6
v -19 40 6
v 19 0 6
v 19 2 6
v 19 8 6
v 19 40 6
v 20 0 6
v 20 2 6
v 20 8 6
v 20 40 6
v -19 0 5
v -19 2 5
v -19 8 5
v -19 40 5
v -19 41 5
v -18 0 5
v -18 41 5
v -11 22 5
v -11 23 5
v -5 22 5
v -5 23 5
v 18 0 5
v 18 41 5
v 19 0 5
v 19 2 5
v 19 8 5
v 19 40 5
v 19 41 5
v -18 0 3
v -18 41 3
v -17 0 3
v -17 41 3
v -12 21 3
v -12 24 3
v -11 22 3
v -11 23 3
v -10 22 3
v -10 23 3
v -9 21 3
v -9 24 3
v 17 0 3
v 17 41 3
v 18 0 3
v 18 41 3
v -17 0 2
v -17 41 2
v -17 60 2
v -12 21 2
v -12 24 2
v -9 21 2
v -9 24 2
v -8 30 2
v -8 46 2
v 8 30 2
v 8 46 2
v 17 0 2
v 17 41 2
v 17 60 2
v -10 22 -4
v -10 23 -4
v -5 22 -4
v -5 23 -4
v -10 22 4
v -10 23 4
v -5 22 4
v -5 23 4
v -17 0 -2
v -17 41 -2
v -17 60 -2
v -12 21 -2
v -12 24 -2
v -9 21 -2
v -9 24 -2
v -8 30 -2
v -8 46 -2
v 8 30 -2
v 8 46 -2
v 17 0 -2
v 17 41 -2
v 17 60 -2
v -18 0 -3
v -18 41 -3
v -17 0 -3
v -17 41 -3
v -12 21 -3
v -12 24 -3
v -11 22 -3
v -11 23 -3
v -10 22 -3
v -10 23 -3
v -9 21 -3
v -9 24 -3
v 17 0 -3
v 17 41 -3
v 18 0 -3
v 18 41 -3
v 18 0 -4
v 18 1 -4
v 19 0 -4
v 19 1 -4
v -19 0 -5
v -19 2 -5
v -19 8 -5
v -19 40 -5
v -19 41 -5
v -18 0 -5
v -18 41 -5
v -11 22 -5
v -11 23 -5
v -5 22 -5
v -5 23 -5
v 18 1 -5
v 18 41 -5
v 19 1 -5
v 19 2 -5
v 19 8 -5
v 19 40 -5
v 19 41 -5
v -20 0 -6
v -20 2 -6
v -20 8 -6
v -20 40 -6
v -19 0 -6
v -19 2 -6
v -19 8 -6
v -19 40 -6
v 19 0 -6
v 19 2 -6
v 19 8 -6
v 19 40 -6
v 20 0 -6
v 20 2 -6
v 20 8 -6
v 20 40 -6
v -20 0 6
v -19 0 6
v 19 0 6
v 20 0 6
v -19 0 5
v -18 0 5
v 18 0 5
v 19 0 5
v -18 0 3
v -17 0 3
v 17 0 3
v 18 0 3
v -17 0 2
v 17 0 2
v -17 0 -2
v 17 0 -2
v -18 0 -3
v -17 0 -3
v 17 0 -3
v 18 0 -3
v 18 0 -4
v 19 0 -4
v -19 0 -5
v -18 0 -5
v -20 0 -6
v -19 0 -6
v 19 0 -6
v 20 0 -6
v 18 1 -4
v 19 1 -4
v 18 1 -5
v 19 1 -5
v -12 21 3
v -9 21 3
v -12 21 2
v -9 21 2
v -12 21 -2
v -9 21 -2
v -12 21 -3
v -9 21 -3
v -11 22 5
v -5 22 5
v -10 22 4
v -5 22 4
v -11 22 3
v -10 22 3
v -11 22 -3
v -10 22 -3
v -10 22 -4
v -5 22 -4
v -11 22 -5
v -5 22 -5
v -8 46 2
v 8 46 2
v -8 46 -2
v 8 46 -2
v -11 23 5
v -5 23 5
v -10 23 4
v -5 23 4
v -11 23 3
v -10 23 3
v -11 23 -3
v -10 23 -3
v -10 23 -4
v -5 23 -4
v -11 23 -5
v -5 23 -5
v -12 24 3
v -9 24 3
v -12 24 2
v -9 24 2
v -12 24 -2
v -9 24 -2
v -12 24 -3
v -9 24 -3
v -8 30 2
v 8 30 2
v -8 30 -2
v 8 30 -2
v -20 40 6
v -19 40 6
v 19 40 6
v 20 40 6
v -19 40 5
v 19 40 5
v -19 40 -5
v 19 40 -5
v -20 40 -6
v -19 40 -6
v 19 40 -6
v 20 40 -6
v -19 41 5
v -18 41 5
v 18 41 5
v 19 41 5
v -18 41 3
v -17 41 3
v 17 41 3
v 18 41 3
v -17 41 2
v 17 41 2
v -17 41 -2
v 17 41 -2
v -18 41 -3
v -17 41 -3
v 17 41 -3
v 18 41 -3
v -19 41 -5
v -18 41 -5
v 18 41 -5
v 19 41 -5
v -17 60 2
v 17 60 2
v -17 60 -2
v 17 60 -2

# faces
f 3/1/1 2/1/1 1/1/1
f 4/1/1 2/1/1 3/1/1
f 5/3/1 4/3/1 3/3/1
f 6/3/1 4/3/1 5/3/1
f 7/1/1 6/1/1 5/1/1
f 8/1/1 6/1/1 7/1/1
f 11/2/1 10/2/1 9/2/1
f 12/2/1 10/2/1 11/2/1
f 15/2/1 14/2/1 13/2/1
f 16/2/1 14/2/1 15/2/1
f 21/3/1 18/3/1 17/3/1
f 22/3/1 18/3/1 21/3/1
f 23/3/1 20/3/1 19/3/1
f 24/3/1 20/3/1 23/3/1
f 29/3/1 26/3/1 25/3/1
f 30/3/1 26/3/1 29/3/1
f 31/3/1 28/3/1 27/3/1
f 32/3/1 28/3/1 31/3/1
f 35/2/1 34/2/1 33/2/1
f 36/2/1 34/2/1 35/2/1
f 41/2/1 38/2/1 37/2/1
f 42/2/1 38/2/1 41/2/1
f 43/2/1 40/2/1 39/2/1
f 44/2/1 40/2/1 43/2/1
f 49/2/1 48/2/1 47/2/1
f 51/2/1 46/2/1 45/2/1
f 52/2/1 46/2/1 51/2/1
f 53/2/1 50/2/1 49/2/1
f 53/2/1 49/2/1 47/2/1
f 54/2/1 50/2/1 53/2/1
f 59/1/1 58/1/1 57/1/1
f 60/1/1 58/1/1 59/1/1
f 61/1/1 56/1/1 55/1/1
f 62/1/1 56/1/1 61/1/1
f 63/1/1 58/1/1 60/1/1
f 64/1/1 58/1/1 63/1/1
f 65/3/1 62/3/1 61/3/1
f 66/3/1 62/3/1 65/3/1
f 67/3/1 64/3/1 63/3/1
f 68/3/1 64/3/1 67/3/1
f 69/1/1 66/1/1 65/1/1
f 70/1/1 66/1/1 69/1/1
f 71/1/1 68/1/1 67/1/1
f 72/1/1 68/1/1 71/1/1
f 73/1/2 74/1/2 77/1/2
f 77/1/2 74/1/2 78/1/2
f 75/1/2 76/1/2 79/1/2
f 79/1/2 76/1/2 80/1/2
f 77/3/2 78/3/2 81/3/2
f 81/3/2 78/3/2 82/3/2
f 79/3/2 80/3/2 83/3/2
f 83/3/2 80/3/2 84/3/2
f 81/1/2 82/1/2 85/1/2
f 85/1/2 82/1/2 86/1/2
f 83/1/2 84/1/2 87/1/2
f 87/1/2 84/1/2 88/1/2
f 89/2/2 90/2/2 93/2/2
f 93/2/2 90/2/2 94/2/2
f 91/2/2 92/2/2 95/2/2
f 95/2/2 92/2/2 96/2/2
f 97/2/2 98/2/2 101/2/2
f 101/2/2 98/2/2 102/2/2
f 99/2/2 100/2/2 103/2/2
f 103/2/2 100/2/2 104/2/2
f 105/3/2 106/3/2 109/3/2
f 109/3/2 106/3/2 110/3/2
f 107/3/2 108/3/2 111/3/2
f 111/3/2 108/3/2 112/3/2
f 113/3/2 114/3/2 117/3/2
f 117/3/2 114/3/2 118/3/2
f 115/3/2 116/3/2 119/3/2
f 119/3/2 116/3/2 120/3/2
f 121/2/2 122/2/2 123/2/2
f 123/2/2 122/2/2 124/2/2
f 125/3/2 126/3/2 129/3/2
f 129/3/2 126/3/2 130/3/2
f 127/3/2 128/3/2 131/3/2
f 131/3/2 128/3/2 132/3/2
f 133/2/2 134/2/2 135/2/2
f 135/2/2 134/2/2 136/2/2
f 137/2/2 138/2/2 139/2/2
f 139/2/2 138/2/2 140/2/2
f 141/1/2 142/1/2 143/1/2
f 143/1/2 142/1/2 144/1/2
f 143/3/2 144/3/2 145/3/2
f 145/3/2 144/3/2 146/3/2
f 145/1/2 146/1/2 147/1/2
f 147/1/2 146/1/2 148/1/2
f 153/1/3 150/1/3 149/1/3
f 154/3/3 151/3/3 150/3/3
f 154/1/3 150/1/3 153/1/3
f 155/1/3 152/1/3 151/1/3
f 155/3/3 151/3/3 154/3/3
f 156/1/3 152/1/3 155/1/3
f 161/1/3 158/1/3 157/1/3
f 162/3/3 159/3/3 158/3/3
f 162/1/3 158/1/3 161/1/3
f 163/1/3 160/1/3 159/1/3
f 163/3/3 159/3/3 162/3/3
f 164/1/3 160/1/3 163/1/3
f 170/2/3 166/2/3 165/2/3
f 170/2/3 169/2/3 168/2/3
f 170/2/3 168/2/3 167/2/3
f 170/2/3 167/2/3 166/2/3
f 171/2/3 169/2/3 170/2/3
f 174/3/3 173/3/3 172/3/3
f 175/3/3 173/3/3 174/3/3
f 178/2/3 177/2/3 176/2/3
f 179/2/3 177/2/3 178/2/3
f 180/2/3 177/2/3 179/2/3
f 181/2/3 177/2/3 180/2/3
f 182/2/3 177/2/3 181/2/3
f 185/2/3 184/2/3 183/2/3
f 186/2/3 184/2/3 185/2/3
f 189/3/3 188/3/3 187/3/3
f 190/3/3 188/3/3 189/3/3
f 191/3/3 189/3/3 187/3/3
f 192/3/3 188/3/3 190/3/3
f 193/3/3 191/3/3 187/3/3
f 193/3/3 192/3/3 191/3/3
f 194/3/3 188/3/3 192/3/3
f 194/3/3 192/3/3 193/3/3
f 197/2/3 196/2/3 195/2/3
f 198/2/3 196/2/3 197/2/3
f 202/2/3 200/2/3 199/2/3
f 202/2/3 201/2/3 200/2/3
f 203/2/3 201/2/3 202/2/3
f 204/2/3 202/2/3 199/2/3
f 205/2/3 201/2/3 203/2/3
f 206/2/3 201/2/3 205/2/3
f 206/2/3 205/2/3 204/2/3
f 207/2/3 201/2/3 206/2/3
f 208/2/3 206/2/3 204/2/3
f 209/2/3 201/2/3 207/2/3
f 210/2/3 204/2/3 199/2/3
f 210/2/3 209/2/3 208/2/3
f 210/2/3 208/2/3 204/2/3
f 211/2/3 209/2/3 210/2/3
f 212/2/3 201/2/3 209/2/3
f 212/2/3 209/2/3 211/2/3
f 215/3/3 214/3/3 213/3/3
f 216/3/3 214/3/3 215/3/3
f 217/3/4 218/3/4 219/3/4
f 219/3/4 218/3/4 220/3/4
f 221/2/4 222/2/4 224/2/4
f 222/2/4 223/2/4 224/2/4
f 224/2/4 223/2/4 225/2/4
f 221/2/4 224/2/4 226/2/4
f 225/2/4 223/2/4 227/2/4
f 227/2/4 223/2/4 228/2/4
f 226/2/4 227/2/4 228/2/4
f 228/2/4 223/2/4 229/2/4
f 226/2/4 228/2/4 230/2/4
f 229/2/4 223/2/4 231/2/4
f 221/2/4 226/2/4 232/2/4
f 230/2/4 231/2/4 232/2/4
f 226/2/4 230/2/4 232/2/4
f 232/2/4 231/2/4 233/2/4
f 231/2/4 223/2/4 234/2/4
f 233/2/4 231/2/4 234/2/4
f 235/2/4 236/2/4 237/2/4
f 237/2/4 236/2/4 238/2/4
f 239/3/4 240/3/4 241/3/4
f 241/3/4 240/3/4 242/3/4
f 239/3/4 241/3/4 243/3/4
f 242/3/4 240/3/4 244/3/4
f 239/3/4 243/3/4 245/3/4
f 243/3/4 244/3/4 245/3/4
f 244/3/4 240/3/4 246/3/4
f 245/3/4 244/3/4 246/3/4
f 247/2/4 248/2/4 249/2/4
f 249/2/4 248/2/4 250/2/4
f 251/2/4 252/2/4 253/2/4
f 253/2/4 252/2/4 254/2/4
f 255/2/4 256/2/4 260/2/4
f 258/2/4 259/2/4 260/2/4
f 257/2/4 258/2/4 260/2/4
f 256/2/4 257/2/4 260/2/4
f 260/2/4 259/2/4 261/2/4
f 262/3/4 263/3/4 264/3/4
f 264/3/4 263/3/4 265/3/4
f 266/2/4 267/2/4 268/2/4
f 268/2/4 267/2/4 269/2/4
f 269/2/4 267/2/4 270/2/4
f 270/2/4 267/2/4 271/2/4
f 271/2/4 267/2/4 272/2/4
f 273/1/4 274/1/4 277/1/4
f 274/3/4 275/3/4 278/3/4
f 277/1/4 274/1/4 278/1/4
f 275/1/4 276/1/4 279/1/4
f 278/3/4 275/3/4 279/3/4
f 279/1/4 276/1/4 280/1/4
f 281/1/4 282/1/4 285/1/4
f 282/3/4 283/3/4 286/3/4
f 285/1/4 282/1/4 286/1/4
f 283/1/4 284/1/4 287/1/4
f 286/3/4 283/3/4 287/3/4
f 287/1/4 284/1/4 288/1/4
f 293/1/5 290/1/5 289/1/5
f 296/1/5 292/1/5 291/1/5
f 297/2/5 294/2/5 293/2/5
f 300/2/5 296/2/5 295/2/5
f 301/2/5 298/2/5 297/2/5
f 302/2/5 300/2/5 299/2/5
f 303/2/5 301/2/5 297/2/5
f 303/2/5 302/2/5 301/2/5
f 304/2/5 300/2/5 302/2/5
f 304/2/5 302/2/5 303/2/5
f 305/2/5 303/2/5 297/2/5
f 305/2/5 297/2/5 293/2/5
f 306/2/5 303/2/5 305/2/5
f 307/2/5 300/2/5 304/2/5
f 308/2/5 296/2/5 300/2/5
f 308/2/5 300/2/5 307/2/5
f 309/2/5 296/2/5 308/2/5
f 310/1/5 292/1/5 296/1/5
f 310/2/5 296/2/5 309/2/5
f 311/2/5 305/2/5 293/2/5
f 311/1/5 293/1/5 289/1/5
f 312/2/5 305/2/5 311/2/5
f 313/1/5 311/1/5 289/1/5
f 314/1/5 311/1/5 313/1/5
f 315/1/5 292/1/5 310/1/5
f 316/1/5 292/1/5 315/1/5
f 319/2/5 318/2/5 317/2/5
f 320/2/5 318/2/5 319/2/5
f 323/3/5 322/3/5 321/3/5
f 324/3/5 322/3/5 323/3/5
f 327/3/5 326/3/5 325/3/5
f 328/3/5 326/3/5 327/3/5
f 331/3/5 330/3/5 329/3/5
f 332/3/5 330/3/5 331/3/5
f 333/3/5 331/3/5 329/3/5
f 334/3/5 331/3/5 333/3/5
f 337/3/5 336/3/5 335/3/5
f 339/3/5 337/3/5 335/3/5
f 339/3/5 338/3/5 337/3/5
f 340/3/5 338/3/5 339/3/5
f 343/2/5 342/2/5 341/2/5
f 344/2/5 342/2/5 343/2/5
f 345/3/6 346/3/6 347/3/6
f 347/3/6 346/3/6 348/3/6
f 345/3/6 347/3/6 349/3/6
f 349/3/6 347/3/6 350/3/6
f 351/3/6 352/3/6 353/3/6
f 351/3/6 353/3/6 355/3/6
f 353/3/6 354/3/6 355/3/6
f 355/3/6 354/3/6 356/3/6
f 357/3/6 358/3/6 359/3/6
f 359/3/6 358/3/6 360/3/6
f 361/3/6 362/3/6 363/3/6
f 363/3/6 362/3/6 364/3/6
f 365/2/6 366/2/6 367/2/6
f 367/2/6 366/2/6 368/2/6
f 369/1/6 370/1/6 373/1/6
f 371/1/6 372/1/6 374/1/6
f 369/1/6 373/1/6 375/1/6
f 374/1/6 372/1/6 376/1/6
f 369/1/6 375/1/6 377/1/6
f 377/1/6 375/1/6 378/1/6
f 376/1/6 372/1/6 379/1/6
f 379/1/6 372/1/6 380/1/6
f 381/2/6 382/2/6 385/2/6
f 383/2/6 384/2/6 388/2/6
f 385/2/6 386/2/6 389/2/6
f 387/2/6 388/2/6 390/2/6
f 385/2/6 389/2/6 391/2/6
f 390/2/6 388/2/6 392/2/6
f 385/2/6 391/2/6 393/2/6
f 381/2/6 385/2/6 393/2/6
f 393/2/6 391/2/6 394/2/6
f 392/2/6 388/2/6 395/2/6
f 388/2/6 384/2/6 396/2/6
f 395/2/6 388/2/6 396/2/6
f 381/2/6 393/2/6 397/2/6
f 397/2/6 393/2/6 398/2/6
f 396/2/6 384/2/6 399/2/6
f 399/2/6 384/2/6 400/2/6
f 401/2/6 402/2/6 403/2/6
f 403/2/6 402/2/6 404/2/6
