# MagicaVoxel @ Ephtracy

# group
g DoorNoWindows

# material
mtllib DoorNoWindows.mtl
usemtl palette

# normals
vn -1 0 0
vn 1 0 0
vn 0 0 1
vn 0 0 -1
vn 0 -1 0
vn 0 1 0

# texcoords
vt 0.310547 0.5
vt 0.373047 0.5
vt 0.962891 0.5
vt 0.978516 0.5

# verts
v -20 0 6
v -20 0 -6
v -20 2 6
v -20 2 -6
v -20 8 6
v -20 8 -6
v -20 40 6
v -20 40 -6
v -19 40 5
v -19 40 -5
v -19 41 5
v -19 41 -5
v -17 41 2
v -17 41 -2
v -17 60 2
v -17 60 -2
v -12 21 3
v -12 21 2
v -12 21 -2
v -12 21 -3
v -12 24 3
v -12 24 2
v -12 24 -2
v -12 24 -3
v -11 22 5
v -11 22 3
v -11 22 -3
v -11 22 -5
v -11 23 5
v -11 23 3
v -11 23 -3
v -11 23 -5
v -6 40 3
v -6 40 2
v -6 45 3
v -6 45 2
v 17 0 3
v 17 0 2
v 17 0 -2
v 17 0 -3
v 17 41 3
v 17 41 2
v 17 41 -2
v 17 41 -3
v 18 0 5
v 18 0 3
v 18 0 -3
v 18 0 -4
v 18 1 -4
v 18 1 -5
v 18 41 5
v 18 41 3
v 18 41 -3
v 18 41 -5
v 19 0 6
v 19 0 5
v 19 0 -4
v 19 0 -6
v 19 1 -4
v 19 1 -5
v 19 2 6
v 19 2 5
v 19 2 -5
v 19 2 -6
v 19 8 6
v 19 8 5
v 19 8 -5
v 19 8 -6
v 19 40 6
v 19 40 5
v 19 40 -5
v 19 40 -6
v -19 0 6
v -19 0 5
v -19 0 -5
v -19 0 -6
v -19 2 6
v -19 2 5
v -19 2 -5
v -19 2 -6
v -19 8 6
v -19 8 5
v -19 8 -5
v -19 8 -6
v -19 40 6
v -19 40 5
v -19 40 -5
v -19 40 -6
v -18 0 5
v -18 0 3
v -18 0 -3
v -18 0 -5
v -18 41 5
v -18 41 3
v -18 41 -3
v -18 41 -5
v -17 0 3
v -17 0 2
v -17 0 -2
v -17 0 -3
v -17 41 3
v -17 41 2
v -17 41 -2
v -17 41 -3
v -10 22 4
v -10 22 3
v -10 22 -3
v -10 22 -4
v -10 23 4
v -10 23 3
v -10 23 -3
v -10 23 -4
v -9 21 3
v -9 21 2
v -9 21 -2
v -9 21 -3
v -9 24 3
v -9 24 2
v -9 24 -2
v -9 24 -3
v -5 22 5
v -5 22 4
v -5 22 -4
v -5 22 -5
v -5 23 5
v -5 23 4
v -5 23 -4
v -5 23 -5
v 6 40 3
v 6 40 2
v 6 45 3
v 6 45 2
v 17 41 2
v 17 41 -2
v 17 60 2
v 17 60 -2
v 19 40 5
v 19 40 -5
v 19 41 5
v 19 41 -5
v 20 0 6
v 20 0 -6
v 20 2 6
v 20 2 -6
v 20 8 6
v 20 8 -6
v 20 40 6
v 20 40 -6
v -20 0 6
v -20 2 6
v -20 8 6
v -20 40 6
v -19 0 6
v -19 2 6
v -19 8 6
v -19 40 6
v 19 0 6
v 19 2 6
v 19 8 6
v 19 40 6
v 20 0 6
v 20 2 6
v 20 8 6
v 20 40 6
v -19 0 5
v -19 2 5
v -19 8 5
v -19 40 5
v -19 41 5
v -18 0 5
v -18 41 5
v -11 22 5
v -11 23 5
v -5 22 5
v -5 23 5
v 18 0 5
v 18 41 5
v 19 0 5
v 19 2 5
v 19 8 5
v 19 40 5
v 19 41 5
v -18 0 3
v -18 41 3
v -17 0 3
v -17 41 3
v -12 21 3
v -12 24 3
v -11 22 3
v -11 23 3
v -10 22 3
v -10 23 3
v -9 21 3
v -9 24 3
v -6 40 3
v -6 45 3
v 6 40 3
v 6 45 3
v 17 0 3
v 17 41 3
v 18 0 3
v 18 41 3
v -17 0 2
v -17 41 2
v -17 60 2
v -12 21 2
v -12 24 2
v -9 21 2
v -9 24 2
v -6 40 2
v -6 45 2
v 6 40 2
v 6 45 2
v 17 0 2
v 17 41 2
v 17 60 2
v -10 22 -4
v -10 23 -4
v -5 22 -4
v -5 23 -4
v -10 22 4
v -10 23 4
v -5 22 4
v -5 23 4
v -17 0 -2
v -17 41 -2
v -17 60 -2
v -12 21 -2
v -12 24 -2
v -9 21 -2
v -9 24 -2
v 17 0 -2
v 17 41 -2
v 17 60 -2
v -18 0 -3
v -18 41 -3
v -17 0 -3
v -17 41 -3
v -12 21 -3
v -12 24 -3
v -11 22 -3
v -11 23 -3
v -10 22 -3
v -10 23 -3
v -9 21 -3
v -9 24 -3
v 17 0 -3
v 17 41 -3
v 18 0 -3
v 18 41 -3
v 18 0 -4
v 18 1 -4
v 19 0 -4
v 19 1 -4
v -19 0 -5
v -19 2 -5
v -19 8 -5
v -19 40 -5
v -19 41 -5
v -18 0 -5
v -18 41 -5
v -11 22 -5
v -11 23 -5
v -5 22 -5
v -5 23 -5
v 18 1 -5
v 18 41 -5
v 19 1 -5
v 19 2 -5
v 19 8 -5
v 19 40 -5
v 19 41 -5
v -20 0 -6
v -20 2 -6
v -20 8 -6
v -20 40 -6
v -19 0 -6
v -19 2 -6
v -19 8 -6
v -19 40 -6
v 19 0 -6
v 19 2 -6
v 19 8 -6
v 19 40 -6
v 20 0 -6
v 20 2 -6
v 20 8 -6
v 20 40 -6
v -20 0 6
v -19 0 6
v 19 0 6
v 20 0 6
v -19 0 5
v -18 0 5
v 18 0 5
v 19 0 5
v -18 0 3
v -17 0 3
v 17 0 3
v 18 0 3
v -17 0 2
v 17 0 2
v -17 0 -2
v 17 0 -2
v -18 0 -3
v -17 0 -3
v 17 0 -3
v 18 0 -3
v 18 0 -4
v 19 0 -4
v -19 0 -5
v -18 0 -5
v -20 0 -6
v -19 0 -6
v 19 0 -6
v 20 0 -6
v 18 1 -4
v 19 1 -4
v 18 1 -5
v 19 1 -5
v -12 21 3
v -9 21 3
v -12 21 2
v -9 21 2
v -12 21 -2
v -9 21 -2
v -12 21 -3
v -9 21 -3
v -11 22 5
v -5 22 5
v -10 22 4
v -5 22 4
v -11 22 3
v -10 22 3
v -11 22 -3
v -10 22 -3
v -10 22 -4
v -5 22 -4
v -11 22 -5
v -5 22 -5
v -6 40 3
v 6 40 3
v -6 40 2
v 6 40 2
v -11 23 5
v -5 23 5
v -10 23 4
v -5 23 4
v -11 23 3
v -10 23 3
v -11 23 -3
v -10 23 -3
v -10 23 -4
v -5 23 -4
v -11 23 -5
v -5 23 -5
v -12 24 3
v -9 24 3
v -12 24 2
v -9 24 2
v -12 24 -2
v -9 24 -2
v -12 24 -3
v -9 24 -3
v -20 40 6
v -19 40 6
v 19 40 6
v 20 40 6
v -19 40 5
v 19 40 5
v -19 40 -5
v 19 40 -5
v -20 40 -6
v -19 40 -6
v 19 40 -6
v 20 40 -6
v -19 41 5
v -18 41 5
v 18 41 5
v 19 41 5
v -18 41 3
v -17 41 3
v 17 41 3
v 18 41 3
v -17 41 2
v 17 41 2
v -17 41 -2
v 17 41 -2
v -18 41 -3
v -17 41 -3
v 17 41 -3
v 18 41 -3
v -19 41 -5
v -18 41 -5
v 18 41 -5
v 19 41 -5
v -6 45 3
v 6 45 3
v -6 45 2
v 6 45 2
v -17 60 2
v 17 60 2
v -17 60 -2
v 17 60 -2

# faces
f 3/1/1 2/1/1 1/1/1
f 4/1/1 2/1/1 3/1/1
f 5/4/1 4/4/1 3/4/1
f 6/4/1 4/4/1 5/4/1
f 7/1/1 6/1/1 5/1/1
f 8/1/1 6/1/1 7/1/1
f 11/2/1 10/2/1 9/2/1
f 12/2/1 10/2/1 11/2/1
f 15/2/1 14/2/1 13/2/1
f 16/2/1 14/2/1 15/2/1
f 21/4/1 18/4/1 17/4/1
f 22/4/1 18/4/1 21/4/1
f 23/4/1 20/4/1 19/4/1
f 24/4/1 20/4/1 23/4/1
f 29/4/1 26/4/1 25/4/1
f 30/4/1 26/4/1 29/4/1
f 31/4/1 28/4/1 27/4/1
f 32/4/1 28/4/1 31/4/1
f 35/3/1 34/3/1 33/3/1
f 36/3/1 34/3/1 35/3/1
f 41/2/1 38/2/1 37/2/1
f 42/2/1 38/2/1 41/2/1
f 43/2/1 40/2/1 39/2/1
f 44/2/1 40/2/1 43/2/1
f 49/2/1 48/2/1 47/2/1
f 51/2/1 46/2/1 45/2/1
f 52/2/1 46/2/1 51/2/1
f 53/2/1 50/2/1 49/2/1
f 53/2/1 49/2/1 47/2/1
f 54/2/1 50/2/1 53/2/1
f 59/1/1 58/1/1 57/1/1
f 60/1/1 58/1/1 59/1/1
f 61/1/1 56/1/1 55/1/1
f 62/1/1 56/1/1 61/1/1
f 63/1/1 58/1/1 60/1/1
f 64/1/1 58/1/1 63/1/1
f 65/4/1 62/4/1 61/4/1
f 66/4/1 62/4/1 65/4/1
f 67/4/1 64/4/1 63/4/1
f 68/4/1 64/4/1 67/4/1
f 69/1/1 66/1/1 65/1/1
f 70/1/1 66/1/1 69/1/1
f 71/1/1 68/1/1 67/1/1
f 72/1/1 68/1/1 71/1/1
f 73/1/2 74/1/2 77/1/2
f 77/1/2 74/1/2 78/1/2
f 75/1/2 76/1/2 79/1/2
f 79/1/2 76/1/2 80/1/2
f 77/4/2 78/4/2 81/4/2
f 81/4/2 78/4/2 82/4/2
f 79/4/2 80/4/2 83/4/2
f 83/4/2 80/4/2 84/4/2
f 81/1/2 82/1/2 85/1/2
f 85/1/2 82/1/2 86/1/2
f 83/1/2 84/1/2 87/1/2
f 87/1/2 84/1/2 88/1/2
f 89/2/2 90/2/2 93/2/2
f 93/2/2 90/2/2 94/2/2
f 91/2/2 92/2/2 95/2/2
f 95/2/2 92/2/2 96/2/2
f 97/2/2 98/2/2 101/2/2
f 101/2/2 98/2/2 102/2/2
f 99/2/2 100/2/2 103/2/2
f 103/2/2 100/2/2 104/2/2
f 105/4/2 106/4/2 109/4/2
f 109/4/2 106/4/2 110/4/2
f 107/4/2 108/4/2 111/4/2
f 111/4/2 108/4/2 112/4/2
f 113/4/2 114/4/2 117/4/2
f 117/4/2 114/4/2 118/4/2
f 115/4/2 116/4/2 119/4/2
f 119/4/2 116/4/2 120/4/2
f 121/4/2 122/4/2 125/4/2
f 125/4/2 122/4/2 126/4/2
f 123/4/2 124/4/2 127/4/2
f 127/4/2 124/4/2 128/4/2
f 129/3/2 130/3/2 131/3/2
f 131/3/2 130/3/2 132/3/2
f 133/2/2 134/2/2 135/2/2
f 135/2/2 134/2/2 136/2/2
f 137/2/2 138/2/2 139/2/2
f 139/2/2 138/2/2 140/2/2
f 141/1/2 142/1/2 143/1/2
f 143/1/2 142/1/2 144/1/2
f 143/4/2 144/4/2 145/4/2
f 145/4/2 144/4/2 146/4/2
f 145/1/2 146/1/2 147/1/2
f 147/1/2 146/1/2 148/1/2
f 153/1/3 150/1/3 149/1/3
f 154/4/3 151/4/3 150/4/3
f 154/1/3 150/1/3 153/1/3
f 155/1/3 152/1/3 151/1/3
f 155/4/3 151/4/3 154/4/3
f 156/1/3 152/1/3 155/1/3
f 161/1/3 158/1/3 157/1/3
f 162/4/3 159/4/3 158/4/3
f 162/1/3 158/1/3 161/1/3
f 163/1/3 160/1/3 159/1/3
f 163/4/3 159/4/3 162/4/3
f 164/1/3 160/1/3 163/1/3
f 170/2/3 166/2/3 165/2/3
f 170/2/3 169/2/3 168/2/3
f 170/2/3 168/2/3 167/2/3
f 170/2/3 167/2/3 166/2/3
f 171/2/3 169/2/3 170/2/3
f 174/4/3 173/4/3 172/4/3
f 175/4/3 173/4/3 174/4/3
f 178/2/3 177/2/3 176/2/3
f 179/2/3 177/2/3 178/2/3
f 180/2/3 177/2/3 179/2/3
f 181/2/3 177/2/3 180/2/3
f 182/2/3 177/2/3 181/2/3
f 185/2/3 184/2/3 183/2/3
f 186/2/3 184/2/3 185/2/3
f 189/4/3 188/4/3 187/4/3
f 190/4/3 188/4/3 189/4/3
f 191/4/3 189/4/3 187/4/3
f 192/4/3 188/4/3 190/4/3
f 193/4/3 191/4/3 187/4/3
f 193/4/3 192/4/3 191/4/3
f 194/4/3 188/4/3 192/4/3
f 194/4/3 192/4/3 193/4/3
f 197/3/3 196/3/3 195/3/3
f 198/3/3 196/3/3 197/3/3
f 201/2/3 200/2/3 199/2/3
f 202/2/3 200/2/3 201/2/3
f 206/2/3 204/2/3 203/2/3
f 206/2/3 205/2/3 204/2/3
f 207/2/3 205/2/3 206/2/3
f 208/2/3 206/2/3 203/2/3
f 209/2/3 205/2/3 207/2/3
f 210/2/3 205/2/3 209/2/3
f 210/2/3 209/2/3 208/2/3
f 211/2/3 205/2/3 210/2/3
f 212/2/3 210/2/3 208/2/3
f 213/2/3 205/2/3 211/2/3
f 214/2/3 208/2/3 203/2/3
f 214/2/3 213/2/3 212/2/3
f 214/2/3 212/2/3 208/2/3
f 215/2/3 213/2/3 214/2/3
f 216/2/3 205/2/3 213/2/3
f 216/2/3 213/2/3 215/2/3
f 219/4/3 218/4/3 217/4/3
f 220/4/3 218/4/3 219/4/3
f 221/4/4 222/4/4 223/4/4
f 223/4/4 222/4/4 224/4/4
f 225/2/4 226/2/4 228/2/4
f 226/2/4 227/2/4 228/2/4
f 228/2/4 227/2/4 229/2/4
f 225/2/4 228/2/4 230/2/4
f 229/2/4 227/2/4 231/2/4
f 225/2/4 230/2/4 232/2/4
f 230/2/4 231/2/4 232/2/4
f 231/2/4 227/2/4 233/2/4
f 232/2/4 231/2/4 233/2/4
f 233/2/4 227/2/4 234/2/4
f 235/2/4 236/2/4 237/2/4
f 237/2/4 236/2/4 238/2/4
f 239/4/4 240/4/4 241/4/4
f 241/4/4 240/4/4 242/4/4
f 239/4/4 241/4/4 243/4/4
f 242/4/4 240/4/4 244/4/4
f 239/4/4 243/4/4 245/4/4
f 243/4/4 244/4/4 245/4/4
f 244/4/4 240/4/4 246/4/4
f 245/4/4 244/4/4 246/4/4
f 247/2/4 248/2/4 249/2/4
f 249/2/4 248/2/4 250/2/4
f 251/2/4 252/2/4 253/2/4
f 253/2/4 252/2/4 254/2/4
f 255/2/4 256/2/4 260/2/4
f 258/2/4 259/2/4 260/2/4
f 257/2/4 258/2/4 260/2/4
f 256/2/4 257/2/4 260/2/4
f 260/2/4 259/2/4 261/2/4
f 262/4/4 263/4/4 264/4/4
f 264/4/4 263/4/4 265/4/4
f 266/2/4 267/2/4 268/2/4
f 268/2/4 267/2/4 269/2/4
f 269/2/4 267/2/4 270/2/4
f 270/2/4 267/2/4 271/2/4
f 271/2/4 267/2/4 272/2/4
f 273/1/4 274/1/4 277/1/4
f 274/4/4 275/4/4 278/4/4
f 277/1/4 274/1/4 278/1/4
f 275/1/4 276/1/4 279/1/4
f 278/4/4 275/4/4 279/4/4
f 279/1/4 276/1/4 280/1/4
f 281/1/4 282/1/4 285/1/4
f 282/4/4 283/4/4 286/4/4
f 285/1/4 282/1/4 286/1/4
f 283/1/4 284/1/4 287/1/4
f 286/4/4 283/4/4 287/4/4
f 287/1/4 284/1/4 288/1/4
f 293/1/5 290/1/5 289/1/5
f 296/1/5 292/1/5 291/1/5
f 297/2/5 294/2/5 293/2/5
f 300/2/5 296/2/5 295/2/5
f 301/2/5 298/2/5 297/2/5
f 302/2/5 300/2/5 299/2/5
f 303/2/5 301/2/5 297/2/5
f 303/2/5 302/2/5 301/2/5
f 304/2/5 300/2/5 302/2/5
f 304/2/5 302/2/5 303/2/5
f 305/2/5 303/2/5 297/2/5
f 305/2/5 297/2/5 293/2/5
f 306/2/5 303/2/5 305/2/5
f 307/2/5 300/2/5 304/2/5
f 308/2/5 296/2/5 300/2/5
f 308/2/5 300/2/5 307/2/5
f 309/2/5 296/2/5 308/2/5
f 310/1/5 292/1/5 296/1/5
f 310/2/5 296/2/5 309/2/5
f 311/2/5 305/2/5 293/2/5
f 311/1/5 293/1/5 289/1/5
f 312/2/5 305/2/5 311/2/5
f 313/1/5 311/1/5 289/1/5
f 314/1/5 311/1/5 313/1/5
f 315/1/5 292/1/5 310/1/5
f 316/1/5 292/1/5 315/1/5
f 319/2/5 318/2/5 317/2/5
f 320/2/5 318/2/5 319/2/5
f 323/4/5 322/4/5 321/4/5
f 324/4/5 322/4/5 323/4/5
f 327/4/5 326/4/5 325/4/5
f 328/4/5 326/4/5 327/4/5
f 331/4/5 330/4/5 329/4/5
f 332/4/5 330/4/5 331/4/5
f 333/4/5 331/4/5 329/4/5
f 334/4/5 331/4/5 333/4/5
f 337/4/5 336/4/5 335/4/5
f 339/4/5 337/4/5 335/4/5
f 339/4/5 338/4/5 337/4/5
f 340/4/5 338/4/5 339/4/5
f 343/3/5 342/3/5 341/3/5
f 344/3/5 342/3/5 343/3/5
f 345/4/6 346/4/6 347/4/6
f 347/4/6 346/4/6 348/4/6
f 345/4/6 347/4/6 349/4/6
f 349/4/6 347/4/6 350/4/6
f 351/4/6 352/4/6 353/4/6
f 351/4/6 353/4/6 355/4/6
f 353/4/6 354/4/6 355/4/6
f 355/4/6 354/4/6 356/4/6
f 357/4/6 358/4/6 359/4/6
f 359/4/6 358/4/6 360/4/6
f 361/4/6 362/4/6 363/4/6
f 363/4/6 362/4/6 364/4/6
f 365/1/6 366/1/6 369/1/6
f 367/1/6 368/1/6 370/1/6
f 365/1/6 369/1/6 371/1/6
f 370/1/6 368/1/6 372/1/6
f 365/1/6 371/1/6 373/1/6
f 373/1/6 371/1/6 374/1/6
f 372/1/6 368/1/6 375/1/6
f 375/1/6 368/1/6 376/1/6
f 377/2/6 378/2/6 381/2/6
f 379/2/6 380/2/6 384/2/6
f 381/2/6 382/2/6 385/2/6
f 383/2/6 384/2/6 386/2/6
f 381/2/6 385/2/6 387/2/6
f 386/2/6 384/2/6 388/2/6
f 381/2/6 387/2/6 389/2/6
f 377/2/6 381/2/6 389/2/6
f 389/2/6 387/2/6 390/2/6
f 388/2/6 384/2/6 391/2/6
f 384/2/6 380/2/6 392/2/6
f 391/2/6 384/2/6 392/2/6
f 377/2/6 389/2/6 393/2/6
f 393/2/6 389/2/6 394/2/6
f 392/2/6 380/2/6 395/2/6
f 395/2/6 380/2/6 396/2/6
f 397/3/6 398/3/6 399/3/6
f 399/3/6 398/3/6 400/3/6
f 401/2/6 402/2/6 403/2/6
f 403/2/6 402/2/6 404/2/6
