# MagicaVoxel @ Ephtracy

# group
g DoubleDoorOpen

# material
mtllib DoubleDoorOpen.mtl
usemtl palette

# normals
vn -1 0 0
vn 1 0 0
vn 0 0 1
vn 0 0 -1
vn 0 -1 0
vn 0 1 0

# texcoords
vt 0.310547 0.5
vt 0.970703 0.5
vt 0.978516 0.5

# verts
v -40 0 6
v -40 0 -6
v -40 2 6
v -40 2 -6
v -40 8 6
v -40 8 -6
v -40 40 6
v -40 40 -6
v -33 40 3
v -33 40 -3
v -33 41 3
v -33 41 -3
v 32 0 3
v 32 0 -3
v 32 41 3
v 32 41 -3
v 33 0 5
v 33 0 3
v 33 0 -3
v 33 0 -5
v 33 40 5
v 33 40 3
v 33 40 -3
v 33 40 -5
v 34 0 6
v 34 0 5
v 34 0 -5
v 34 0 -6
v 34 2 6
v 34 2 5
v 34 2 -5
v 34 2 -6
v 34 8 6
v 34 8 5
v 34 8 -5
v 34 8 -6
v 34 40 6
v 34 40 5
v 34 40 -5
v 34 40 -6
v -34 0 6
v -34 0 5
v -34 0 -5
v -34 0 -6
v -34 2 6
v -34 2 5
v -34 2 -5
v -34 2 -6
v -34 8 6
v -34 8 5
v -34 8 -5
v -34 8 -6
v -34 40 6
v -34 40 5
v -34 40 -5
v -34 40 -6
v -33 0 5
v -33 0 3
v -33 0 -3
v -33 0 -5
v -33 40 5
v -33 40 3
v -33 40 -3
v -33 40 -5
v -32 0 3
v -32 0 -3
v -32 41 3
v -32 41 -3
v 33 40 3
v 33 40 -3
v 33 41 3
v 33 41 -3
v 40 0 6
v 40 0 -6
v 40 2 6
v 40 2 -6
v 40 8 6
v 40 8 -6
v 40 40 6
v 40 40 -6
v -40 0 6
v -40 2 6
v -40 8 6
v -40 40 6
v -34 0 6
v -34 2 6
v -34 8 6
v -34 40 6
v 34 0 6
v 34 2 6
v 34 8 6
v 34 40 6
v 40 0 6
v 40 2 6
v 40 8 6
v 40 40 6
v -34 0 5
v -34 2 5
v -34 8 5
v -34 40 5
v -33 0 5
v -33 40 5
v 33 0 5
v 33 40 5
v 34 0 5
v 34 2 5
v 34 8 5
v 34 40 5
v -33 0 3
v -33 40 3
v -33 41 3
v -32 0 3
v -32 41 3
v 32 0 3
v 32 41 3
v 33 0 3
v 33 40 3
v 33 41 3
v -33 0 -3
v -33 40 -3
v -33 41 -3
v -32 0 -3
v -32 41 -3
v 32 0 -3
v 32 41 -3
v 33 0 -3
v 33 40 -3
v 33 41 -3
v -34 0 -5
v -34 2 -5
v -34 8 -5
v -34 40 -5
v -33 0 -5
v -33 40 -5
v 33 0 -5
v 33 40 -5
v 34 0 -5
v 34 2 -5
v 34 8 -5
v 34 40 -5
v -40 0 -6
v -40 2 -6
v -40 8 -6
v -40 40 -6
v -34 0 -6
v -34 2 -6
v -34 8 -6
v -34 40 -6
v 34 0 -6
v 34 2 -6
v 34 8 -6
v 34 40 -6
v 40 0 -6
v 40 2 -6
v 40 8 -6
v 40 40 -6
v -40 0 6
v -34 0 6
v 34 0 6
v 40 0 6
v -34 0 5
v -33 0 5
v 33 0 5
v 34 0 5
v -33 0 3
v -32 0 3
v 32 0 3
v 33 0 3
v -33 0 -3
v -32 0 -3
v 32 0 -3
v 33 0 -3
v -34 0 -5
v -33 0 -5
v 33 0 -5
v 34 0 -5
v -40 0 -6
v -34 0 -6
v 34 0 -6
v 40 0 -6
v -40 40 6
v -34 40 6
v 34 40 6
v 40 40 6
v -34 40 5
v -33 40 5
v 33 40 5
v 34 40 5
v -33 40 3
v 33 40 3
v -33 40 -3
v 33 40 -3
v -34 40 -5
v -33 40 -5
v 33 40 -5
v 34 40 -5
v -40 40 -6
v -34 40 -6
v 34 40 -6
v 40 40 -6
v -33 41 3
v -32 41 3
v 32 41 3
v 33 41 3
v -33 41 -3
v -32 41 -3
v 32 41 -3
v 33 41 -3

# faces
f 3/1/1 2/1/1 1/1/1
f 4/1/1 2/1/1 3/1/1
f 5/3/1 4/3/1 3/3/1
f 6/3/1 4/3/1 5/3/1
f 7/1/1 6/1/1 5/1/1
f 8/1/1 6/1/1 7/1/1
f 11/2/1 10/2/1 9/2/1
f 12/2/1 10/2/1 11/2/1
f 15/2/1 14/2/1 13/2/1
f 16/2/1 14/2/1 15/2/1
f 21/2/1 18/2/1 17/2/1
f 22/2/1 18/2/1 21/2/1
f 23/2/1 20/2/1 19/2/1
f 24/2/1 20/2/1 23/2/1
f 29/1/1 26/1/1 25/1/1
f 30/1/1 26/1/1 29/1/1
f 31/1/1 28/1/1 27/1/1
f 32/1/1 28/1/1 31/1/1
f 33/3/1 30/3/1 29/3/1
f 34/3/1 30/3/1 33/3/1
f 35/3/1 32/3/1 31/3/1
f 36/3/1 32/3/1 35/3/1
f 37/1/1 34/1/1 33/1/1
f 38/1/1 34/1/1 37/1/1
f 39/1/1 36/1/1 35/1/1
f 40/1/1 36/1/1 39/1/1
f 41/1/2 42/1/2 45/1/2
f 45/1/2 42/1/2 46/1/2
f 43/1/2 44/1/2 47/1/2
f 47/1/2 44/1/2 48/1/2
f 45/3/2 46/3/2 49/3/2
f 49/3/2 46/3/2 50/3/2
f 47/3/2 48/3/2 51/3/2
f 51/3/2 48/3/2 52/3/2
f 49/1/2 50/1/2 53/1/2
f 53/1/2 50/1/2 54/1/2
f 51/1/2 52/1/2 55/1/2
f 55/1/2 52/1/2 56/1/2
f 57/2/2 58/2/2 61/2/2
f 61/2/2 58/2/2 62/2/2
f 59/2/2 60/2/2 63/2/2
f 63/2/2 60/2/2 64/2/2
f 65/2/2 66/2/2 67/2/2
f 67/2/2 66/2/2 68/2/2
f 69/2/2 70/2/2 71/2/2
f 71/2/2 70/2/2 72/2/2
f 73/1/2 74/1/2 75/1/2
f 75/1/2 74/1/2 76/1/2
f 75/3/2 76/3/2 77/3/2
f 77/3/2 76/3/2 78/3/2
f 77/1/2 78/1/2 79/1/2
f 79/1/2 78/1/2 80/1/2
f 85/1/3 82/1/3 81/1/3
f 86/3/3 83/3/3 82/3/3
f 86/1/3 82/1/3 85/1/3
f 87/1/3 84/1/3 83/1/3
f 87/3/3 83/3/3 86/3/3
f 88/1/3 84/1/3 87/1/3
f 93/1/3 90/1/3 89/1/3
f 94/3/3 91/3/3 90/3/3
f 94/1/3 90/1/3 93/1/3
f 95/1/3 92/1/3 91/1/3
f 95/3/3 91/3/3 94/3/3
f 96/1/3 92/1/3 95/1/3
f 101/2/3 98/2/3 97/2/3
f 101/2/3 100/2/3 99/2/3
f 101/2/3 99/2/3 98/2/3
f 102/2/3 100/2/3 101/2/3
f 105/2/3 104/2/3 103/2/3
f 106/2/3 104/2/3 105/2/3
f 107/2/3 104/2/3 106/2/3
f 108/2/3 104/2/3 107/2/3
f 112/2/3 110/2/3 109/2/3
f 112/2/3 111/2/3 110/2/3
f 113/2/3 111/2/3 112/2/3
f 116/2/3 115/2/3 114/2/3
f 117/2/3 115/2/3 116/2/3
f 118/2/3 115/2/3 117/2/3
f 119/2/4 120/2/4 122/2/4
f 120/2/4 121/2/4 122/2/4
f 122/2/4 121/2/4 123/2/4
f 124/2/4 125/2/4 126/2/4
f 126/2/4 125/2/4 127/2/4
f 127/2/4 125/2/4 128/2/4
f 129/2/4 130/2/4 133/2/4
f 131/2/4 132/2/4 133/2/4
f 130/2/4 131/2/4 133/2/4
f 133/2/4 132/2/4 134/2/4
f 135/2/4 136/2/4 137/2/4
f 137/2/4 136/2/4 138/2/4
f 138/2/4 136/2/4 139/2/4
f 139/2/4 136/2/4 140/2/4
f 141/1/4 142/1/4 145/1/4
f 142/3/4 143/3/4 146/3/4
f 145/1/4 142/1/4 146/1/4
f 143/1/4 144/1/4 147/1/4
f 146/3/4 143/3/4 147/3/4
f 147/1/4 144/1/4 148/1/4
f 149/1/4 150/1/4 153/1/4
f 150/3/4 151/3/4 154/3/4
f 153/1/4 150/1/4 154/1/4
f 151/1/4 152/1/4 155/1/4
f 154/3/4 151/3/4 155/3/4
f 155/1/4 152/1/4 156/1/4
f 161/1/5 158/1/5 157/1/5
f 164/1/5 160/1/5 159/1/5
f 165/2/5 162/2/5 161/2/5
f 168/2/5 164/2/5 163/2/5
f 169/2/5 166/2/5 165/2/5
f 169/2/5 165/2/5 161/2/5
f 170/2/5 166/2/5 169/2/5
f 171/2/5 168/2/5 167/2/5
f 172/2/5 164/2/5 168/2/5
f 172/2/5 168/2/5 171/2/5
f 173/1/5 161/1/5 157/1/5
f 173/2/5 169/2/5 161/2/5
f 174/2/5 169/2/5 173/2/5
f 175/2/5 164/2/5 172/2/5
f 176/1/5 160/1/5 164/1/5
f 176/2/5 164/2/5 175/2/5
f 177/1/5 173/1/5 157/1/5
f 178/1/5 173/1/5 177/1/5
f 179/1/5 160/1/5 176/1/5
f 180/1/5 160/1/5 179/1/5
f 181/1/6 182/1/6 185/1/6
f 183/1/6 184/1/6 188/1/6
f 185/2/6 186/2/6 189/2/6
f 187/2/6 188/2/6 190/2/6
f 185/2/6 189/2/6 191/2/6
f 190/2/6 188/2/6 192/2/6
f 185/2/6 191/2/6 193/2/6
f 181/1/6 185/1/6 193/1/6
f 193/2/6 191/2/6 194/2/6
f 192/2/6 188/2/6 195/2/6
f 188/1/6 184/1/6 196/1/6
f 195/2/6 188/2/6 196/2/6
f 181/1/6 193/1/6 197/1/6
f 197/1/6 193/1/6 198/1/6
f 196/1/6 184/1/6 199/1/6
f 199/1/6 184/1/6 200/1/6
f 201/2/6 202/2/6 205/2/6
f 205/2/6 202/2/6 206/2/6
f 203/2/6 204/2/6 207/2/6
f 207/2/6 204/2/6 208/2/6
