# MagicaVoxel @ Ephtracy

# group
g bloodbag

# material
mtllib bloodbag.mtl
usemtl palette

# normals
vn -1 0 0
vn 1 0 0
vn 0 0 1
vn 0 0 -1
vn 0 -1 0
vn 0 1 0

# texcoords
vt 0.849609 0.5
vt 0.958984 0.5
vt 0.962891 0.5

# verts
v -11 1 16
v -11 1 -12
v -11 2 17
v -11 2 16
v -11 2 -12
v -11 2 -15
v -11 3 17
v -11 3 16
v -11 3 -12
v -11 3 -15
v -11 4 16
v -11 4 -12
v -10 0 15
v -10 0 -14
v -10 1 17
v -10 1 16
v -10 1 15
v -10 1 -12
v -10 1 -14
v -10 1 -15
v -10 2 17
v -10 2 16
v -10 2 -12
v -10 2 -15
v -10 2 -16
v -10 3 17
v -10 3 16
v -10 3 -12
v -10 3 -15
v -10 3 -16
v -10 4 17
v -10 4 16
v -10 4 15
v -10 4 -11
v -10 4 -12
v -10 4 -15
v -10 5 15
v -10 5 -11
v -9 0 16
v -9 0 15
v -9 0 -14
v -9 0 -15
v -9 1 16
v -9 1 15
v -9 1 -14
v -9 1 -15
v -9 1 -16
v -9 2 -15
v -9 2 -16
v -9 3 -15
v -9 3 -16
v -9 4 16
v -9 4 15
v -9 4 -11
v -9 4 -14
v -9 4 -15
v -9 4 -16
v -9 5 16
v -9 5 15
v -9 5 -11
v -9 5 -14
v -8 0 -15
v -8 0 -16
v -8 1 -15
v -8 1 -16
v -8 2 -16
v -8 2 -17
v -8 3 -16
v -8 3 -17
v -8 4 -14
v -8 4 -15
v -8 5 13
v -8 5 -9
v -8 5 -14
v -8 5 -15
v -8 6 13
v -8 6 -9
v -7 1 -16
v -7 1 -17
v -7 2 -16
v -7 2 -17
v -7 3 -16
v -7 3 -17
v -7 4 -16
v -7 4 -17
v -7 5 14
v -7 5 13
v -7 5 -9
v -7 5 -12
v -7 6 14
v -7 6 13
v -7 6 -9
v -7 6 -12
v -6 4 -15
v -6 4 -16
v -6 5 -12
v -6 5 -13
v -6 5 -15
v -6 5 -16
v -6 6 -12
v -6 6 -13
v -5 5 -13
v -5 5 -14
v -5 6 -13
v -5 6 -14
v 5 5 -13
v 5 5 -14
v 5 6 -13
v 5 6 -14
v 6 4 -15
v 6 4 -16
v 6 5 -12
v 6 5 -13
v 6 5 -15
v 6 5 -16
v 6 6 -12
v 6 6 -13
v 7 1 -16
v 7 1 -17
v 7 2 -16
v 7 2 -17
v 7 3 -16
v 7 3 -17
v 7 4 -16
v 7 4 -17
v 7 5 14
v 7 5 13
v 7 5 -9
v 7 5 -12
v 7 6 14
v 7 6 13
v 7 6 -9
v 7 6 -12
v 8 0 -15
v 8 0 -16
v 8 1 -15
v 8 1 -16
v 8 2 -16
v 8 2 -17
v 8 3 -16
v 8 3 -17
v 8 4 -14
v 8 4 -15
v 8 5 13
v 8 5 -9
v 8 5 -14
v 8 5 -15
v 8 6 13
v 8 6 -9
v 9 0 16
v 9 0 15
v 9 0 -14
v 9 0 -15
v 9 1 16
v 9 1 15
v 9 1 -14
v 9 1 -15
v 9 1 -16
v 9 2 -15
v 9 2 -16
v 9 3 -15
v 9 3 -16
v 9 4 16
v 9 4 15
v 9 4 -11
v 9 4 -14
v 9 4 -15
v 9 4 -16
v 9 5 16
v 9 5 15
v 9 5 -11
v 9 5 -14
v 10 0 15
v 10 0 -14
v 10 1 17
v 10 1 16
v 10 1 15
v 10 1 -12
v 10 1 -14
v 10 1 -15
v 10 2 17
v 10 2 16
v 10 2 -12
v 10 2 -15
v 10 2 -16
v 10 3 17
v 10 3 16
v 10 3 -12
v 10 3 -15
v 10 3 -16
v 10 4 17
v 10 4 16
v 10 4 15
v 10 4 -11
v 10 4 -12
v 10 4 -15
v 10 5 15
v 10 5 -11
v 11 1 16
v 11 1 -12
v 11 2 17
v 11 2 16
v 11 2 -12
v 11 2 -15
v 11 3 17
v 11 3 16
v 11 3 -12
v 11 3 -15
v 11 4 16
v 11 4 -12
v -11 2 17
v -11 3 17
v -10 1 17
v -10 2 17
v -10 3 17
v -10 4 17
v 10 1 17
v 10 2 17
v 10 3 17
v 10 4 17
v 11 2 17
v 11 3 17
v -11 1 16
v -11 2 16
v -11 3 16
v -11 4 16
v -10 1 16
v -10 2 16
v -10 3 16
v -10 4 16
v -9 0 16
v -9 1 16
v -9 4 16
v -9 5 16
v 9 0 16
v 9 1 16
v 9 4 16
v 9 5 16
v 10 1 16
v 10 2 16
v 10 3 16
v 10 4 16
v 11 1 16
v 11 2 16
v 11 3 16
v 11 4 16
v -10 0 15
v -10 1 15
v -10 4 15
v -10 5 15
v -9 0 15
v -9 1 15
v -9 4 15
v -9 5 15
v 9 0 15
v 9 1 15
v 9 4 15
v 9 5 15
v 10 0 15
v 10 1 15
v 10 4 15
v 10 5 15
v -7 5 14
v -7 6 14
v 7 5 14
v 7 6 14
v -8 5 13
v -8 6 13
v -7 5 13
v -7 6 13
v 7 5 13
v 7 6 13
v 8 5 13
v 8 6 13
v -8 5 -9
v -8 6 -9
v -7 5 -9
v -7 6 -9
v 7 5 -9
v 7 6 -9
v 8 5 -9
v 8 6 -9
v -10 4 -11
v -10 5 -11
v -9 4 -11
v -9 5 -11
v 9 4 -11
v 9 5 -11
v 10 4 -11
v 10 5 -11
v -11 1 -12
v -11 2 -12
v -11 3 -12
v -11 4 -12
v -10 1 -12
v -10 2 -12
v -10 3 -12
v -10 4 -12
v -7 5 -12
v -7 6 -12
v -6 5 -12
v -6 6 -12
v 6 5 -12
v 6 6 -12
v 7 5 -12
v 7 6 -12
v 10 1 -12
v 10 2 -12
v 10 3 -12
v 10 4 -12
v 11 1 -12
v 11 2 -12
v 11 3 -12
v 11 4 -12
v -6 5 -13
v -6 6 -13
v -5 5 -13
v -5 6 -13
v 5 5 -13
v 5 6 -13
v 6 5 -13
v 6 6 -13
v -10 0 -14
v -10 1 -14
v -9 0 -14
v -9 1 -14
v -9 4 -14
v -9 5 -14
v -8 4 -14
v -8 5 -14
v -5 5 -14
v -5 6 -14
v 5 5 -14
v 5 6 -14
v 8 4 -14
v 8 5 -14
v 9 0 -14
v 9 1 -14
v 9 4 -14
v 9 5 -14
v 10 0 -14
v 10 1 -14
v -11 2 -15
v -11 3 -15
v -10 1 -15
v -10 2 -15
v -10 3 -15
v -10 4 -15
v -9 0 -15
v -9 1 -15
v -9 2 -15
v -9 3 -15
v -9 4 -15
v -8 0 -15
v -8 1 -15
v -8 4 -15
v -8 5 -15
v -6 4 -15
v -6 5 -15
v 6 4 -15
v 6 5 -15
v 8 0 -15
v 8 1 -15
v 8 4 -15
v 8 5 -15
v 9 0 -15
v 9 1 -15
v 9 2 -15
v 9 3 -15
v 9 4 -15
v 10 1 -15
v 10 2 -15
v 10 3 -15
v 10 4 -15
v 11 2 -15
v 11 3 -15
v -10 2 -16
v -10 3 -16
v -9 1 -16
v -9 2 -16
v -9 3 -16
v -9 4 -16
v -8 0 -16
v -8 1 -16
v -8 2 -16
v -8 3 -16
v -7 1 -16
v -7 2 -16
v -7 3 -16
v -7 4 -16
v -6 4 -16
v -6 5 -16
v 6 4 -16
v 6 5 -16
v 7 1 -16
v 7 2 -16
v 7 3 -16
v 7 4 -16
v 8 0 -16
v 8 1 -16
v 8 2 -16
v 8 3 -16
v 9 1 -16
v 9 2 -16
v 9 3 -16
v 9 4 -16
v 10 2 -16
v 10 3 -16
v -8 2 -17
v -8 3 -17
v -7 1 -17
v -7 2 -17
v -7 3 -17
v -7 4 -17
v 7 1 -17
v 7 2 -17
v 7 3 -17
v 7 4 -17
v 8 2 -17
v 8 3 -17
v -9 0 16
v 9 0 16
v -10 0 15
v -9 0 15
v 9 0 15
v 10 0 15
v -10 0 -14
v -9 0 -14
v 9 0 -14
v 10 0 -14
v -9 0 -15
v -8 0 -15
v 8 0 -15
v 9 0 -15
v -8 0 -16
v 8 0 -16
v -10 1 17
v 10 1 17
v -11 1 16
v -10 1 16
v -9 1 16
v 9 1 16
v 10 1 16
v 11 1 16
v -10 1 15
v -9 1 15
v 9 1 15
v 10 1 15
v -11 1 -12
v -10 1 -12
v 10 1 -12
v 11 1 -12
v -10 1 -14
v -9 1 -14
v 9 1 -14
v 10 1 -14
v -10 1 -15
v -9 1 -15
v -8 1 -15
v 8 1 -15
v 9 1 -15
v 10 1 -15
v -9 1 -16
v -8 1 -16
v -7 1 -16
v 7 1 -16
v 8 1 -16
v 9 1 -16
v -7 1 -17
v 7 1 -17
v -11 2 17
v -10 2 17
v 10 2 17
v 11 2 17
v -11 2 16
v -10 2 16
v 10 2 16
v 11 2 16
v -11 2 -12
v -10 2 -12
v 10 2 -12
v 11 2 -12
v -11 2 -15
v -10 2 -15
v -9 2 -15
v 9 2 -15
v 10 2 -15
v 11 2 -15
v -10 2 -16
v -9 2 -16
v -8 2 -16
v -7 2 -16
v 7 2 -16
v 8 2 -16
v 9 2 -16
v 10 2 -16
v -8 2 -17
v -7 2 -17
v 7 2 -17
v 8 2 -17
v -11 3 17
v -10 3 17
v 10 3 17
v 11 3 17
v -11 3 16
v -10 3 16
v 10 3 16
v 11 3 16
v -11 3 -12
v -10 3 -12
v 10 3 -12
v 11 3 -12
v -11 3 -15
v -10 3 -15
v -9 3 -15
v 9 3 -15
v 10 3 -15
v 11 3 -15
v -10 3 -16
v -9 3 -16
v -8 3 -16
v -7 3 -16
v 7 3 -16
v 8 3 -16
v 9 3 -16
v 10 3 -16
v -8 3 -17
v -7 3 -17
v 7 3 -17
v 8 3 -17
v -10 4 17
v 10 4 17
v -11 4 16
v -10 4 16
v -9 4 16
v 9 4 16
v 10 4 16
v 11 4 16
v -10 4 15
v -9 4 15
v 9 4 15
v 10 4 15
v -10 4 -11
v -9 4 -11
v 9 4 -11
v 10 4 -11
v -11 4 -12
v -10 4 -12
v 10 4 -12
v 11 4 -12
v -9 4 -14
v -8 4 -14
v 8 4 -14
v 9 4 -14
v -10 4 -15
v -9 4 -15
v -8 4 -15
v -6 4 -15
v 6 4 -15
v 8 4 -15
v 9 4 -15
v 10 4 -15
v -9 4 -16
v -7 4 -16
v -6 4 -16
v 6 4 -16
v 7 4 -16
v 9 4 -16
v -7 4 -17
v 7 4 -17
v -9 5 16
v 9 5 16
v -10 5 15
v -9 5 15
v 9 5 15
v 10 5 15
v -7 5 14
v 7 5 14
v -8 5 13
v -7 5 13
v 7 5 13
v 8 5 13
v -8 5 -9
v -7 5 -9
v 7 5 -9
v 8 5 -9
v -10 5 -11
v -9 5 -11
v 9 5 -11
v 10 5 -11
v -7 5 -12
v -6 5 -12
v 6 5 -12
v 7 5 -12
v -6 5 -13
v -5 5 -13
v 5 5 -13
v 6 5 -13
v -9 5 -14
v -8 5 -14
v -5 5 -14
v 5 5 -14
v 8 5 -14
v 9 5 -14
v -8 5 -15
v -6 5 -15
v 6 5 -15
v 8 5 -15
v -6 5 -16
v 6 5 -16
v -7 6 14
v 7 6 14
v -8 6 13
v -7 6 13
v 7 6 13
v 8 6 13
v -6 6 1
v 6 6 1
v -7 6 -0
v -6 6 -0
v 6 6 -0
v 7 6 -0
v -4 6 -2
v 4 6 -2
v -4 6 -3
v 4 6 -3
v -5 6 -4
v 2 6 -4
v -5 6 -5
v 2 6 -5
v -5 6 -6
v 5 6 -6
v -5 6 -7
v 5 6 -7
v -7 6 -8
v -6 6 -8
v 6 6 -8
v 7 6 -8
v -8 6 -9
v -7 6 -9
v -6 6 -9
v 6 6 -9
v 7 6 -9
v 8 6 -9
v -7 6 -12
v -6 6 -12
v 6 6 -12
v 7 6 -12
v -6 6 -13
v -5 6 -13
v 5 6 -13
v 6 6 -13
v -5 6 -14
v 5 6 -14

# faces
f 4/3/1 2/3/1 1/3/1
f 5/3/1 2/3/1 4/3/1
f 7/3/1 4/3/1 3/3/1
f 7/3/1 6/3/1 5/3/1
f 7/3/1 5/3/1 4/3/1
f 8/3/1 6/3/1 7/3/1
f 9/3/1 6/3/1 8/3/1
f 10/3/1 6/3/1 9/3/1
f 11/3/1 9/3/1 8/3/1
f 12/3/1 9/3/1 11/3/1
f 17/1/1 14/1/1 13/1/1
f 18/1/1 14/1/1 17/1/1
f 19/1/1 14/1/1 18/1/1
f 21/3/1 16/3/1 15/3/1
f 22/3/1 16/3/1 21/3/1
f 23/3/1 20/3/1 19/3/1
f 23/3/1 19/3/1 18/3/1
f 24/3/1 20/3/1 23/3/1
f 29/3/1 25/3/1 24/3/1
f 30/3/1 25/3/1 29/3/1
f 31/3/1 27/3/1 26/3/1
f 32/3/1 27/3/1 31/3/1
f 35/3/1 29/3/1 28/3/1
f 36/3/1 29/3/1 35/3/1
f 37/1/1 34/1/1 33/1/1
f 38/1/1 34/1/1 37/1/1
f 43/1/1 40/1/1 39/1/1
f 44/1/1 40/1/1 43/1/1
f 45/1/1 42/1/1 41/1/1
f 46/1/1 42/1/1 45/1/1
f 48/3/1 47/3/1 46/3/1
f 49/3/1 47/3/1 48/3/1
f 56/3/1 51/3/1 50/3/1
f 57/3/1 51/3/1 56/3/1
f 58/1/1 53/1/1 52/1/1
f 59/1/1 53/1/1 58/1/1
f 60/1/1 55/1/1 54/1/1
f 61/1/1 55/1/1 60/1/1
f 64/1/1 63/1/1 62/1/1
f 65/1/1 63/1/1 64/1/1
f 68/3/1 67/3/1 66/3/1
f 69/3/1 67/3/1 68/3/1
f 74/1/1 71/1/1 70/1/1
f 75/1/1 71/1/1 74/1/1
f 76/1/1 73/1/1 72/1/1
f 77/1/1 73/1/1 76/1/1
f 80/3/1 79/3/1 78/3/1
f 81/3/1 79/3/1 80/3/1
f 84/3/1 83/3/1 82/3/1
f 85/3/1 83/3/1 84/3/1
f 90/1/1 87/1/1 86/1/1
f 91/1/1 87/1/1 90/1/1
f 92/1/1 89/1/1 88/1/1
f 93/1/1 89/1/1 92/1/1
f 98/1/1 95/1/1 94/1/1
f 99/1/1 95/1/1 98/1/1
f 100/1/1 97/1/1 96/1/1
f 101/1/1 97/1/1 100/1/1
f 104/1/1 103/1/1 102/1/1
f 105/1/1 103/1/1 104/1/1
f 106/1/2 107/1/2 108/1/2
f 108/1/2 107/1/2 109/1/2
f 110/1/2 111/1/2 114/1/2
f 114/1/2 111/1/2 115/1/2
f 112/1/2 113/1/2 116/1/2
f 116/1/2 113/1/2 117/1/2
f 118/3/2 119/3/2 120/3/2
f 120/3/2 119/3/2 121/3/2
f 122/3/2 123/3/2 124/3/2
f 124/3/2 123/3/2 125/3/2
f 126/1/2 127/1/2 130/1/2
f 130/1/2 127/1/2 131/1/2
f 128/1/2 129/1/2 132/1/2
f 132/1/2 129/1/2 133/1/2
f 134/1/2 135/1/2 136/1/2
f 136/1/2 135/1/2 137/1/2
f 138/3/2 139/3/2 140/3/2
f 140/3/2 139/3/2 141/3/2
f 142/1/2 143/1/2 146/1/2
f 146/1/2 143/1/2 147/1/2
f 144/1/2 145/1/2 148/1/2
f 148/1/2 145/1/2 149/1/2
f 150/1/2 151/1/2 154/1/2
f 154/1/2 151/1/2 155/1/2
f 152/1/2 153/1/2 156/1/2
f 156/1/2 153/1/2 157/1/2
f 157/3/2 158/3/2 159/3/2
f 159/3/2 158/3/2 160/3/2
f 161/3/2 162/3/2 167/3/2
f 167/3/2 162/3/2 168/3/2
f 163/1/2 164/1/2 169/1/2
f 169/1/2 164/1/2 170/1/2
f 165/1/2 166/1/2 171/1/2
f 171/1/2 166/1/2 172/1/2
f 173/1/2 174/1/2 177/1/2
f 177/1/2 174/1/2 178/1/2
f 178/1/2 174/1/2 179/1/2
f 175/3/2 176/3/2 181/3/2
f 181/3/2 176/3/2 182/3/2
f 179/3/2 180/3/2 183/3/2
f 178/3/2 179/3/2 183/3/2
f 183/3/2 180/3/2 184/3/2
f 184/3/2 185/3/2 189/3/2
f 189/3/2 185/3/2 190/3/2
f 186/3/2 187/3/2 191/3/2
f 191/3/2 187/3/2 192/3/2
f 188/3/2 189/3/2 195/3/2
f 195/3/2 189/3/2 196/3/2
f 193/1/2 194/1/2 197/1/2
f 197/1/2 194/1/2 198/1/2
f 199/3/2 200/3/2 202/3/2
f 202/3/2 200/3/2 203/3/2
f 201/3/2 202/3/2 205/3/2
f 203/3/2 204/3/2 205/3/2
f 202/3/2 203/3/2 205/3/2
f 205/3/2 204/3/2 206/3/2
f 206/3/2 204/3/2 207/3/2
f 207/3/2 204/3/2 208/3/2
f 206/3/2 207/3/2 209/3/2
f 209/3/2 207/3/2 210/3/2
f 214/3/3 212/3/3 211/3/3
f 215/3/3 212/3/3 214/3/3
f 217/3/3 214/3/3 213/3/3
f 217/3/3 216/3/3 215/3/3
f 217/3/3 215/3/3 214/3/3
f 218/3/3 216/3/3 217/3/3
f 219/3/3 216/3/3 218/3/3
f 220/3/3 216/3/3 219/3/3
f 221/3/3 219/3/3 218/3/3
f 222/3/3 219/3/3 221/3/3
f 227/3/3 224/3/3 223/3/3
f 228/3/3 224/3/3 227/3/3
f 229/3/3 226/3/3 225/3/3
f 230/3/3 226/3/3 229/3/3
f 235/1/3 232/1/3 231/1/3
f 236/1/3 232/1/3 235/1/3
f 237/1/3 234/1/3 233/1/3
f 238/1/3 234/1/3 237/1/3
f 243/3/3 240/3/3 239/3/3
f 244/3/3 240/3/3 243/3/3
f 245/3/3 242/3/3 241/3/3
f 246/3/3 242/3/3 245/3/3
f 251/1/3 248/1/3 247/1/3
f 252/1/3 248/1/3 251/1/3
f 253/1/3 250/1/3 249/1/3
f 254/1/3 250/1/3 253/1/3
f 259/1/3 256/1/3 255/1/3
f 260/1/3 256/1/3 259/1/3
f 261/1/3 258/1/3 257/1/3
f 262/1/3 258/1/3 261/1/3
f 265/1/3 264/1/3 263/1/3
f 266/1/3 264/1/3 265/1/3
f 269/1/3 268/1/3 267/1/3
f 270/1/3 268/1/3 269/1/3
f 273/1/3 272/1/3 271/1/3
f 274/1/3 272/1/3 273/1/3
f 275/1/4 276/1/4 277/1/4
f 277/1/4 276/1/4 278/1/4
f 279/1/4 280/1/4 281/1/4
f 281/1/4 280/1/4 282/1/4
f 283/1/4 284/1/4 285/1/4
f 285/1/4 284/1/4 286/1/4
f 287/1/4 288/1/4 289/1/4
f 289/1/4 288/1/4 290/1/4
f 291/3/4 292/3/4 295/3/4
f 295/3/4 292/3/4 296/3/4
f 293/3/4 294/3/4 297/3/4
f 297/3/4 294/3/4 298/3/4
f 299/1/4 300/1/4 301/1/4
f 301/1/4 300/1/4 302/1/4
f 303/1/4 304/1/4 305/1/4
f 305/1/4 304/1/4 306/1/4
f 307/3/4 308/3/4 311/3/4
f 311/3/4 308/3/4 312/3/4
f 309/3/4 310/3/4 313/3/4
f 313/3/4 310/3/4 314/3/4
f 315/1/4 316/1/4 317/1/4
f 317/1/4 316/1/4 318/1/4
f 319/1/4 320/1/4 321/1/4
f 321/1/4 320/1/4 322/1/4
f 323/1/4 324/1/4 325/1/4
f 325/1/4 324/1/4 326/1/4
f 327/1/4 328/1/4 329/1/4
f 329/1/4 328/1/4 330/1/4
f 331/1/4 332/1/4 333/1/4
f 333/1/4 332/1/4 334/1/4
f 335/1/4 336/1/4 339/1/4
f 339/1/4 336/1/4 340/1/4
f 337/1/4 338/1/4 341/1/4
f 341/1/4 338/1/4 342/1/4
f 343/3/4 344/3/4 346/3/4
f 346/3/4 344/3/4 347/3/4
f 345/3/4 346/3/4 350/3/4
f 350/3/4 346/3/4 351/3/4
f 347/3/4 348/3/4 352/3/4
f 352/3/4 348/3/4 353/3/4
f 349/1/4 350/1/4 354/1/4
f 354/1/4 350/1/4 355/1/4
f 356/1/4 357/1/4 358/1/4
f 358/1/4 357/1/4 359/1/4
f 360/1/4 361/1/4 364/1/4
f 364/1/4 361/1/4 365/1/4
f 362/1/4 363/1/4 366/1/4
f 366/1/4 363/1/4 367/1/4
f 367/3/4 368/3/4 371/3/4
f 371/3/4 368/3/4 372/3/4
f 369/3/4 370/3/4 373/3/4
f 373/3/4 370/3/4 374/3/4
f 372/3/4 373/3/4 375/3/4
f 375/3/4 373/3/4 376/3/4
f 377/3/4 378/3/4 380/3/4
f 380/3/4 378/3/4 381/3/4
f 379/3/4 380/3/4 384/3/4
f 381/3/4 382/3/4 384/3/4
f 380/3/4 381/3/4 384/3/4
f 384/3/4 382/3/4 385/3/4
f 385/3/4 382/3/4 386/3/4
f 383/1/4 384/1/4 387/1/4
f 384/3/4 385/3/4 387/3/4
f 387/3/4 385/3/4 388/3/4
f 386/3/4 382/3/4 389/3/4
f 389/3/4 382/3/4 390/3/4
f 391/1/4 392/1/4 393/1/4
f 393/1/4 392/1/4 394/1/4
f 383/1/4 387/1/4 395/1/4
f 383/1/4 395/1/4 399/1/4
f 395/3/4 396/3/4 400/3/4
f 399/1/4 395/1/4 400/1/4
f 400/3/4 396/3/4 401/3/4
f 397/3/4 398/3/4 402/3/4
f 400/3/4 401/3/4 403/3/4
f 401/3/4 402/3/4 403/3/4
f 403/3/4 402/3/4 404/3/4
f 402/3/4 398/3/4 405/3/4
f 404/3/4 402/3/4 405/3/4
f 405/3/4 398/3/4 406/3/4
f 404/3/4 405/3/4 407/3/4
f 407/3/4 405/3/4 408/3/4
f 409/3/4 410/3/4 412/3/4
f 412/3/4 410/3/4 413/3/4
f 411/3/4 412/3/4 415/3/4
f 413/3/4 414/3/4 415/3/4
f 412/3/4 413/3/4 415/3/4
f 415/3/4 414/3/4 416/3/4
f 416/3/4 414/3/4 417/3/4
f 417/3/4 414/3/4 418/3/4
f 416/3/4 417/3/4 419/3/4
f 419/3/4 417/3/4 420/3/4
f 424/1/5 422/1/5 421/1/5
f 425/1/5 422/1/5 424/1/5
f 427/1/5 424/1/5 423/1/5
f 427/1/5 426/1/5 425/1/5
f 427/1/5 425/1/5 424/1/5
f 428/1/5 426/1/5 427/1/5
f 429/1/5 426/1/5 428/1/5
f 430/1/5 426/1/5 429/1/5
f 431/1/5 429/1/5 428/1/5
f 432/1/5 429/1/5 431/1/5
f 433/1/5 429/1/5 432/1/5
f 434/1/5 429/1/5 433/1/5
f 435/1/5 433/1/5 432/1/5
f 436/1/5 433/1/5 435/1/5
f 440/3/5 438/3/5 437/3/5
f 441/3/5 438/3/5 440/3/5
f 442/3/5 438/3/5 441/3/5
f 443/3/5 438/3/5 442/3/5
f 445/3/5 440/3/5 439/3/5
f 445/3/5 441/3/5 440/3/5
f 446/3/5 441/3/5 445/3/5
f 447/3/5 444/3/5 443/3/5
f 447/3/5 443/3/5 442/3/5
f 448/3/5 444/3/5 447/3/5
f 449/3/5 445/3/5 439/3/5
f 450/3/5 445/3/5 449/3/5
f 451/3/5 444/3/5 448/3/5
f 452/3/5 444/3/5 451/3/5
f 457/3/5 454/3/5 453/3/5
f 458/3/5 454/3/5 457/3/5
f 461/3/5 456/3/5 455/3/5
f 462/3/5 456/3/5 461/3/5
f 463/3/5 459/3/5 458/3/5
f 464/3/5 459/3/5 463/3/5
f 467/3/5 461/3/5 460/3/5
f 468/3/5 461/3/5 467/3/5
f 469/3/5 466/3/5 465/3/5
f 470/3/5 466/3/5 469/3/5
f 475/3/5 472/3/5 471/3/5
f 476/3/5 472/3/5 475/3/5
f 477/3/5 474/3/5 473/3/5
f 478/3/5 474/3/5 477/3/5
f 483/3/5 480/3/5 479/3/5
f 484/3/5 480/3/5 483/3/5
f 487/3/5 482/3/5 481/3/5
f 488/3/5 482/3/5 487/3/5
f 489/3/5 485/3/5 484/3/5
f 490/3/5 485/3/5 489/3/5
f 495/3/5 487/3/5 486/3/5
f 496/3/5 487/3/5 495/3/5
f 497/3/5 492/3/5 491/3/5
f 498/3/5 492/3/5 497/3/5
f 499/3/5 494/3/5 493/3/5
f 500/3/5 494/3/5 499/3/5
f 501/3/6 502/3/6 505/3/6
f 505/3/6 502/3/6 506/3/6
f 503/3/6 504/3/6 507/3/6
f 507/3/6 504/3/6 508/3/6
f 509/3/6 510/3/6 513/3/6
f 513/3/6 510/3/6 514/3/6
f 511/3/6 512/3/6 517/3/6
f 517/3/6 512/3/6 518/3/6
f 514/3/6 515/3/6 519/3/6
f 519/3/6 515/3/6 520/3/6
f 516/3/6 517/3/6 525/3/6
f 525/3/6 517/3/6 526/3/6
f 521/3/6 522/3/6 527/3/6
f 527/3/6 522/3/6 528/3/6
f 523/3/6 524/3/6 529/3/6
f 529/3/6 524/3/6 530/3/6
f 531/3/6 532/3/6 534/3/6
f 534/3/6 532/3/6 535/3/6
f 535/3/6 532/3/6 536/3/6
f 536/3/6 532/3/6 537/3/6
f 533/3/6 534/3/6 539/3/6
f 534/3/6 535/3/6 539/3/6
f 539/3/6 535/3/6 540/3/6
f 537/3/6 538/3/6 541/3/6
f 536/3/6 537/3/6 541/3/6
f 541/3/6 538/3/6 542/3/6
f 533/3/6 539/3/6 543/3/6
f 542/3/6 538/3/6 546/3/6
f 543/3/6 544/3/6 547/3/6
f 533/3/6 543/3/6 547/3/6
f 547/3/6 544/3/6 548/3/6
f 545/3/6 546/3/6 549/3/6
f 546/3/6 538/3/6 549/3/6
f 549/3/6 538/3/6 550/3/6
f 548/3/6 544/3/6 551/3/6
f 545/3/6 549/3/6 554/3/6
f 551/3/6 552/3/6 555/3/6
f 548/3/6 551/3/6 555/3/6
f 555/3/6 552/3/6 556/3/6
f 556/3/6 552/3/6 557/3/6
f 553/3/6 554/3/6 560/3/6
f 554/3/6 549/3/6 561/3/6
f 560/3/6 554/3/6 561/3/6
f 561/3/6 549/3/6 562/3/6
f 557/3/6 558/3/6 563/3/6
f 556/3/6 557/3/6 563/3/6
f 563/3/6 558/3/6 564/3/6
f 564/3/6 558/3/6 565/3/6
f 559/3/6 560/3/6 566/3/6
f 560/3/6 561/3/6 566/3/6
f 566/3/6 561/3/6 567/3/6
f 567/3/6 561/3/6 568/3/6
f 564/3/6 565/3/6 569/3/6
f 566/3/6 567/3/6 569/3/6
f 565/3/6 566/3/6 569/3/6
f 569/3/6 567/3/6 570/3/6
f 571/1/6 572/1/6 574/1/6
f 574/1/6 572/1/6 575/1/6
f 573/1/6 574/1/6 577/1/6
f 575/1/6 576/1/6 577/1/6
f 574/1/6 575/1/6 577/1/6
f 577/1/6 576/1/6 578/1/6
f 573/1/6 577/1/6 579/1/6
f 579/1/6 577/1/6 580/1/6
f 578/1/6 576/1/6 581/1/6
f 581/1/6 576/1/6 582/1/6
f 573/1/6 579/1/6 583/1/6
f 582/1/6 576/1/6 586/1/6
f 583/1/6 584/1/6 587/1/6
f 573/1/6 583/1/6 587/1/6
f 587/1/6 584/1/6 588/1/6
f 585/1/6 586/1/6 589/1/6
f 586/1/6 576/1/6 589/1/6
f 589/1/6 576/1/6 590/1/6
f 588/1/6 584/1/6 591/1/6
f 585/1/6 589/1/6 594/1/6
f 591/1/6 592/1/6 595/1/6
f 593/1/6 594/1/6 598/1/6
f 595/1/6 596/1/6 599/1/6
f 588/1/6 591/1/6 599/1/6
f 591/1/6 595/1/6 599/1/6
f 599/1/6 596/1/6 600/1/6
f 600/1/6 596/1/6 601/1/6
f 597/1/6 598/1/6 602/1/6
f 598/1/6 594/1/6 603/1/6
f 594/1/6 589/1/6 603/1/6
f 602/1/6 598/1/6 603/1/6
f 603/1/6 589/1/6 604/1/6
f 600/1/6 601/1/6 605/1/6
f 601/1/6 602/1/6 605/1/6
f 602/1/6 603/1/6 605/1/6
f 605/1/6 603/1/6 606/1/6
f 606/1/6 603/1/6 607/1/6
f 607/1/6 603/1/6 608/1/6
f 606/1/6 607/1/6 609/1/6
f 609/1/6 607/1/6 610/1/6
f 611/1/6 612/1/6 614/1/6
f 614/1/6 612/1/6 615/1/6
f 613/1/6 614/1/6 617/1/6
f 615/1/6 616/1/6 617/1/6
f 614/1/6 615/1/6 617/1/6
f 617/1/6 616/1/6 618/1/6
f 613/1/6 617/1/6 619/1/6
f 617/2/6 618/2/6 620/2/6
f 619/1/6 617/1/6 620/1/6
f 618/1/6 616/1/6 621/1/6
f 620/2/6 618/2/6 621/2/6
f 621/1/6 616/1/6 622/1/6
f 619/2/6 620/2/6 623/2/6
f 620/2/6 621/2/6 623/2/6
f 621/2/6 622/2/6 623/2/6
f 623/2/6 622/2/6 624/2/6
f 619/2/6 623/2/6 625/2/6
f 623/1/6 624/1/6 625/1/6
f 624/2/6 622/2/6 626/2/6
f 625/1/6 624/1/6 626/1/6
f 619/2/6 625/2/6 627/2/6
f 625/2/6 626/2/6 627/2/6
f 627/2/6 626/2/6 628/2/6
f 619/2/6 627/2/6 629/2/6
f 627/1/6 628/1/6 629/1/6
f 628/2/6 626/2/6 630/2/6
f 629/1/6 628/1/6 630/1/6
f 619/2/6 629/2/6 631/2/6
f 629/2/6 630/2/6 631/2/6
f 626/2/6 622/2/6 632/2/6
f 631/2/6 630/2/6 632/2/6
f 630/2/6 626/2/6 632/2/6
f 619/2/6 631/2/6 633/2/6
f 631/1/6 632/1/6 633/1/6
f 632/2/6 622/2/6 634/2/6
f 633/1/6 632/1/6 634/1/6
f 613/1/6 619/1/6 635/1/6
f 619/2/6 633/2/6 635/2/6
f 633/2/6 634/2/6 635/2/6
f 635/2/6 634/2/6 636/2/6
f 634/2/6 622/2/6 637/2/6
f 636/2/6 634/2/6 637/2/6
f 622/1/6 616/1/6 638/1/6
f 637/2/6 622/2/6 638/2/6
f 635/1/6 636/1/6 639/1/6
f 613/1/6 635/1/6 639/1/6
f 639/1/6 636/1/6 640/1/6
f 636/2/6 637/2/6 641/2/6
f 640/1/6 636/1/6 641/1/6
f 637/1/6 638/1/6 642/1/6
f 641/2/6 637/2/6 642/2/6
f 638/1/6 616/1/6 643/1/6
f 642/1/6 638/1/6 643/1/6
f 643/1/6 616/1/6 644/1/6
f 641/1/6 642/1/6 645/1/6
f 642/1/6 643/1/6 645/1/6
f 640/1/6 641/1/6 645/1/6
f 645/1/6 643/1/6 646/1/6
f 646/1/6 643/1/6 647/1/6
f 647/1/6 643/1/6 648/1/6
f 646/1/6 647/1/6 649/1/6
f 649/1/6 647/1/6 650/1/6
f 650/1/6 647/1/6 651/1/6
f 651/1/6 647/1/6 652/1/6
f 650/1/6 651/1/6 653/1/6
f 653/1/6 651/1/6 654/1/6
