# MagicaVoxel @ Ephtracy

# group
g bloodbag

# material
mtllib bloodbag.mtl
usemtl palette

# normals
vn -1 0 0
vn 1 0 0
vn 0 0 1
vn 0 0 -1
vn 0 -1 0
vn 0 1 0

# texcoords
vt 0.849609 0.5
vt 0.966797 0.5

# verts
v -11 1 16
v -11 1 -12
v -11 2 17
v -11 2 16
v -11 2 -12
v -11 2 -15
v -11 3 17
v -11 3 16
v -11 3 -12
v -11 3 -15
v -11 4 16
v -11 4 -12
v -10 0 15
v -10 0 -14
v -10 1 17
v -10 1 16
v -10 1 15
v -10 1 -12
v -10 1 -14
v -10 1 -15
v -10 2 17
v -10 2 16
v -10 2 -12
v -10 2 -15
v -10 2 -16
v -10 3 17
v -10 3 16
v -10 3 -12
v -10 3 -15
v -10 3 -16
v -10 4 17
v -10 4 16
v -10 4 15
v -10 4 -11
v -10 4 -12
v -10 4 -15
v -10 5 15
v -10 5 -11
v -9 0 16
v -9 0 15
v -9 0 -14
v -9 0 -15
v -9 1 16
v -9 1 15
v -9 1 -14
v -9 1 -15
v -9 1 -16
v -9 2 -15
v -9 2 -16
v -9 3 -15
v -9 3 -16
v -9 4 16
v -9 4 15
v -9 4 -11
v -9 4 -14
v -9 4 -15
v -9 4 -16
v -9 5 16
v -9 5 15
v -9 5 -11
v -9 5 -14
v -8 0 -15
v -8 0 -16
v -8 1 -15
v -8 1 -16
v -8 2 -16
v -8 2 -17
v -8 3 -16
v -8 3 -17
v -8 4 -14
v -8 4 -15
v -8 5 13
v -8 5 -9
v -8 5 -14
v -8 5 -15
v -8 6 13
v -8 6 -9
v -7 1 -16
v -7 1 -17
v -7 2 -16
v -7 2 -17
v -7 3 -16
v -7 3 -17
v -7 4 -16
v -7 4 -17
v -7 5 14
v -7 5 13
v -7 5 -9
v -7 5 -12
v -7 6 14
v -7 6 13
v -7 6 -9
v -7 6 -12
v -6 4 -15
v -6 4 -16
v -6 5 -12
v -6 5 -13
v -6 5 -15
v -6 5 -16
v -6 6 -12
v -6 6 -13
v -5 5 -13
v -5 5 -14
v -5 6 -13
v -5 6 -14
v 5 5 -13
v 5 5 -14
v 5 6 -13
v 5 6 -14
v 6 4 -15
v 6 4 -16
v 6 5 -12
v 6 5 -13
v 6 5 -15
v 6 5 -16
v 6 6 -12
v 6 6 -13
v 7 1 -16
v 7 1 -17
v 7 2 -16
v 7 2 -17
v 7 3 -16
v 7 3 -17
v 7 4 -16
v 7 4 -17
v 7 5 14
v 7 5 13
v 7 5 -9
v 7 5 -12
v 7 6 14
v 7 6 13
v 7 6 -9
v 7 6 -12
v 8 0 -15
v 8 0 -16
v 8 1 -15
v 8 1 -16
v 8 2 -16
v 8 2 -17
v 8 3 -16
v 8 3 -17
v 8 4 -14
v 8 4 -15
v 8 5 13
v 8 5 -9
v 8 5 -14
v 8 5 -15
v 8 6 13
v 8 6 -9
v 9 0 16
v 9 0 15
v 9 0 -14
v 9 0 -15
v 9 1 16
v 9 1 15
v 9 1 -14
v 9 1 -15
v 9 1 -16
v 9 2 -15
v 9 2 -16
v 9 3 -15
v 9 3 -16
v 9 4 16
v 9 4 15
v 9 4 -11
v 9 4 -14
v 9 4 -15
v 9 4 -16
v 9 5 16
v 9 5 15
v 9 5 -11
v 9 5 -14
v 10 0 15
v 10 0 -14
v 10 1 17
v 10 1 16
v 10 1 15
v 10 1 -12
v 10 1 -14
v 10 1 -15
v 10 2 17
v 10 2 16
v 10 2 -12
v 10 2 -15
v 10 2 -16
v 10 3 17
v 10 3 16
v 10 3 -12
v 10 3 -15
v 10 3 -16
v 10 4 17
v 10 4 16
v 10 4 15
v 10 4 -11
v 10 4 -12
v 10 4 -15
v 10 5 15
v 10 5 -11
v 11 1 16
v 11 1 -12
v 11 2 17
v 11 2 16
v 11 2 -12
v 11 2 -15
v 11 3 17
v 11 3 16
v 11 3 -12
v 11 3 -15
v 11 4 16
v 11 4 -12
v -11 2 17
v -11 3 17
v -10 1 17
v -10 2 17
v -10 3 17
v -10 4 17
v 10 1 17
v 10 2 17
v 10 3 17
v 10 4 17
v 11 2 17
v 11 3 17
v -11 1 16
v -11 2 16
v -11 3 16
v -11 4 16
v -10 1 16
v -10 2 16
v -10 3 16
v -10 4 16
v -9 0 16
v -9 1 16
v -9 4 16
v -9 5 16
v 9 0 16
v 9 1 16
v 9 4 16
v 9 5 16
v 10 1 16
v 10 2 16
v 10 3 16
v 10 4 16
v 11 1 16
v 11 2 16
v 11 3 16
v 11 4 16
v -10 0 15
v -10 1 15
v -10 4 15
v -10 5 15
v -9 0 15
v -9 1 15
v -9 4 15
v -9 5 15
v 9 0 15
v 9 1 15
v 9 4 15
v 9 5 15
v 10 0 15
v 10 1 15
v 10 4 15
v 10 5 15
v -7 5 14
v -7 6 14
v 7 5 14
v 7 6 14
v -8 5 13
v -8 6 13
v -7 5 13
v -7 6 13
v 7 5 13
v 7 6 13
v 8 5 13
v 8 6 13
v -8 5 -9
v -8 6 -9
v -7 5 -9
v -7 6 -9
v 7 5 -9
v 7 6 -9
v 8 5 -9
v 8 6 -9
v -10 4 -11
v -10 5 -11
v -9 4 -11
v -9 5 -11
v 9 4 -11
v 9 5 -11
v 10 4 -11
v 10 5 -11
v -11 1 -12
v -11 2 -12
v -11 3 -12
v -11 4 -12
v -10 1 -12
v -10 2 -12
v -10 3 -12
v -10 4 -12
v -7 5 -12
v -7 6 -12
v -6 5 -12
v -6 6 -12
v 6 5 -12
v 6 6 -12
v 7 5 -12
v 7 6 -12
v 10 1 -12
v 10 2 -12
v 10 3 -12
v 10 4 -12
v 11 1 -12
v 11 2 -12
v 11 3 -12
v 11 4 -12
v -6 5 -13
v -6 6 -13
v -5 5 -13
v -5 6 -13
v 5 5 -13
v 5 6 -13
v 6 5 -13
v 6 6 -13
v -10 0 -14
v -10 1 -14
v -9 0 -14
v -9 1 -14
v -9 4 -14
v -9 5 -14
v -8 4 -14
v -8 5 -14
v -5 5 -14
v -5 6 -14
v 5 5 -14
v 5 6 -14
v 8 4 -14
v 8 5 -14
v 9 0 -14
v 9 1 -14
v 9 4 -14
v 9 5 -14
v 10 0 -14
v 10 1 -14
v -11 2 -15
v -11 3 -15
v -10 1 -15
v -10 2 -15
v -10 3 -15
v -10 4 -15
v -9 0 -15
v -9 1 -15
v -9 2 -15
v -9 3 -15
v -9 4 -15
v -8 0 -15
v -8 1 -15
v -8 4 -15
v -8 5 -15
v -6 4 -15
v -6 5 -15
v 6 4 -15
v 6 5 -15
v 8 0 -15
v 8 1 -15
v 8 4 -15
v 8 5 -15
v 9 0 -15
v 9 1 -15
v 9 2 -15
v 9 3 -15
v 9 4 -15
v 10 1 -15
v 10 2 -15
v 10 3 -15
v 10 4 -15
v 11 2 -15
v 11 3 -15
v -10 2 -16
v -10 3 -16
v -9 1 -16
v -9 2 -16
v -9 3 -16
v -9 4 -16
v -8 0 -16
v -8 1 -16
v -8 2 -16
v -8 3 -16
v -7 1 -16
v -7 2 -16
v -7 3 -16
v -7 4 -16
v -6 4 -16
v -6 5 -16
v 6 4 -16
v 6 5 -16
v 7 1 -16
v 7 2 -16
v 7 3 -16
v 7 4 -16
v 8 0 -16
v 8 1 -16
v 8 2 -16
v 8 3 -16
v 9 1 -16
v 9 2 -16
v 9 3 -16
v 9 4 -16
v 10 2 -16
v 10 3 -16
v -8 2 -17
v -8 3 -17
v -7 1 -17
v -7 2 -17
v -7 3 -17
v -7 4 -17
v 7 1 -17
v 7 2 -17
v 7 3 -17
v 7 4 -17
v 8 2 -17
v 8 3 -17
v -9 0 16
v 9 0 16
v -10 0 15
v -9 0 15
v 9 0 15
v 10 0 15
v -10 0 -14
v -9 0 -14
v 9 0 -14
v 10 0 -14
v -9 0 -15
v -8 0 -15
v 8 0 -15
v 9 0 -15
v -8 0 -16
v 8 0 -16
v -10 1 17
v 10 1 17
v -11 1 16
v -10 1 16
v -9 1 16
v 9 1 16
v 10 1 16
v 11 1 16
v -10 1 15
v -9 1 15
v 9 1 15
v 10 1 15
v -11 1 -12
v -10 1 -12
v 10 1 -12
v 11 1 -12
v -10 1 -14
v -9 1 -14
v 9 1 -14
v 10 1 -14
v -10 1 -15
v -9 1 -15
v -8 1 -15
v 8 1 -15
v 9 1 -15
v 10 1 -15
v -9 1 -16
v -8 1 -16
v -7 1 -16
v 7 1 -16
v 8 1 -16
v 9 1 -16
v -7 1 -17
v 7 1 -17
v -11 2 17
v -10 2 17
v 10 2 17
v 11 2 17
v -11 2 16
v -10 2 16
v 10 2 16
v 11 2 16
v -11 2 -12
v -10 2 -12
v 10 2 -12
v 11 2 -12
v -11 2 -15
v -10 2 -15
v -9 2 -15
v 9 2 -15
v 10 2 -15
v 11 2 -15
v -10 2 -16
v -9 2 -16
v -8 2 -16
v -7 2 -16
v 7 2 -16
v 8 2 -16
v 9 2 -16
v 10 2 -16
v -8 2 -17
v -7 2 -17
v 7 2 -17
v 8 2 -17
v -11 3 17
v -10 3 17
v 10 3 17
v 11 3 17
v -11 3 16
v -10 3 16
v 10 3 16
v 11 3 16
v -11 3 -12
v -10 3 -12
v 10 3 -12
v 11 3 -12
v -11 3 -15
v -10 3 -15
v -9 3 -15
v 9 3 -15
v 10 3 -15
v 11 3 -15
v -10 3 -16
v -9 3 -16
v -8 3 -16
v -7 3 -16
v 7 3 -16
v 8 3 -16
v 9 3 -16
v 10 3 -16
v -8 3 -17
v -7 3 -17
v 7 3 -17
v 8 3 -17
v -10 4 17
v 10 4 17
v -11 4 16
v -10 4 16
v -9 4 16
v 9 4 16
v 10 4 16
v 11 4 16
v -10 4 15
v -9 4 15
v 9 4 15
v 10 4 15
v -10 4 -11
v -9 4 -11
v 9 4 -11
v 10 4 -11
v -11 4 -12
v -10 4 -12
v 10 4 -12
v 11 4 -12
v -9 4 -14
v -8 4 -14
v 8 4 -14
v 9 4 -14
v -10 4 -15
v -9 4 -15
v -8 4 -15
v -6 4 -15
v 6 4 -15
v 8 4 -15
v 9 4 -15
v 10 4 -15
v -9 4 -16
v -7 4 -16
v -6 4 -16
v 6 4 -16
v 7 4 -16
v 9 4 -16
v -7 4 -17
v 7 4 -17
v -9 5 16
v 9 5 16
v -10 5 15
v -9 5 15
v 9 5 15
v 10 5 15
v -7 5 14
v 7 5 14
v -8 5 13
v -7 5 13
v 7 5 13
v 8 5 13
v -8 5 -9
v -7 5 -9
v 7 5 -9
v 8 5 -9
v -10 5 -11
v -9 5 -11
v 9 5 -11
v 10 5 -11
v -7 5 -12
v -6 5 -12
v 6 5 -12
v 7 5 -12
v -6 5 -13
v -5 5 -13
v 5 5 -13
v 6 5 -13
v -9 5 -14
v -8 5 -14
v -5 5 -14
v 5 5 -14
v 8 5 -14
v 9 5 -14
v -8 5 -15
v -6 5 -15
v 6 5 -15
v 8 5 -15
v -6 5 -16
v 6 5 -16
v -7 6 14
v 7 6 14
v -8 6 13
v -7 6 13
v 7 6 13
v 8 6 13
v -8 6 -9
v -7 6 -9
v 7 6 -9
v 8 6 -9
v -7 6 -12
v -6 6 -12
v 6 6 -12
v 7 6 -12
v -6 6 -13
v -5 6 -13
v 5 6 -13
v 6 6 -13
v -5 6 -14
v 5 6 -14

# faces
f 4/2/1 2/2/1 1/2/1
f 5/2/1 2/2/1 4/2/1
f 7/2/1 4/2/1 3/2/1
f 7/2/1 6/2/1 5/2/1
f 7/2/1 5/2/1 4/2/1
f 8/2/1 6/2/1 7/2/1
f 9/2/1 6/2/1 8/2/1
f 10/2/1 6/2/1 9/2/1
f 11/2/1 9/2/1 8/2/1
f 12/2/1 9/2/1 11/2/1
f 17/1/1 14/1/1 13/1/1
f 18/1/1 14/1/1 17/1/1
f 19/1/1 14/1/1 18/1/1
f 21/2/1 16/2/1 15/2/1
f 22/2/1 16/2/1 21/2/1
f 23/2/1 20/2/1 19/2/1
f 23/2/1 19/2/1 18/2/1
f 24/2/1 20/2/1 23/2/1
f 29/2/1 25/2/1 24/2/1
f 30/2/1 25/2/1 29/2/1
f 31/2/1 27/2/1 26/2/1
f 32/2/1 27/2/1 31/2/1
f 35/2/1 29/2/1 28/2/1
f 36/2/1 29/2/1 35/2/1
f 37/1/1 34/1/1 33/1/1
f 38/1/1 34/1/1 37/1/1
f 43/1/1 40/1/1 39/1/1
f 44/1/1 40/1/1 43/1/1
f 45/1/1 42/1/1 41/1/1
f 46/1/1 42/1/1 45/1/1
f 48/2/1 47/2/1 46/2/1
f 49/2/1 47/2/1 48/2/1
f 56/2/1 51/2/1 50/2/1
f 57/2/1 51/2/1 56/2/1
f 58/1/1 53/1/1 52/1/1
f 59/1/1 53/1/1 58/1/1
f 60/1/1 55/1/1 54/1/1
f 61/1/1 55/1/1 60/1/1
f 64/1/1 63/1/1 62/1/1
f 65/1/1 63/1/1 64/1/1
f 68/2/1 67/2/1 66/2/1
f 69/2/1 67/2/1 68/2/1
f 74/1/1 71/1/1 70/1/1
f 75/1/1 71/1/1 74/1/1
f 76/1/1 73/1/1 72/1/1
f 77/1/1 73/1/1 76/1/1
f 80/2/1 79/2/1 78/2/1
f 81/2/1 79/2/1 80/2/1
f 84/2/1 83/2/1 82/2/1
f 85/2/1 83/2/1 84/2/1
f 90/1/1 87/1/1 86/1/1
f 91/1/1 87/1/1 90/1/1
f 92/1/1 89/1/1 88/1/1
f 93/1/1 89/1/1 92/1/1
f 98/1/1 95/1/1 94/1/1
f 99/1/1 95/1/1 98/1/1
f 100/1/1 97/1/1 96/1/1
f 101/1/1 97/1/1 100/1/1
f 104/1/1 103/1/1 102/1/1
f 105/1/1 103/1/1 104/1/1
f 106/1/2 107/1/2 108/1/2
f 108/1/2 107/1/2 109/1/2
f 110/1/2 111/1/2 114/1/2
f 114/1/2 111/1/2 115/1/2
f 112/1/2 113/1/2 116/1/2
f 116/1/2 113/1/2 117/1/2
f 118/2/2 119/2/2 120/2/2
f 120/2/2 119/2/2 121/2/2
f 122/2/2 123/2/2 124/2/2
f 124/2/2 123/2/2 125/2/2
f 126/1/2 127/1/2 130/1/2
f 130/1/2 127/1/2 131/1/2
f 128/1/2 129/1/2 132/1/2
f 132/1/2 129/1/2 133/1/2
f 134/1/2 135/1/2 136/1/2
f 136/1/2 135/1/2 137/1/2
f 138/2/2 139/2/2 140/2/2
f 140/2/2 139/2/2 141/2/2
f 142/1/2 143/1/2 146/1/2
f 146/1/2 143/1/2 147/1/2
f 144/1/2 145/1/2 148/1/2
f 148/1/2 145/1/2 149/1/2
f 150/1/2 151/1/2 154/1/2
f 154/1/2 151/1/2 155/1/2
f 152/1/2 153/1/2 156/1/2
f 156/1/2 153/1/2 157/1/2
f 157/2/2 158/2/2 159/2/2
f 159/2/2 158/2/2 160/2/2
f 161/2/2 162/2/2 167/2/2
f 167/2/2 162/2/2 168/2/2
f 163/1/2 164/1/2 169/1/2
f 169/1/2 164/1/2 170/1/2
f 165/1/2 166/1/2 171/1/2
f 171/1/2 166/1/2 172/1/2
f 173/1/2 174/1/2 177/1/2
f 177/1/2 174/1/2 178/1/2
f 178/1/2 174/1/2 179/1/2
f 175/2/2 176/2/2 181/2/2
f 181/2/2 176/2/2 182/2/2
f 179/2/2 180/2/2 183/2/2
f 178/2/2 179/2/2 183/2/2
f 183/2/2 180/2/2 184/2/2
f 184/2/2 185/2/2 189/2/2
f 189/2/2 185/2/2 190/2/2
f 186/2/2 187/2/2 191/2/2
f 191/2/2 187/2/2 192/2/2
f 188/2/2 189/2/2 195/2/2
f 195/2/2 189/2/2 196/2/2
f 193/1/2 194/1/2 197/1/2
f 197/1/2 194/1/2 198/1/2
f 199/2/2 200/2/2 202/2/2
f 202/2/2 200/2/2 203/2/2
f 201/2/2 202/2/2 205/2/2
f 203/2/2 204/2/2 205/2/2
f 202/2/2 203/2/2 205/2/2
f 205/2/2 204/2/2 206/2/2
f 206/2/2 204/2/2 207/2/2
f 207/2/2 204/2/2 208/2/2
f 206/2/2 207/2/2 209/2/2
f 209/2/2 207/2/2 210/2/2
f 214/2/3 212/2/3 211/2/3
f 215/2/3 212/2/3 214/2/3
f 217/2/3 214/2/3 213/2/3
f 217/2/3 216/2/3 215/2/3
f 217/2/3 215/2/3 214/2/3
f 218/2/3 216/2/3 217/2/3
f 219/2/3 216/2/3 218/2/3
f 220/2/3 216/2/3 219/2/3
f 221/2/3 219/2/3 218/2/3
f 222/2/3 219/2/3 221/2/3
f 227/2/3 224/2/3 223/2/3
f 228/2/3 224/2/3 227/2/3
f 229/2/3 226/2/3 225/2/3
f 230/2/3 226/2/3 229/2/3
f 235/1/3 232/1/3 231/1/3
f 236/1/3 232/1/3 235/1/3
f 237/1/3 234/1/3 233/1/3
f 238/1/3 234/1/3 237/1/3
f 243/2/3 240/2/3 239/2/3
f 244/2/3 240/2/3 243/2/3
f 245/2/3 242/2/3 241/2/3
f 246/2/3 242/2/3 245/2/3
f 251/1/3 248/1/3 247/1/3
f 252/1/3 248/1/3 251/1/3
f 253/1/3 250/1/3 249/1/3
f 254/1/3 250/1/3 253/1/3
f 259/1/3 256/1/3 255/1/3
f 260/1/3 256/1/3 259/1/3
f 261/1/3 258/1/3 257/1/3
f 262/1/3 258/1/3 261/1/3
f 265/1/3 264/1/3 263/1/3
f 266/1/3 264/1/3 265/1/3
f 269/1/3 268/1/3 267/1/3
f 270/1/3 268/1/3 269/1/3
f 273/1/3 272/1/3 271/1/3
f 274/1/3 272/1/3 273/1/3
f 275/1/4 276/1/4 277/1/4
f 277/1/4 276/1/4 278/1/4
f 279/1/4 280/1/4 281/1/4
f 281/1/4 280/1/4 282/1/4
f 283/1/4 284/1/4 285/1/4
f 285/1/4 284/1/4 286/1/4
f 287/1/4 288/1/4 289/1/4
f 289/1/4 288/1/4 290/1/4
f 291/2/4 292/2/4 295/2/4
f 295/2/4 292/2/4 296/2/4
f 293/2/4 294/2/4 297/2/4
f 297/2/4 294/2/4 298/2/4
f 299/1/4 300/1/4 301/1/4
f 301/1/4 300/1/4 302/1/4
f 303/1/4 304/1/4 305/1/4
f 305/1/4 304/1/4 306/1/4
f 307/2/4 308/2/4 311/2/4
f 311/2/4 308/2/4 312/2/4
f 309/2/4 310/2/4 313/2/4
f 313/2/4 310/2/4 314/2/4
f 315/1/4 316/1/4 317/1/4
f 317/1/4 316/1/4 318/1/4
f 319/1/4 320/1/4 321/1/4
f 321/1/4 320/1/4 322/1/4
f 323/1/4 324/1/4 325/1/4
f 325/1/4 324/1/4 326/1/4
f 327/1/4 328/1/4 329/1/4
f 329/1/4 328/1/4 330/1/4
f 331/1/4 332/1/4 333/1/4
f 333/1/4 332/1/4 334/1/4
f 335/1/4 336/1/4 339/1/4
f 339/1/4 336/1/4 340/1/4
f 337/1/4 338/1/4 341/1/4
f 341/1/4 338/1/4 342/1/4
f 343/2/4 344/2/4 346/2/4
f 346/2/4 344/2/4 347/2/4
f 345/2/4 346/2/4 350/2/4
f 350/2/4 346/2/4 351/2/4
f 347/2/4 348/2/4 352/2/4
f 352/2/4 348/2/4 353/2/4
f 349/1/4 350/1/4 354/1/4
f 354/1/4 350/1/4 355/1/4
f 356/1/4 357/1/4 358/1/4
f 358/1/4 357/1/4 359/1/4
f 360/1/4 361/1/4 364/1/4
f 364/1/4 361/1/4 365/1/4
f 362/1/4 363/1/4 366/1/4
f 366/1/4 363/1/4 367/1/4
f 367/2/4 368/2/4 371/2/4
f 371/2/4 368/2/4 372/2/4
f 369/2/4 370/2/4 373/2/4
f 373/2/4 370/2/4 374/2/4
f 372/2/4 373/2/4 375/2/4
f 375/2/4 373/2/4 376/2/4
f 377/2/4 378/2/4 380/2/4
f 380/2/4 378/2/4 381/2/4
f 379/2/4 380/2/4 384/2/4
f 381/2/4 382/2/4 384/2/4
f 380/2/4 381/2/4 384/2/4
f 384/2/4 382/2/4 385/2/4
f 385/2/4 382/2/4 386/2/4
f 383/1/4 384/1/4 387/1/4
f 384/2/4 385/2/4 387/2/4
f 387/2/4 385/2/4 388/2/4
f 386/2/4 382/2/4 389/2/4
f 389/2/4 382/2/4 390/2/4
f 391/1/4 392/1/4 393/1/4
f 393/1/4 392/1/4 394/1/4
f 383/1/4 387/1/4 395/1/4
f 383/1/4 395/1/4 399/1/4
f 395/2/4 396/2/4 400/2/4
f 399/1/4 395/1/4 400/1/4
f 400/2/4 396/2/4 401/2/4
f 397/2/4 398/2/4 402/2/4
f 400/2/4 401/2/4 403/2/4
f 401/2/4 402/2/4 403/2/4
f 403/2/4 402/2/4 404/2/4
f 402/2/4 398/2/4 405/2/4
f 404/2/4 402/2/4 405/2/4
f 405/2/4 398/2/4 406/2/4
f 404/2/4 405/2/4 407/2/4
f 407/2/4 405/2/4 408/2/4
f 409/2/4 410/2/4 412/2/4
f 412/2/4 410/2/4 413/2/4
f 411/2/4 412/2/4 415/2/4
f 413/2/4 414/2/4 415/2/4
f 412/2/4 413/2/4 415/2/4
f 415/2/4 414/2/4 416/2/4
f 416/2/4 414/2/4 417/2/4
f 417/2/4 414/2/4 418/2/4
f 416/2/4 417/2/4 419/2/4
f 419/2/4 417/2/4 420/2/4
f 424/1/5 422/1/5 421/1/5
f 425/1/5 422/1/5 424/1/5
f 427/1/5 424/1/5 423/1/5
f 427/1/5 426/1/5 425/1/5
f 427/1/5 425/1/5 424/1/5
f 428/1/5 426/1/5 427/1/5
f 429/1/5 426/1/5 428/1/5
f 430/1/5 426/1/5 429/1/5
f 431/1/5 429/1/5 428/1/5
f 432/1/5 429/1/5 431/1/5
f 433/1/5 429/1/5 432/1/5
f 434/1/5 429/1/5 433/1/5
f 435/1/5 433/1/5 432/1/5
f 436/1/5 433/1/5 435/1/5
f 440/2/5 438/2/5 437/2/5
f 441/2/5 438/2/5 440/2/5
f 442/2/5 438/2/5 441/2/5
f 443/2/5 438/2/5 442/2/5
f 445/2/5 440/2/5 439/2/5
f 445/2/5 441/2/5 440/2/5
f 446/2/5 441/2/5 445/2/5
f 447/2/5 444/2/5 443/2/5
f 447/2/5 443/2/5 442/2/5
f 448/2/5 444/2/5 447/2/5
f 449/2/5 445/2/5 439/2/5
f 450/2/5 445/2/5 449/2/5
f 451/2/5 444/2/5 448/2/5
f 452/2/5 444/2/5 451/2/5
f 457/2/5 454/2/5 453/2/5
f 458/2/5 454/2/5 457/2/5
f 461/2/5 456/2/5 455/2/5
f 462/2/5 456/2/5 461/2/5
f 463/2/5 459/2/5 458/2/5
f 464/2/5 459/2/5 463/2/5
f 467/2/5 461/2/5 460/2/5
f 468/2/5 461/2/5 467/2/5
f 469/2/5 466/2/5 465/2/5
f 470/2/5 466/2/5 469/2/5
f 475/2/5 472/2/5 471/2/5
f 476/2/5 472/2/5 475/2/5
f 477/2/5 474/2/5 473/2/5
f 478/2/5 474/2/5 477/2/5
f 483/2/5 480/2/5 479/2/5
f 484/2/5 480/2/5 483/2/5
f 487/2/5 482/2/5 481/2/5
f 488/2/5 482/2/5 487/2/5
f 489/2/5 485/2/5 484/2/5
f 490/2/5 485/2/5 489/2/5
f 495/2/5 487/2/5 486/2/5
f 496/2/5 487/2/5 495/2/5
f 497/2/5 492/2/5 491/2/5
f 498/2/5 492/2/5 497/2/5
f 499/2/5 494/2/5 493/2/5
f 500/2/5 494/2/5 499/2/5
f 501/2/6 502/2/6 505/2/6
f 505/2/6 502/2/6 506/2/6
f 503/2/6 504/2/6 507/2/6
f 507/2/6 504/2/6 508/2/6
f 509/2/6 510/2/6 513/2/6
f 513/2/6 510/2/6 514/2/6
f 511/2/6 512/2/6 517/2/6
f 517/2/6 512/2/6 518/2/6
f 514/2/6 515/2/6 519/2/6
f 519/2/6 515/2/6 520/2/6
f 516/2/6 517/2/6 525/2/6
f 525/2/6 517/2/6 526/2/6
f 521/2/6 522/2/6 527/2/6
f 527/2/6 522/2/6 528/2/6
f 523/2/6 524/2/6 529/2/6
f 529/2/6 524/2/6 530/2/6
f 531/2/6 532/2/6 534/2/6
f 534/2/6 532/2/6 535/2/6
f 535/2/6 532/2/6 536/2/6
f 536/2/6 532/2/6 537/2/6
f 533/2/6 534/2/6 539/2/6
f 534/2/6 535/2/6 539/2/6
f 539/2/6 535/2/6 540/2/6
f 537/2/6 538/2/6 541/2/6
f 536/2/6 537/2/6 541/2/6
f 541/2/6 538/2/6 542/2/6
f 533/2/6 539/2/6 543/2/6
f 542/2/6 538/2/6 546/2/6
f 543/2/6 544/2/6 547/2/6
f 533/2/6 543/2/6 547/2/6
f 547/2/6 544/2/6 548/2/6
f 545/2/6 546/2/6 549/2/6
f 546/2/6 538/2/6 549/2/6
f 549/2/6 538/2/6 550/2/6
f 548/2/6 544/2/6 551/2/6
f 545/2/6 549/2/6 554/2/6
f 551/2/6 552/2/6 555/2/6
f 548/2/6 551/2/6 555/2/6
f 555/2/6 552/2/6 556/2/6
f 556/2/6 552/2/6 557/2/6
f 553/2/6 554/2/6 560/2/6
f 554/2/6 549/2/6 561/2/6
f 560/2/6 554/2/6 561/2/6
f 561/2/6 549/2/6 562/2/6
f 557/2/6 558/2/6 563/2/6
f 556/2/6 557/2/6 563/2/6
f 563/2/6 558/2/6 564/2/6
f 564/2/6 558/2/6 565/2/6
f 559/2/6 560/2/6 566/2/6
f 560/2/6 561/2/6 566/2/6
f 566/2/6 561/2/6 567/2/6
f 567/2/6 561/2/6 568/2/6
f 564/2/6 565/2/6 569/2/6
f 566/2/6 567/2/6 569/2/6
f 565/2/6 566/2/6 569/2/6
f 569/2/6 567/2/6 570/2/6
f 571/1/6 572/1/6 574/1/6
f 574/1/6 572/1/6 575/1/6
f 573/1/6 574/1/6 577/1/6
f 575/1/6 576/1/6 577/1/6
f 574/1/6 575/1/6 577/1/6
f 577/1/6 576/1/6 578/1/6
f 573/1/6 577/1/6 579/1/6
f 579/1/6 577/1/6 580/1/6
f 578/1/6 576/1/6 581/1/6
f 581/1/6 576/1/6 582/1/6
f 573/1/6 579/1/6 583/1/6
f 582/1/6 576/1/6 586/1/6
f 583/1/6 584/1/6 587/1/6
f 573/1/6 583/1/6 587/1/6
f 587/1/6 584/1/6 588/1/6
f 585/1/6 586/1/6 589/1/6
f 586/1/6 576/1/6 589/1/6
f 589/1/6 576/1/6 590/1/6
f 588/1/6 584/1/6 591/1/6
f 585/1/6 589/1/6 594/1/6
f 591/1/6 592/1/6 595/1/6
f 593/1/6 594/1/6 598/1/6
f 595/1/6 596/1/6 599/1/6
f 588/1/6 591/1/6 599/1/6
f 591/1/6 595/1/6 599/1/6
f 599/1/6 596/1/6 600/1/6
f 600/1/6 596/1/6 601/1/6
f 597/1/6 598/1/6 602/1/6
f 598/1/6 594/1/6 603/1/6
f 594/1/6 589/1/6 603/1/6
f 602/1/6 598/1/6 603/1/6
f 603/1/6 589/1/6 604/1/6
f 600/1/6 601/1/6 605/1/6
f 601/1/6 602/1/6 605/1/6
f 602/1/6 603/1/6 605/1/6
f 605/1/6 603/1/6 606/1/6
f 606/1/6 603/1/6 607/1/6
f 607/1/6 603/1/6 608/1/6
f 606/1/6 607/1/6 609/1/6
f 609/1/6 607/1/6 610/1/6
f 611/1/6 612/1/6 614/1/6
f 614/1/6 612/1/6 615/1/6
f 613/1/6 614/1/6 617/1/6
f 615/1/6 616/1/6 617/1/6
f 614/1/6 615/1/6 617/1/6
f 617/1/6 616/1/6 618/1/6
f 618/1/6 616/1/6 619/1/6
f 619/1/6 616/1/6 620/1/6
f 618/1/6 619/1/6 621/1/6
f 621/1/6 619/1/6 622/1/6
f 622/1/6 619/1/6 623/1/6
f 623/1/6 619/1/6 624/1/6
f 622/1/6 623/1/6 625/1/6
f 625/1/6 623/1/6 626/1/6
f 626/1/6 623/1/6 627/1/6
f 627/1/6 623/1/6 628/1/6
f 626/1/6 627/1/6 629/1/6
f 629/1/6 627/1/6 630/1/6
