# MagicaVoxel @ Ephtracy

# group
g Crossroad

# material
mtllib Crossroad.mtl
usemtl palette

# normals
vn -1 0 0
vn 1 0 0
vn 0 0 1
vn 0 0 -1
vn 0 -1 0
vn 0 1 0

# texcoords
vt 0.373047 0.5
vt 0.966797 0.5
vt 0.982422 0.5

# verts
v -63 0 63
v -63 0 -63
v -63 8 63
v -63 8 -63
v 63 0 63
v 63 0 -63
v 63 8 63
v 63 8 -63
v -63 0 63
v -63 8 63
v -49 6 63
v -49 8 63
v -14 6 63
v -14 8 63
v 14 6 63
v 14 8 63
v 49 6 63
v 49 8 63
v 63 0 63
v 63 8 63
v -63 0 -63
v -63 8 -63
v -49 6 -63
v -49 8 -63
v -14 6 -63
v -14 8 -63
v 14 6 -63
v 14 8 -63
v 49 6 -63
v 49 8 -63
v 63 0 -63
v 63 8 -63
v -63 0 63
v 63 0 63
v -63 0 -63
v 63 0 -63
v -63 8 63
v -49 8 63
v -14 8 63
v 14 8 63
v 49 8 63
v 63 8 63
v -63 8 -63
v -49 8 -63
v -14 8 -63
v 14 8 -63
v 49 8 -63
v 63 8 -63

# faces
f 3/3/1 2/3/1 1/3/1
f 4/3/1 2/3/1 3/3/1
f 5/3/2 6/3/2 7/3/2
f 7/3/2 6/3/2 8/3/2
f 11/3/3 10/3/3 9/3/3
f 12/3/3 10/3/3 11/3/3
f 13/3/3 11/3/3 9/3/3
f 13/2/3 12/2/3 11/2/3
f 14/2/3 12/2/3 13/2/3
f 15/3/3 13/3/3 9/3/3
f 15/3/3 14/3/3 13/3/3
f 16/3/3 14/3/3 15/3/3
f 17/3/3 15/3/3 9/3/3
f 17/2/3 16/2/3 15/2/3
f 18/2/3 16/2/3 17/2/3
f 19/3/3 17/3/3 9/3/3
f 19/3/3 18/3/3 17/3/3
f 20/3/3 18/3/3 19/3/3
f 21/3/4 22/3/4 23/3/4
f 23/3/4 22/3/4 24/3/4
f 21/3/4 23/3/4 25/3/4
f 23/2/4 24/2/4 25/2/4
f 25/2/4 24/2/4 26/2/4
f 21/3/4 25/3/4 27/3/4
f 25/3/4 26/3/4 27/3/4
f 27/3/4 26/3/4 28/3/4
f 21/3/4 27/3/4 29/3/4
f 27/2/4 28/2/4 29/2/4
f 29/2/4 28/2/4 30/2/4
f 21/3/4 29/3/4 31/3/4
f 29/3/4 30/3/4 31/3/4
f 31/3/4 30/3/4 32/3/4
f 35/3/5 34/3/5 33/3/5
f 36/3/5 34/3/5 35/3/5
f 37/3/6 38/3/6 43/3/6
f 38/2/6 39/2/6 44/2/6
f 43/3/6 38/3/6 44/3/6
f 39/3/6 40/3/6 45/3/6
f 44/2/6 39/2/6 45/2/6
f 40/2/6 41/2/6 46/2/6
f 45/3/6 40/3/6 46/3/6
f 41/3/6 42/3/6 47/3/6
f 46/2/6 41/2/6 47/2/6
f 47/3/6 42/3/6 48/3/6
