# MagicaVoxel @ Ephtracy

# group
g parking

# material
mtllib parking.mtl
usemtl palette

# normals
vn -1 0 0
vn 1 0 0
vn 0 0 1
vn 0 0 -1
vn 0 -1 0
vn 0 1 0

# texcoords
vt 0.970703 0.5
vt 0.982422 0.5

# verts
v -60 0 60
v -60 0 -60
v -60 7 60
v -60 7 -60
v -60 8 60
v -60 8 -60
v 60 0 60
v 60 0 -60
v 60 7 60
v 60 7 -60
v 60 8 60
v 60 8 -60
v -60 0 60
v -60 7 60
v -60 8 60
v -54 7 60
v -54 8 60
v 54 7 60
v 54 8 60
v 60 0 60
v 60 7 60
v 60 8 60
v -60 0 -60
v -60 7 -60
v -60 8 -60
v 60 0 -60
v 60 7 -60
v 60 8 -60
v -60 0 60
v 60 0 60
v -60 0 -60
v 60 0 -60
v -60 8 60
v -54 8 60
v 54 8 60
v 60 8 60
v -54 8 -48
v 54 8 -48
v -60 8 -60
v 60 8 -60

# faces
f 3/2/1 2/2/1 1/2/1
f 4/2/1 2/2/1 3/2/1
f 5/1/1 4/1/1 3/1/1
f 6/1/1 4/1/1 5/1/1
f 7/2/2 8/2/2 9/2/2
f 9/2/2 8/2/2 10/2/2
f 9/1/2 10/1/2 11/1/2
f 11/1/2 10/1/2 12/1/2
f 16/2/3 14/2/3 13/2/3
f 16/1/3 15/1/3 14/1/3
f 17/1/3 15/1/3 16/1/3
f 18/2/3 16/2/3 13/2/3
f 18/2/3 17/2/3 16/2/3
f 19/2/3 17/2/3 18/2/3
f 20/2/3 18/2/3 13/2/3
f 21/1/3 19/1/3 18/1/3
f 21/2/3 18/2/3 20/2/3
f 22/1/3 19/1/3 21/1/3
f 23/2/4 24/2/4 26/2/4
f 24/1/4 25/1/4 27/1/4
f 26/2/4 24/2/4 27/2/4
f 27/1/4 25/1/4 28/1/4
f 31/2/5 30/2/5 29/2/5
f 32/2/5 30/2/5 31/2/5
f 33/1/6 34/1/6 37/1/6
f 34/2/6 35/2/6 37/2/6
f 35/1/6 36/1/6 38/1/6
f 37/2/6 35/2/6 38/2/6
f 33/1/6 37/1/6 39/1/6
f 37/1/6 38/1/6 39/1/6
f 38/1/6 36/1/6 40/1/6
f 39/1/6 38/1/6 40/1/6
